{"glyphs":{"0":{"ha":822,"x_min":54,"x_max":817,"o":"m 301 -74 q 126 -10 190 -74 q 61 163 61 53 q 78 278 61 222 q 54 393 54 329 q 133 575 54 492 q 531 732 282 732 q 713 674 633 732 q 813 513 797 614 q 817 447 817 482 q 715 149 817 288 q 464 -40 618 17 q 301 -74 381 -74 m 274 -17 q 469 32 364 -17 q 594 108 538 65 q 696 204 651 151 q 774 331 747 267 q 800 464 800 396 q 799 487 800 475 q 797 510 799 499 q 701 651 785 597 q 531 703 625 703 q 293 646 399 703 q 122 474 176 585 q 96 361 96 422 q 99 339 96 347 q 148 414 118 375 q 219 494 178 453 q 372 610 304 579 q 497 642 440 642 q 525 635 525 642 q 496 626 525 629 q 275 490 403 626 q 115 265 164 374 q 140 234 126 247 q 168 213 153 221 q 183 201 183 206 q 175 197 183 197 q 103 236 140 197 q 88 188 93 206 q 83 160 83 169 q 274 -17 83 -17 z "},"1":{"ha":508,"x_min":-92,"x_max":533,"o":"m -62 -97 q -82 -82 -72 -97 q -92 -57 -92 -67 q -89 -49 -89 -49 q 110 42 -39 17 q 171 190 119 90 q 317 442 222 290 l 390 561 q 399 576 397 574 q 351 549 378 567 q 296 507 325 532 q 194 428 204 428 q 185 431 185 428 q 196 443 185 432 q 424 650 275 510 q 449 676 433 661 q 489 710 465 692 q 506 714 500 714 q 533 683 533 714 q 521 650 533 663 q 424 532 475 603 q 317 367 372 461 q 172 50 190 161 q 200 51 186 51 q 228 51 214 51 q 317 43 261 51 q 388 19 388 33 q 375 10 388 10 l 332 17 q 303 21 318 19 q 275 22 288 22 q 168 14 221 22 l 168 10 q 190 -29 168 -29 q 215 -23 199 -29 q 239 -17 232 -17 q 240 -18 240 -17 q 203 -40 240 -21 q 157 -61 165 -61 q 108 -1 111 -61 q -56 -94 8 -28 q -62 -97 -61 -97 z "},"2":{"ha":890,"x_min":-6,"x_max":847,"o":"m 688 -90 q 567 -78 629 -90 q 442 -42 506 -67 l 210 50 q 56 8 110 8 q -6 56 -6 8 q 76 114 -6 114 q 206 88 128 114 q 316 149 257 114 q 443 229 375 185 q 488 260 461 242 q 547 303 514 278 q 729 572 729 450 q 694 639 729 614 q 619 658 663 658 q 524 646 572 658 q 429 606 476 633 q 319 453 319 543 q 322 433 319 446 q 325 414 325 421 q 322 407 325 407 q 303 435 311 407 q 296 474 296 460 q 419 626 296 565 q 624 679 528 679 q 743 649 696 679 q 799 547 799 615 q 588 261 799 418 q 433 162 515 210 q 257 71 351 114 q 394 26 336 43 q 489 -1 453 8 q 609 -22 549 -15 q 731 -29 669 -29 q 818 7 818 -29 q 756 96 818 58 q 701 121 729 113 q 644 131 672 129 l 638 131 q 632 129 636 129 l 625 129 q 610 138 610 129 q 621 146 610 146 q 691 138 656 146 q 763 110 726 129 q 847 7 847 68 q 788 -68 847 -37 q 688 -90 739 -90 m 56 25 q 107 39 79 25 q 131 52 118 46 q 156 65 143 58 q 76 79 94 79 q 21 47 21 79 q 56 25 21 25 z "},"3":{"ha":897,"x_min":-15,"x_max":858,"o":"m 313 -78 q 111 -44 197 -78 q 15 14 46 -21 q -15 83 -15 49 q 42 174 -15 135 q 200 214 99 214 q 291 209 242 214 q 397 194 340 204 q 426 181 426 190 q 404 171 426 171 q 392 172 396 171 q 304 186 349 182 q 215 190 260 190 q 81 158 129 190 q 33 83 33 125 q 56 27 33 56 q 124 -25 78 -1 q 196 -51 157 -42 q 281 -60 235 -60 q 443 -42 358 -60 q 601 13 528 -24 q 719 100 674 49 q 765 218 765 151 q 646 344 765 306 q 450 371 565 371 q 431 390 431 371 q 457 418 431 414 q 496 424 472 421 q 550 432 519 426 q 632 453 592 440 q 711 485 672 467 q 822 593 822 536 q 638 665 822 665 q 508 649 571 665 q 418 583 418 628 q 413 574 418 574 q 404 589 404 574 q 503 669 404 639 q 644 692 574 692 q 779 668 719 692 q 858 575 858 638 q 611 401 858 447 q 840 219 840 358 q 791 89 840 144 q 663 -3 742 33 q 491 -59 583 -40 q 313 -78 399 -78 z "},"4":{"ha":949,"x_min":25,"x_max":972,"o":"m 497 -142 q 444 -92 461 -142 q 429 -11 429 -53 q 474 193 429 75 q 194 256 326 218 q 81 235 115 235 q 25 272 25 235 q 101 307 25 307 q 218 290 146 307 q 563 490 314 324 q 881 735 814 660 q 904 750 896 750 q 929 722 929 750 q 907 696 929 708 l 875 675 q 784 590 832 642 q 685 471 736 539 q 603 349 640 410 q 538 232 567 289 q 735 219 650 219 q 854 236 796 219 q 938 303 938 260 q 868 361 938 338 q 800 388 800 382 q 808 392 800 394 l 813 392 q 972 281 972 382 q 892 183 972 213 q 754 161 835 161 q 515 186 664 161 q 465 -8 465 69 q 492 -92 465 -57 q 517 -128 517 -131 q 497 -142 517 -142 m 492 238 q 558 366 521 303 q 639 489 594 429 q 251 281 483 375 q 369 256 310 267 q 492 238 429 246 m 100 258 q 165 271 122 258 q 88 290 119 290 q 44 271 44 290 q 100 258 44 258 z "},"5":{"ha":976,"x_min":-104,"x_max":988,"o":"m 838 554 q 585 615 751 554 q 333 676 418 676 q 272 658 272 676 q 287 638 272 649 q 301 624 301 628 q 293 614 301 614 q 263 631 279 614 q 246 663 246 647 q 338 707 246 707 q 440 695 379 707 q 582 658 501 683 q 724 624 663 636 q 829 611 786 611 q 961 671 961 611 q 896 751 961 729 q 893 753 893 751 q 911 760 893 760 l 928 754 q 988 671 988 729 q 954 593 988 625 q 875 556 921 561 q 858 554 867 554 q 838 554 849 554 m 92 -117 q -31 -97 24 -117 q -104 -17 -104 -72 q 89 118 -104 67 q 227 147 161 138 q 351 157 293 157 q 379 147 379 157 q 351 140 379 140 q 256 128 314 140 q 121 88 199 115 q -56 -25 -56 29 q -54 -35 -56 -32 q 92 -86 -24 -86 q 425 -26 267 -86 q 707 161 599 43 q 778 307 778 240 q 638 397 778 397 q 342 336 522 397 q 301 325 306 325 q 283 339 283 325 q 310 383 283 351 q 397 531 369 464 l 413 565 q 456 588 425 588 q 485 571 485 588 q 364 361 485 557 l 500 403 q 638 428 582 428 q 849 290 849 428 q 835 222 849 257 q 790 150 821 186 q 472 -57 681 14 q 288 -101 383 -86 q 92 -117 192 -117 z "},"6":{"ha":736,"x_min":14,"x_max":732,"o":"m 171 -239 q 149 -231 165 -239 q 64 -103 64 -187 q 72 -51 64 -78 q 14 54 14 -17 q 274 436 14 228 q 489 588 381 522 q 706 694 597 653 q 717 697 713 697 q 726 697 722 697 q 732 696 732 697 q 707 678 732 690 q 608 626 660 656 q 499 560 557 596 q 235 344 347 463 q 83 54 83 182 q 93 3 83 24 q 351 246 163 131 q 553 310 453 310 q 682 204 682 310 q 568 32 682 113 q 369 -60 483 -28 q 285 -78 326 -72 q 207 -83 244 -83 q 152 -80 178 -83 q 104 -68 126 -76 q 100 -108 100 -89 q 138 -197 100 -161 q 175 -236 175 -235 q 171 -239 172 -239 m 217 -60 q 351 -35 279 -60 q 439 3 397 -19 q 518 54 481 25 q 615 204 615 129 q 525 272 615 272 q 283 176 407 272 q 118 -29 164 85 q 217 -60 150 -60 z "},"7":{"ha":607,"x_min":43,"x_max":753,"o":"m 124 -112 q 71 -44 71 -112 q 131 147 71 38 q 224 286 167 217 q 363 425 282 356 q 656 647 453 503 q 556 634 593 639 q 504 629 518 629 q 432 633 476 629 q 242 650 319 644 q 125 656 165 656 q 78 639 78 656 q 115 600 78 625 q 165 572 144 581 q 181 560 181 565 q 172 556 181 556 q 94 588 147 556 q 43 650 43 624 q 97 699 43 685 q 181 711 138 711 q 234 708 201 711 q 313 697 267 704 q 581 663 511 663 q 735 710 685 663 l 753 688 q 553 540 650 621 q 367 365 457 460 q 135 -56 135 121 q 140 -83 135 -83 q 147 -81 142 -83 q 154 -79 151 -79 q 174 -93 174 -79 q 153 -106 174 -100 q 124 -112 133 -112 z "},"8":{"ha":801,"x_min":-61,"x_max":1238,"o":"m 101 -85 q -61 0 -61 -85 q 46 163 -61 64 q 127 230 46 163 q 369 432 208 297 q 282 549 282 503 q 425 683 282 632 q 638 721 536 721 q 710 717 676 721 q 771 703 744 713 q 1203 871 1015 842 q 1219 873 1213 872 q 1231 874 1225 874 q 1238 871 1238 874 q 1203 856 1238 865 q 814 683 1021 799 q 861 604 861 653 q 846 568 861 568 q 831 583 831 568 q 832 593 831 586 q 833 604 833 600 q 781 664 833 644 q 625 574 717 629 q 413 442 533 518 q 571 176 571 299 q 426 -18 571 57 q 101 -85 296 -85 m 401 457 q 725 676 574 586 q 705 678 715 678 q 683 678 694 678 q 490 643 596 678 q 350 536 350 601 q 401 457 350 504 m 104 -19 q 410 33 288 -19 q 540 188 540 92 q 382 419 540 293 l 79 156 q -7 31 -7 75 q 104 -19 -7 -19 z "},"9":{"ha":740,"x_min":61,"x_max":938,"o":"m 308 -199 q 244 -111 244 -199 q 497 376 244 35 q 211 211 315 211 q 106 250 151 211 q 61 350 61 289 q 71 401 61 378 q 347 667 129 567 q 733 753 532 753 q 798 750 767 753 q 856 740 829 747 q 938 679 938 722 q 915 633 938 664 q 878 601 892 601 q 877 602 878 601 q 876 604 876 603 q 893 631 876 613 q 913 668 913 653 q 722 725 913 725 q 376 646 542 725 q 135 400 190 556 q 126 367 129 383 q 124 335 124 351 q 146 260 124 292 q 210 229 168 229 q 574 493 336 229 q 600 526 585 507 q 638 572 615 546 q 675 592 657 592 q 700 572 700 592 q 590 410 700 560 q 469 244 519 315 q 388 122 419 172 q 278 -126 278 -53 q 294 -178 278 -162 l 315 -196 q 308 -199 315 -199 z "},"\r":{"ha":0,"x_min":0,"x_max":0,"o":""},"\u0000":{"ha":0,"x_min":0,"x_max":0,"o":""}," ":{"ha":215,"x_min":0,"x_max":0,"o":""}," ":{"ha":215,"x_min":0,"x_max":0,"o":""},"A":{"ha":1490,"x_min":35,"x_max":1554,"o":"m 315 -121 q 132 -75 214 -121 q 35 78 35 -18 q 72 182 35 131 q 513 369 181 332 q 575 374 542 372 q 646 376 608 376 q 744 373 688 376 q 874 363 801 369 q 895 404 885 383 q 915 444 906 425 q 895 499 914 476 q 844 519 876 521 q 901 568 853 568 q 940 506 949 568 q 1013 825 1010 683 q 926 842 978 832 q 807 864 875 851 q 692 881 743 875 q 606 888 642 888 q 315 768 397 888 q 283 671 283 721 q 347 553 283 597 q 482 517 403 517 q 556 528 519 517 q 624 561 592 539 q 696 686 696 613 q 649 764 696 735 q 558 793 610 793 q 444 744 461 793 l 440 725 q 432 710 438 718 q 431 715 431 711 q 474 788 431 761 q 513 803 492 799 q 558 808 535 808 q 660 776 619 808 q 708 686 708 742 q 635 550 708 603 q 482 500 564 500 q 324 550 389 500 q 254 697 254 604 q 283 801 254 751 q 574 933 363 933 q 661 926 610 933 q 779 904 713 919 l 1013 849 q 976 982 1011 925 q 972 1000 972 993 q 982 1011 972 1011 q 1010 985 996 1011 q 1042 843 1039 938 q 1133 826 1090 833 q 1210 817 1175 819 q 1303 915 1257 882 q 1410 958 1361 958 q 1486 899 1486 958 q 1283 799 1486 804 q 1194 418 1194 654 q 1195 382 1194 400 q 1197 346 1196 364 q 1433 447 1382 353 q 1444 476 1439 458 q 1456 521 1450 494 q 1464 529 1458 529 q 1472 518 1472 529 q 1457 457 1472 496 q 1200 315 1407 321 q 1260 117 1215 199 q 1424 6 1324 6 q 1508 53 1478 6 q 1546 144 1511 56 q 1551 149 1549 149 q 1554 140 1554 149 q 1514 35 1554 83 q 1415 -12 1471 -12 l 1407 -12 q 1399 -11 1403 -11 q 1365 -46 1369 -11 q 1353 -83 1360 -83 q 1339 -78 1346 -83 q 1133 315 1161 44 q 1048 321 1096 317 q 942 331 1000 325 q 494 -89 738 -8 q 315 -121 401 -121 m 1250 814 q 1282 854 1267 839 q 1299 865 1288 860 q 1328 876 1310 869 q 1359 888 1347 883 q 1378 892 1371 892 q 1379 890 1379 892 q 1378 890 1379 890 q 1376 889 1378 890 q 1334 858 1354 876 q 1297 815 1314 840 q 1436 890 1436 825 q 1385 932 1436 932 q 1313 904 1353 932 q 1228 815 1274 876 q 1239 815 1233 815 q 1250 814 1244 815 m 940 358 q 975 417 954 379 q 1026 508 996 454 q 1094 631 1051 558 q 1197 800 1138 703 q 1124 808 1163 803 q 1042 819 1086 813 q 1028 699 1040 764 q 989 565 1015 635 q 948 466 972 517 q 894 363 924 415 l 940 358 m 1131 346 q 1129 372 1129 358 q 1129 400 1129 386 q 1238 799 1129 636 q 1226 799 1232 799 q 1215 800 1221 799 q 1151 695 1194 769 q 1039 500 1107 621 q 994 417 1014 453 q 958 357 974 382 q 1054 349 1011 351 q 1131 346 1097 347 m 332 -100 q 492 -75 407 -100 q 925 332 725 0 l 881 338 q 483 -18 688 10 q 515 71 515 3 l 515 74 q 561 115 536 115 q 565 113 565 115 q 554 25 565 40 l 519 0 q 861 340 699 54 q 613 357 703 357 q 333 314 450 357 q 183 224 243 281 q 110 71 110 154 q 182 -61 110 -12 q 332 -100 247 -100 z "},"Æ":{"ha":1806,"x_min":35,"x_max":1825,"o":"m 315 -121 q 132 -75 214 -121 q 35 78 35 -18 q 72 182 35 131 q 229 301 126 257 q 463 365 332 346 q 732 383 593 383 q 808 382 769 383 q 883 378 846 381 l 915 444 q 895 499 914 476 q 844 519 876 521 q 901 568 853 568 q 940 506 949 568 q 994 676 976 596 q 1013 825 1013 756 l 1013 839 q 911 847 957 844 q 844 850 865 850 q 718 831 779 850 q 639 753 639 804 q 653 707 639 731 q 668 682 668 683 q 597 635 668 660 q 581 679 581 651 q 688 840 581 763 q 878 919 794 919 q 931 916 897 919 q 1006 907 964 913 q 976 982 997 947 q 972 1000 972 993 q 982 1011 972 1011 q 1010 985 996 1011 q 1038 903 1029 951 q 1142 888 1086 896 q 1254 871 1197 879 q 1297 911 1275 894 q 1339 938 1318 928 q 1350 939 1343 939 q 1361 929 1361 939 q 1350 915 1361 921 q 1288 867 1317 896 q 1472 842 1385 853 q 1607 831 1560 831 q 1768 881 1731 831 q 1789 899 1782 899 q 1793 894 1793 899 q 1789 882 1793 890 q 1564 764 1721 764 q 1331 797 1472 764 q 1290 669 1308 751 q 1249 451 1271 588 q 1229 351 1240 397 q 1296 349 1264 350 q 1357 347 1328 347 q 1538 369 1467 347 q 1640 447 1608 390 q 1650 476 1644 458 q 1661 521 1656 494 q 1669 529 1664 529 q 1678 518 1678 529 q 1670 492 1678 507 q 1663 457 1663 476 q 1626 354 1663 390 q 1528 303 1590 318 q 1390 289 1467 289 q 1305 292 1349 289 q 1215 300 1261 294 q 1138 154 1183 193 l 1067 92 q 1089 94 1078 93 q 1111 94 1100 94 q 1201 83 1157 94 q 1424 31 1325 49 q 1594 14 1522 14 q 1786 72 1738 14 q 1808 108 1801 89 q 1815 147 1815 128 q 1803 187 1815 171 q 1790 204 1790 203 q 1800 214 1790 214 q 1825 157 1825 214 q 1796 69 1825 111 q 1524 -39 1717 -39 q 1397 -25 1482 -39 q 1182 17 1311 -11 q 1115 27 1147 24 q 1051 31 1082 31 q 981 26 1017 31 q 835 -35 886 8 q 783 -131 783 -78 q 885 -208 783 -208 q 901 -208 892 -208 q 910 -208 910 -207 q 868 -219 910 -211 q 863 -224 865 -221 q 856 -226 860 -226 q 794 -202 819 -226 q 769 -142 769 -178 q 796 -67 769 -103 q 906 43 847 10 q 1053 90 964 76 q 1151 307 1111 179 q 1051 319 1100 313 q 958 331 1003 325 q 806 115 882 199 q 652 -15 729 32 q 494 -89 575 -62 q 315 -121 401 -121 m 904 376 l 950 372 q 997 458 969 404 q 1058 574 1025 511 q 1130 701 1092 638 q 1208 818 1168 765 q 1128 827 1171 822 q 1042 836 1085 832 q 1026 698 1042 769 q 989 565 1011 626 q 949 467 972 517 q 904 376 926 418 m 983 371 q 1078 363 1033 367 q 1165 356 1124 360 q 1189 458 1178 406 q 1215 594 1206 544 q 1232 677 1225 644 q 1247 740 1239 710 q 1273 772 1258 756 q 1306 803 1288 788 q 1239 814 1282 808 q 1128 642 1188 749 q 983 371 1069 535 m 332 -100 q 492 -75 407 -100 q 925 332 725 0 l 881 338 q 483 -18 688 10 q 515 71 515 3 l 515 74 q 561 115 536 115 q 565 113 565 115 q 554 25 565 40 l 519 0 q 861 340 699 54 q 613 357 703 357 q 333 314 450 357 q 183 224 243 281 q 110 71 110 154 q 182 -61 110 -12 q 332 -100 247 -100 z "},"Ǽ":{"ha":1806,"x_min":35,"x_max":1825,"o":"m 315 -121 q 132 -75 214 -121 q 35 78 35 -18 q 72 182 35 131 q 229 301 126 257 q 463 365 332 346 q 732 383 593 383 q 808 382 769 383 q 883 378 846 381 l 915 444 q 895 499 914 476 q 844 519 876 521 q 901 568 853 568 q 940 506 949 568 q 994 676 976 596 q 1013 825 1013 756 l 1013 839 q 911 847 957 844 q 844 850 865 850 q 718 831 779 850 q 639 753 639 804 q 653 707 639 731 q 668 682 668 683 q 597 635 668 660 q 581 679 581 651 q 688 840 581 763 q 878 919 794 919 q 931 916 897 919 q 1006 907 964 913 q 976 982 997 947 q 972 1000 972 993 q 982 1011 972 1011 q 1010 985 996 1011 q 1038 903 1029 951 q 1142 888 1086 896 q 1254 871 1197 879 q 1297 911 1275 894 q 1339 938 1318 928 q 1350 939 1343 939 q 1361 929 1361 939 q 1350 915 1361 921 q 1288 867 1317 896 q 1472 842 1385 853 q 1607 831 1560 831 q 1768 881 1731 831 q 1789 899 1782 899 q 1793 894 1793 899 q 1789 882 1793 890 q 1564 764 1721 764 q 1331 797 1472 764 q 1290 669 1308 751 q 1249 451 1271 588 q 1229 351 1240 397 q 1296 349 1264 350 q 1357 347 1328 347 q 1538 369 1467 347 q 1640 447 1608 390 q 1650 476 1644 458 q 1661 521 1656 494 q 1669 529 1664 529 q 1678 518 1678 529 q 1670 492 1678 507 q 1663 457 1663 476 q 1626 354 1663 390 q 1528 303 1590 318 q 1390 289 1467 289 q 1305 292 1349 289 q 1215 300 1261 294 q 1138 154 1183 193 l 1067 92 q 1089 94 1078 93 q 1111 94 1100 94 q 1201 83 1157 94 q 1424 31 1325 49 q 1594 14 1522 14 q 1786 72 1738 14 q 1808 108 1801 89 q 1815 147 1815 128 q 1803 187 1815 171 q 1790 204 1790 203 q 1800 214 1790 214 q 1825 157 1825 214 q 1796 69 1825 111 q 1524 -39 1717 -39 q 1397 -25 1482 -39 q 1182 17 1311 -11 q 1115 27 1147 24 q 1051 31 1082 31 q 981 26 1017 31 q 835 -35 886 8 q 783 -131 783 -78 q 885 -208 783 -208 q 901 -208 892 -208 q 910 -208 910 -207 q 868 -219 910 -211 q 863 -224 865 -221 q 856 -226 860 -226 q 794 -202 819 -226 q 769 -142 769 -178 q 796 -67 769 -103 q 906 43 847 10 q 1053 90 964 76 q 1151 307 1111 179 q 1051 319 1100 313 q 958 331 1003 325 q 806 115 882 199 q 652 -15 729 32 q 494 -89 575 -62 q 315 -121 401 -121 m 904 376 l 950 372 q 997 458 969 404 q 1058 574 1025 511 q 1130 701 1092 638 q 1208 818 1168 765 q 1128 827 1171 822 q 1042 836 1085 832 q 1026 698 1042 769 q 989 565 1011 626 q 949 467 972 517 q 904 376 926 418 m 983 371 q 1078 363 1033 367 q 1165 356 1124 360 q 1189 458 1178 406 q 1215 594 1206 544 q 1232 677 1225 644 q 1247 740 1239 710 q 1273 772 1258 756 q 1306 803 1288 788 q 1239 814 1282 808 q 1128 642 1188 749 q 983 371 1069 535 m 332 -100 q 492 -75 407 -100 q 925 332 725 0 l 881 338 q 483 -18 688 10 q 515 71 515 3 l 515 74 q 561 115 536 115 q 565 113 565 115 q 554 25 565 40 l 519 0 q 861 340 699 54 q 613 357 703 357 q 333 314 450 357 q 183 224 243 281 q 110 71 110 154 q 182 -61 110 -12 q 332 -100 247 -100 m 1186 1069 q 1174 1073 1179 1069 q 1179 1081 1169 1076 q 1226 1108 1199 1089 q 1280 1149 1253 1126 q 1328 1188 1307 1171 q 1360 1211 1350 1206 q 1378 1217 1365 1215 q 1401 1219 1390 1219 q 1426 1211 1426 1219 q 1416 1192 1425 1204 q 1372 1160 1407 1181 q 1344 1144 1369 1158 q 1285 1114 1318 1131 q 1226 1084 1253 1097 q 1196 1071 1200 1071 q 1186 1069 1193 1069 z "},"Á":{"ha":1490,"x_min":35,"x_max":1554,"o":"m 315 -121 q 132 -75 214 -121 q 35 78 35 -18 q 72 182 35 131 q 513 369 181 332 q 575 374 542 372 q 646 376 608 376 q 744 373 688 376 q 874 363 801 369 q 895 404 885 383 q 915 444 906 425 q 895 499 914 476 q 844 519 876 521 q 901 568 853 568 q 940 506 949 568 q 1013 825 1010 683 q 926 842 978 832 q 807 864 875 851 q 692 881 743 875 q 606 888 642 888 q 315 768 397 888 q 283 671 283 721 q 347 553 283 597 q 482 517 403 517 q 556 528 519 517 q 624 561 592 539 q 696 686 696 613 q 649 764 696 735 q 558 793 610 793 q 444 744 461 793 l 440 725 q 432 710 438 718 q 431 715 431 711 q 474 788 431 761 q 513 803 492 799 q 558 808 535 808 q 660 776 619 808 q 708 686 708 742 q 635 550 708 603 q 482 500 564 500 q 324 550 389 500 q 254 697 254 604 q 283 801 254 751 q 574 933 363 933 q 661 926 610 933 q 779 904 713 919 l 1013 849 q 976 982 1011 925 q 972 1000 972 993 q 982 1011 972 1011 q 1010 985 996 1011 q 1042 843 1039 938 q 1133 826 1090 833 q 1210 817 1175 819 q 1303 915 1257 882 q 1410 958 1361 958 q 1486 899 1486 958 q 1283 799 1486 804 q 1194 418 1194 654 q 1195 382 1194 400 q 1197 346 1196 364 q 1433 447 1382 353 q 1444 476 1439 458 q 1456 521 1450 494 q 1464 529 1458 529 q 1472 518 1472 529 q 1457 457 1472 496 q 1200 315 1407 321 q 1260 117 1215 199 q 1424 6 1324 6 q 1508 53 1478 6 q 1546 144 1511 56 q 1551 149 1549 149 q 1554 140 1554 149 q 1514 35 1554 83 q 1415 -12 1471 -12 l 1407 -12 q 1399 -11 1403 -11 q 1365 -46 1369 -11 q 1353 -83 1360 -83 q 1339 -78 1346 -83 q 1133 315 1161 44 q 1048 321 1096 317 q 942 331 1000 325 q 494 -89 738 -8 q 315 -121 401 -121 m 1250 814 q 1282 854 1267 839 q 1299 865 1288 860 q 1328 876 1310 869 q 1359 888 1347 883 q 1378 892 1371 892 q 1379 890 1379 892 q 1378 890 1379 890 q 1376 889 1378 890 q 1334 858 1354 876 q 1297 815 1314 840 q 1436 890 1436 825 q 1385 932 1436 932 q 1313 904 1353 932 q 1228 815 1274 876 q 1239 815 1233 815 q 1250 814 1244 815 m 940 358 q 975 417 954 379 q 1026 508 996 454 q 1094 631 1051 558 q 1197 800 1138 703 q 1124 808 1163 803 q 1042 819 1086 813 q 1028 699 1040 764 q 989 565 1015 635 q 948 466 972 517 q 894 363 924 415 l 940 358 m 1131 346 q 1129 372 1129 358 q 1129 400 1129 386 q 1238 799 1129 636 q 1226 799 1232 799 q 1215 800 1221 799 q 1151 695 1194 769 q 1039 500 1107 621 q 994 417 1014 453 q 958 357 974 382 q 1054 349 1011 351 q 1131 346 1097 347 m 332 -100 q 492 -75 407 -100 q 925 332 725 0 l 881 338 q 483 -18 688 10 q 515 71 515 3 l 515 74 q 561 115 536 115 q 565 113 565 115 q 554 25 565 40 l 519 0 q 861 340 699 54 q 613 357 703 357 q 333 314 450 357 q 183 224 243 281 q 110 71 110 154 q 182 -61 110 -12 q 332 -100 247 -100 m 1186 1069 q 1174 1073 1179 1069 q 1179 1081 1169 1076 q 1226 1108 1199 1089 q 1280 1149 1253 1126 q 1328 1188 1307 1171 q 1360 1211 1350 1206 q 1378 1217 1365 1215 q 1401 1219 1390 1219 q 1426 1211 1426 1219 q 1416 1192 1425 1204 q 1372 1160 1407 1181 q 1344 1144 1369 1158 q 1285 1114 1318 1131 q 1226 1084 1253 1097 q 1196 1071 1200 1071 q 1186 1069 1193 1069 z "},"Ă":{"ha":1490,"x_min":35,"x_max":1554,"o":"m 315 -121 q 132 -75 214 -121 q 35 78 35 -18 q 72 182 35 131 q 513 369 181 332 q 575 374 542 372 q 646 376 608 376 q 744 373 688 376 q 874 363 801 369 q 895 404 885 383 q 915 444 906 425 q 895 499 914 476 q 844 519 876 521 q 901 568 853 568 q 940 506 949 568 q 1013 825 1010 683 q 926 842 978 832 q 807 864 875 851 q 692 881 743 875 q 606 888 642 888 q 315 768 397 888 q 283 671 283 721 q 347 553 283 597 q 482 517 403 517 q 556 528 519 517 q 624 561 592 539 q 696 686 696 613 q 649 764 696 735 q 558 793 610 793 q 444 744 461 793 l 440 725 q 432 710 438 718 q 431 715 431 711 q 474 788 431 761 q 513 803 492 799 q 558 808 535 808 q 660 776 619 808 q 708 686 708 742 q 635 550 708 603 q 482 500 564 500 q 324 550 389 500 q 254 697 254 604 q 283 801 254 751 q 574 933 363 933 q 661 926 610 933 q 779 904 713 919 l 1013 849 q 976 982 1011 925 q 972 1000 972 993 q 982 1011 972 1011 q 1010 985 996 1011 q 1042 843 1039 938 q 1133 826 1090 833 q 1210 817 1175 819 q 1303 915 1257 882 q 1410 958 1361 958 q 1486 899 1486 958 q 1283 799 1486 804 q 1194 418 1194 654 q 1195 382 1194 400 q 1197 346 1196 364 q 1433 447 1382 353 q 1444 476 1439 458 q 1456 521 1450 494 q 1464 529 1458 529 q 1472 518 1472 529 q 1457 457 1472 496 q 1200 315 1407 321 q 1260 117 1215 199 q 1424 6 1324 6 q 1508 53 1478 6 q 1546 144 1511 56 q 1551 149 1549 149 q 1554 140 1554 149 q 1514 35 1554 83 q 1415 -12 1471 -12 l 1407 -12 q 1399 -11 1403 -11 q 1365 -46 1369 -11 q 1353 -83 1360 -83 q 1339 -78 1346 -83 q 1133 315 1161 44 q 1048 321 1096 317 q 942 331 1000 325 q 494 -89 738 -8 q 315 -121 401 -121 m 1250 814 q 1282 854 1267 839 q 1299 865 1288 860 q 1328 876 1310 869 q 1359 888 1347 883 q 1378 892 1371 892 q 1379 890 1379 892 q 1378 890 1379 890 q 1376 889 1378 890 q 1334 858 1354 876 q 1297 815 1314 840 q 1436 890 1436 825 q 1385 932 1436 932 q 1313 904 1353 932 q 1228 815 1274 876 q 1239 815 1233 815 q 1250 814 1244 815 m 940 358 q 975 417 954 379 q 1026 508 996 454 q 1094 631 1051 558 q 1197 800 1138 703 q 1124 808 1163 803 q 1042 819 1086 813 q 1028 699 1040 764 q 989 565 1015 635 q 948 466 972 517 q 894 363 924 415 l 940 358 m 1131 346 q 1129 372 1129 358 q 1129 400 1129 386 q 1238 799 1129 636 q 1226 799 1232 799 q 1215 800 1221 799 q 1151 695 1194 769 q 1039 500 1107 621 q 994 417 1014 453 q 958 357 974 382 q 1054 349 1011 351 q 1131 346 1097 347 m 332 -100 q 492 -75 407 -100 q 925 332 725 0 l 881 338 q 483 -18 688 10 q 515 71 515 3 l 515 74 q 561 115 536 115 q 565 113 565 115 q 554 25 565 40 l 519 0 q 861 340 699 54 q 613 357 703 357 q 333 314 450 357 q 183 224 243 281 q 110 71 110 154 q 182 -61 110 -12 q 332 -100 247 -100 m 1214 1069 q 1108 1157 1108 1069 q 1109 1175 1108 1165 q 1111 1194 1110 1185 q 1132 1213 1118 1213 q 1142 1200 1142 1213 q 1163 1135 1140 1154 q 1215 1117 1185 1117 q 1317 1145 1269 1117 q 1392 1204 1365 1174 q 1406 1211 1401 1211 q 1415 1200 1415 1211 q 1411 1186 1415 1193 q 1349 1116 1388 1142 q 1274 1080 1311 1090 q 1214 1069 1236 1069 z "},"Ắ":{"ha":1490,"x_min":35,"x_max":1554,"o":"m 315 -121 q 132 -75 214 -121 q 35 78 35 -18 q 72 182 35 131 q 513 369 181 332 q 575 374 542 372 q 646 376 608 376 q 744 373 688 376 q 874 363 801 369 q 895 404 885 383 q 915 444 906 425 q 895 499 914 476 q 844 519 876 521 q 901 568 853 568 q 940 506 949 568 q 1013 825 1010 683 q 926 842 978 832 q 807 864 875 851 q 692 881 743 875 q 606 888 642 888 q 315 768 397 888 q 283 671 283 721 q 347 553 283 597 q 482 517 403 517 q 556 528 519 517 q 624 561 592 539 q 696 686 696 613 q 649 764 696 735 q 558 793 610 793 q 444 744 461 793 l 440 725 q 432 710 438 718 q 431 715 431 711 q 474 788 431 761 q 513 803 492 799 q 558 808 535 808 q 660 776 619 808 q 708 686 708 742 q 635 550 708 603 q 482 500 564 500 q 324 550 389 500 q 254 697 254 604 q 283 801 254 751 q 574 933 363 933 q 661 926 610 933 q 779 904 713 919 l 1013 849 q 976 982 1011 925 q 972 1000 972 993 q 982 1011 972 1011 q 1010 985 996 1011 q 1042 843 1039 938 q 1133 826 1090 833 q 1210 817 1175 819 q 1303 915 1257 882 q 1410 958 1361 958 q 1486 899 1486 958 q 1283 799 1486 804 q 1194 418 1194 654 q 1195 382 1194 400 q 1197 346 1196 364 q 1433 447 1382 353 q 1444 476 1439 458 q 1456 521 1450 494 q 1464 529 1458 529 q 1472 518 1472 529 q 1457 457 1472 496 q 1200 315 1407 321 q 1260 117 1215 199 q 1424 6 1324 6 q 1508 53 1478 6 q 1546 144 1511 56 q 1551 149 1549 149 q 1554 140 1554 149 q 1514 35 1554 83 q 1415 -12 1471 -12 l 1407 -12 q 1399 -11 1403 -11 q 1365 -46 1369 -11 q 1353 -83 1360 -83 q 1339 -78 1346 -83 q 1133 315 1161 44 q 1048 321 1096 317 q 942 331 1000 325 q 494 -89 738 -8 q 315 -121 401 -121 m 1250 814 q 1282 854 1267 839 q 1299 865 1288 860 q 1328 876 1310 869 q 1359 888 1347 883 q 1378 892 1371 892 q 1379 890 1379 892 q 1378 890 1379 890 q 1376 889 1378 890 q 1334 858 1354 876 q 1297 815 1314 840 q 1436 890 1436 825 q 1385 932 1436 932 q 1313 904 1353 932 q 1228 815 1274 876 q 1239 815 1233 815 q 1250 814 1244 815 m 940 358 q 975 417 954 379 q 1026 508 996 454 q 1094 631 1051 558 q 1197 800 1138 703 q 1124 808 1163 803 q 1042 819 1086 813 q 1028 699 1040 764 q 989 565 1015 635 q 948 466 972 517 q 894 363 924 415 l 940 358 m 1131 346 q 1129 372 1129 358 q 1129 400 1129 386 q 1238 799 1129 636 q 1226 799 1232 799 q 1215 800 1221 799 q 1151 695 1194 769 q 1039 500 1107 621 q 994 417 1014 453 q 958 357 974 382 q 1054 349 1011 351 q 1131 346 1097 347 m 332 -100 q 492 -75 407 -100 q 925 332 725 0 l 881 338 q 483 -18 688 10 q 515 71 515 3 l 515 74 q 561 115 536 115 q 565 113 565 115 q 554 25 565 40 l 519 0 q 861 340 699 54 q 613 357 703 357 q 333 314 450 357 q 183 224 243 281 q 110 71 110 154 q 182 -61 110 -12 q 332 -100 247 -100 m 1214 1069 q 1108 1157 1108 1069 q 1109 1175 1108 1165 q 1111 1194 1110 1185 q 1132 1213 1118 1213 q 1142 1200 1142 1213 q 1163 1135 1140 1154 q 1215 1117 1185 1117 q 1317 1145 1269 1117 q 1392 1204 1365 1174 q 1406 1211 1401 1211 q 1415 1200 1415 1211 q 1411 1186 1415 1193 q 1349 1116 1388 1142 q 1274 1080 1311 1090 q 1214 1069 1236 1069 m 1261 1194 q 1249 1198 1254 1194 q 1254 1206 1244 1201 q 1301 1233 1274 1214 q 1355 1274 1328 1251 q 1403 1313 1382 1296 q 1435 1336 1425 1331 q 1453 1342 1440 1340 q 1476 1344 1465 1344 q 1501 1336 1501 1344 q 1491 1317 1500 1329 q 1447 1285 1482 1306 q 1419 1269 1444 1283 q 1360 1239 1393 1256 q 1301 1209 1328 1222 q 1271 1196 1275 1196 q 1261 1194 1268 1194 z "},"Ặ":{"ha":1490,"x_min":35,"x_max":1554,"o":"m 315 -121 q 132 -75 214 -121 q 35 78 35 -18 q 72 182 35 131 q 513 369 181 332 q 575 374 542 372 q 646 376 608 376 q 744 373 688 376 q 874 363 801 369 q 895 404 885 383 q 915 444 906 425 q 895 499 914 476 q 844 519 876 521 q 901 568 853 568 q 940 506 949 568 q 1013 825 1010 683 q 926 842 978 832 q 807 864 875 851 q 692 881 743 875 q 606 888 642 888 q 315 768 397 888 q 283 671 283 721 q 347 553 283 597 q 482 517 403 517 q 556 528 519 517 q 624 561 592 539 q 696 686 696 613 q 649 764 696 735 q 558 793 610 793 q 444 744 461 793 l 440 725 q 432 710 438 718 q 431 715 431 711 q 474 788 431 761 q 513 803 492 799 q 558 808 535 808 q 660 776 619 808 q 708 686 708 742 q 635 550 708 603 q 482 500 564 500 q 324 550 389 500 q 254 697 254 604 q 283 801 254 751 q 574 933 363 933 q 661 926 610 933 q 779 904 713 919 l 1013 849 q 976 982 1011 925 q 972 1000 972 993 q 982 1011 972 1011 q 1010 985 996 1011 q 1042 843 1039 938 q 1133 826 1090 833 q 1210 817 1175 819 q 1303 915 1257 882 q 1410 958 1361 958 q 1486 899 1486 958 q 1283 799 1486 804 q 1194 418 1194 654 q 1195 382 1194 400 q 1197 346 1196 364 q 1433 447 1382 353 q 1444 476 1439 458 q 1456 521 1450 494 q 1464 529 1458 529 q 1472 518 1472 529 q 1457 457 1472 496 q 1200 315 1407 321 q 1260 117 1215 199 q 1424 6 1324 6 q 1508 53 1478 6 q 1546 144 1511 56 q 1551 149 1549 149 q 1554 140 1554 149 q 1514 35 1554 83 q 1415 -12 1471 -12 l 1407 -12 q 1399 -11 1403 -11 q 1365 -46 1369 -11 q 1353 -83 1360 -83 q 1339 -78 1346 -83 q 1133 315 1161 44 q 1048 321 1096 317 q 942 331 1000 325 q 494 -89 738 -8 q 315 -121 401 -121 m 1250 814 q 1282 854 1267 839 q 1299 865 1288 860 q 1328 876 1310 869 q 1359 888 1347 883 q 1378 892 1371 892 q 1379 890 1379 892 q 1378 890 1379 890 q 1376 889 1378 890 q 1334 858 1354 876 q 1297 815 1314 840 q 1436 890 1436 825 q 1385 932 1436 932 q 1313 904 1353 932 q 1228 815 1274 876 q 1239 815 1233 815 q 1250 814 1244 815 m 940 358 q 975 417 954 379 q 1026 508 996 454 q 1094 631 1051 558 q 1197 800 1138 703 q 1124 808 1163 803 q 1042 819 1086 813 q 1028 699 1040 764 q 989 565 1015 635 q 948 466 972 517 q 894 363 924 415 l 940 358 m 1131 346 q 1129 372 1129 358 q 1129 400 1129 386 q 1238 799 1129 636 q 1226 799 1232 799 q 1215 800 1221 799 q 1151 695 1194 769 q 1039 500 1107 621 q 994 417 1014 453 q 958 357 974 382 q 1054 349 1011 351 q 1131 346 1097 347 m 332 -100 q 492 -75 407 -100 q 925 332 725 0 l 881 338 q 483 -18 688 10 q 515 71 515 3 l 515 74 q 561 115 536 115 q 565 113 565 115 q 554 25 565 40 l 519 0 q 861 340 699 54 q 613 357 703 357 q 333 314 450 357 q 183 224 243 281 q 110 71 110 154 q 182 -61 110 -12 q 332 -100 247 -100 m 896 -228 q 878 -224 886 -228 q 869 -215 871 -221 q 868 -203 868 -211 q 885 -158 868 -176 q 922 -139 903 -139 q 957 -165 957 -139 q 943 -204 957 -179 q 922 -222 936 -217 q 896 -228 908 -228 m 1214 1069 q 1108 1157 1108 1069 q 1109 1175 1108 1165 q 1111 1194 1110 1185 q 1132 1213 1118 1213 q 1142 1200 1142 1213 q 1163 1135 1140 1154 q 1215 1117 1185 1117 q 1317 1145 1269 1117 q 1392 1204 1365 1174 q 1406 1211 1401 1211 q 1415 1200 1415 1211 q 1411 1186 1415 1193 q 1349 1116 1388 1142 q 1274 1080 1311 1090 q 1214 1069 1236 1069 z "},"Ằ":{"ha":1490,"x_min":35,"x_max":1554,"o":"m 315 -121 q 132 -75 214 -121 q 35 78 35 -18 q 72 182 35 131 q 513 369 181 332 q 575 374 542 372 q 646 376 608 376 q 744 373 688 376 q 874 363 801 369 q 895 404 885 383 q 915 444 906 425 q 895 499 914 476 q 844 519 876 521 q 901 568 853 568 q 940 506 949 568 q 1013 825 1010 683 q 926 842 978 832 q 807 864 875 851 q 692 881 743 875 q 606 888 642 888 q 315 768 397 888 q 283 671 283 721 q 347 553 283 597 q 482 517 403 517 q 556 528 519 517 q 624 561 592 539 q 696 686 696 613 q 649 764 696 735 q 558 793 610 793 q 444 744 461 793 l 440 725 q 432 710 438 718 q 431 715 431 711 q 474 788 431 761 q 513 803 492 799 q 558 808 535 808 q 660 776 619 808 q 708 686 708 742 q 635 550 708 603 q 482 500 564 500 q 324 550 389 500 q 254 697 254 604 q 283 801 254 751 q 574 933 363 933 q 661 926 610 933 q 779 904 713 919 l 1013 849 q 976 982 1011 925 q 972 1000 972 993 q 982 1011 972 1011 q 1010 985 996 1011 q 1042 843 1039 938 q 1133 826 1090 833 q 1210 817 1175 819 q 1303 915 1257 882 q 1410 958 1361 958 q 1486 899 1486 958 q 1283 799 1486 804 q 1194 418 1194 654 q 1195 382 1194 400 q 1197 346 1196 364 q 1433 447 1382 353 q 1444 476 1439 458 q 1456 521 1450 494 q 1464 529 1458 529 q 1472 518 1472 529 q 1457 457 1472 496 q 1200 315 1407 321 q 1260 117 1215 199 q 1424 6 1324 6 q 1508 53 1478 6 q 1546 144 1511 56 q 1551 149 1549 149 q 1554 140 1554 149 q 1514 35 1554 83 q 1415 -12 1471 -12 l 1407 -12 q 1399 -11 1403 -11 q 1365 -46 1369 -11 q 1353 -83 1360 -83 q 1339 -78 1346 -83 q 1133 315 1161 44 q 1048 321 1096 317 q 942 331 1000 325 q 494 -89 738 -8 q 315 -121 401 -121 m 1250 814 q 1282 854 1267 839 q 1299 865 1288 860 q 1328 876 1310 869 q 1359 888 1347 883 q 1378 892 1371 892 q 1379 890 1379 892 q 1378 890 1379 890 q 1376 889 1378 890 q 1334 858 1354 876 q 1297 815 1314 840 q 1436 890 1436 825 q 1385 932 1436 932 q 1313 904 1353 932 q 1228 815 1274 876 q 1239 815 1233 815 q 1250 814 1244 815 m 940 358 q 975 417 954 379 q 1026 508 996 454 q 1094 631 1051 558 q 1197 800 1138 703 q 1124 808 1163 803 q 1042 819 1086 813 q 1028 699 1040 764 q 989 565 1015 635 q 948 466 972 517 q 894 363 924 415 l 940 358 m 1131 346 q 1129 372 1129 358 q 1129 400 1129 386 q 1238 799 1129 636 q 1226 799 1232 799 q 1215 800 1221 799 q 1151 695 1194 769 q 1039 500 1107 621 q 994 417 1014 453 q 958 357 974 382 q 1054 349 1011 351 q 1131 346 1097 347 m 332 -100 q 492 -75 407 -100 q 925 332 725 0 l 881 338 q 483 -18 688 10 q 515 71 515 3 l 515 74 q 561 115 536 115 q 565 113 565 115 q 554 25 565 40 l 519 0 q 861 340 699 54 q 613 357 703 357 q 333 314 450 357 q 183 224 243 281 q 110 71 110 154 q 182 -61 110 -12 q 332 -100 247 -100 m 1214 1069 q 1108 1157 1108 1069 q 1109 1175 1108 1165 q 1111 1194 1110 1185 q 1132 1213 1118 1213 q 1142 1200 1142 1213 q 1163 1135 1140 1154 q 1215 1117 1185 1117 q 1317 1145 1269 1117 q 1392 1204 1365 1174 q 1406 1211 1401 1211 q 1415 1200 1415 1211 q 1411 1186 1415 1193 q 1349 1116 1388 1142 q 1274 1080 1311 1090 q 1214 1069 1236 1069 m 1246 1196 q 1218 1209 1242 1196 q 1167 1239 1194 1222 q 1117 1269 1139 1256 q 1092 1285 1094 1283 q 1056 1317 1061 1306 q 1051 1336 1051 1329 q 1076 1344 1051 1344 q 1100 1342 1088 1344 q 1118 1336 1113 1340 q 1142 1313 1125 1331 q 1181 1274 1158 1296 q 1225 1233 1203 1251 q 1265 1206 1247 1214 q 1271 1201 1271 1204 q 1261 1195 1269 1197 q 1246 1196 1253 1193 z "},"Ẳ":{"ha":1490,"x_min":35,"x_max":1554,"o":"m 315 -121 q 132 -75 214 -121 q 35 78 35 -18 q 72 182 35 131 q 513 369 181 332 q 575 374 542 372 q 646 376 608 376 q 744 373 688 376 q 874 363 801 369 q 895 404 885 383 q 915 444 906 425 q 895 499 914 476 q 844 519 876 521 q 901 568 853 568 q 940 506 949 568 q 1013 825 1010 683 q 926 842 978 832 q 807 864 875 851 q 692 881 743 875 q 606 888 642 888 q 315 768 397 888 q 283 671 283 721 q 347 553 283 597 q 482 517 403 517 q 556 528 519 517 q 624 561 592 539 q 696 686 696 613 q 649 764 696 735 q 558 793 610 793 q 444 744 461 793 l 440 725 q 432 710 438 718 q 431 715 431 711 q 474 788 431 761 q 513 803 492 799 q 558 808 535 808 q 660 776 619 808 q 708 686 708 742 q 635 550 708 603 q 482 500 564 500 q 324 550 389 500 q 254 697 254 604 q 283 801 254 751 q 574 933 363 933 q 661 926 610 933 q 779 904 713 919 l 1013 849 q 976 982 1011 925 q 972 1000 972 993 q 982 1011 972 1011 q 1010 985 996 1011 q 1042 843 1039 938 q 1133 826 1090 833 q 1210 817 1175 819 q 1303 915 1257 882 q 1410 958 1361 958 q 1486 899 1486 958 q 1283 799 1486 804 q 1194 418 1194 654 q 1195 382 1194 400 q 1197 346 1196 364 q 1433 447 1382 353 q 1444 476 1439 458 q 1456 521 1450 494 q 1464 529 1458 529 q 1472 518 1472 529 q 1457 457 1472 496 q 1200 315 1407 321 q 1260 117 1215 199 q 1424 6 1324 6 q 1508 53 1478 6 q 1546 144 1511 56 q 1551 149 1549 149 q 1554 140 1554 149 q 1514 35 1554 83 q 1415 -12 1471 -12 l 1407 -12 q 1399 -11 1403 -11 q 1365 -46 1369 -11 q 1353 -83 1360 -83 q 1339 -78 1346 -83 q 1133 315 1161 44 q 1048 321 1096 317 q 942 331 1000 325 q 494 -89 738 -8 q 315 -121 401 -121 m 1250 814 q 1282 854 1267 839 q 1299 865 1288 860 q 1328 876 1310 869 q 1359 888 1347 883 q 1378 892 1371 892 q 1379 890 1379 892 q 1378 890 1379 890 q 1376 889 1378 890 q 1334 858 1354 876 q 1297 815 1314 840 q 1436 890 1436 825 q 1385 932 1436 932 q 1313 904 1353 932 q 1228 815 1274 876 q 1239 815 1233 815 q 1250 814 1244 815 m 940 358 q 975 417 954 379 q 1026 508 996 454 q 1094 631 1051 558 q 1197 800 1138 703 q 1124 808 1163 803 q 1042 819 1086 813 q 1028 699 1040 764 q 989 565 1015 635 q 948 466 972 517 q 894 363 924 415 l 940 358 m 1131 346 q 1129 372 1129 358 q 1129 400 1129 386 q 1238 799 1129 636 q 1226 799 1232 799 q 1215 800 1221 799 q 1151 695 1194 769 q 1039 500 1107 621 q 994 417 1014 453 q 958 357 974 382 q 1054 349 1011 351 q 1131 346 1097 347 m 332 -100 q 492 -75 407 -100 q 925 332 725 0 l 881 338 q 483 -18 688 10 q 515 71 515 3 l 515 74 q 561 115 536 115 q 565 113 565 115 q 554 25 565 40 l 519 0 q 861 340 699 54 q 613 357 703 357 q 333 314 450 357 q 183 224 243 281 q 110 71 110 154 q 182 -61 110 -12 q 332 -100 247 -100 m 1214 1069 q 1108 1157 1108 1069 q 1109 1175 1108 1165 q 1111 1194 1110 1185 q 1132 1213 1118 1213 q 1142 1200 1142 1213 q 1163 1135 1140 1154 q 1215 1117 1185 1117 q 1317 1145 1269 1117 q 1392 1204 1365 1174 q 1406 1211 1401 1211 q 1415 1200 1415 1211 q 1411 1186 1415 1193 q 1349 1116 1388 1142 q 1274 1080 1311 1090 q 1214 1069 1236 1069 m 1249 1193 q 1239 1201 1239 1193 q 1260 1247 1242 1229 q 1297 1281 1279 1265 q 1331 1318 1317 1299 q 1346 1351 1346 1338 q 1311 1375 1346 1375 q 1265 1365 1286 1375 q 1235 1356 1243 1356 q 1225 1365 1222 1356 q 1244 1385 1226 1376 q 1287 1400 1263 1394 q 1328 1406 1311 1406 q 1380 1395 1356 1406 q 1404 1354 1404 1385 q 1379 1304 1404 1326 q 1326 1263 1354 1282 q 1271 1201 1279 1226 q 1261 1195 1271 1197 q 1249 1193 1251 1193 z "},"Ẵ":{"ha":1490,"x_min":35,"x_max":1554,"o":"m 315 -121 q 132 -75 214 -121 q 35 78 35 -18 q 72 182 35 131 q 513 369 181 332 q 575 374 542 372 q 646 376 608 376 q 744 373 688 376 q 874 363 801 369 q 895 404 885 383 q 915 444 906 425 q 895 499 914 476 q 844 519 876 521 q 901 568 853 568 q 940 506 949 568 q 1013 825 1010 683 q 926 842 978 832 q 807 864 875 851 q 692 881 743 875 q 606 888 642 888 q 315 768 397 888 q 283 671 283 721 q 347 553 283 597 q 482 517 403 517 q 556 528 519 517 q 624 561 592 539 q 696 686 696 613 q 649 764 696 735 q 558 793 610 793 q 444 744 461 793 l 440 725 q 432 710 438 718 q 431 715 431 711 q 474 788 431 761 q 513 803 492 799 q 558 808 535 808 q 660 776 619 808 q 708 686 708 742 q 635 550 708 603 q 482 500 564 500 q 324 550 389 500 q 254 697 254 604 q 283 801 254 751 q 574 933 363 933 q 661 926 610 933 q 779 904 713 919 l 1013 849 q 976 982 1011 925 q 972 1000 972 993 q 982 1011 972 1011 q 1010 985 996 1011 q 1042 843 1039 938 q 1133 826 1090 833 q 1210 817 1175 819 q 1303 915 1257 882 q 1410 958 1361 958 q 1486 899 1486 958 q 1283 799 1486 804 q 1194 418 1194 654 q 1195 382 1194 400 q 1197 346 1196 364 q 1433 447 1382 353 q 1444 476 1439 458 q 1456 521 1450 494 q 1464 529 1458 529 q 1472 518 1472 529 q 1457 457 1472 496 q 1200 315 1407 321 q 1260 117 1215 199 q 1424 6 1324 6 q 1508 53 1478 6 q 1546 144 1511 56 q 1551 149 1549 149 q 1554 140 1554 149 q 1514 35 1554 83 q 1415 -12 1471 -12 l 1407 -12 q 1399 -11 1403 -11 q 1365 -46 1369 -11 q 1353 -83 1360 -83 q 1339 -78 1346 -83 q 1133 315 1161 44 q 1048 321 1096 317 q 942 331 1000 325 q 494 -89 738 -8 q 315 -121 401 -121 m 1250 814 q 1282 854 1267 839 q 1299 865 1288 860 q 1328 876 1310 869 q 1359 888 1347 883 q 1378 892 1371 892 q 1379 890 1379 892 q 1378 890 1379 890 q 1376 889 1378 890 q 1334 858 1354 876 q 1297 815 1314 840 q 1436 890 1436 825 q 1385 932 1436 932 q 1313 904 1353 932 q 1228 815 1274 876 q 1239 815 1233 815 q 1250 814 1244 815 m 940 358 q 975 417 954 379 q 1026 508 996 454 q 1094 631 1051 558 q 1197 800 1138 703 q 1124 808 1163 803 q 1042 819 1086 813 q 1028 699 1040 764 q 989 565 1015 635 q 948 466 972 517 q 894 363 924 415 l 940 358 m 1131 346 q 1129 372 1129 358 q 1129 400 1129 386 q 1238 799 1129 636 q 1226 799 1232 799 q 1215 800 1221 799 q 1151 695 1194 769 q 1039 500 1107 621 q 994 417 1014 453 q 958 357 974 382 q 1054 349 1011 351 q 1131 346 1097 347 m 332 -100 q 492 -75 407 -100 q 925 332 725 0 l 881 338 q 483 -18 688 10 q 515 71 515 3 l 515 74 q 561 115 536 115 q 565 113 565 115 q 554 25 565 40 l 519 0 q 861 340 699 54 q 613 357 703 357 q 333 314 450 357 q 183 224 243 281 q 110 71 110 154 q 182 -61 110 -12 q 332 -100 247 -100 m 1214 1069 q 1108 1157 1108 1069 q 1109 1175 1108 1165 q 1111 1194 1110 1185 q 1132 1213 1118 1213 q 1142 1200 1142 1213 q 1163 1135 1140 1154 q 1215 1117 1185 1117 q 1317 1145 1269 1117 q 1392 1204 1365 1174 q 1406 1211 1401 1211 q 1415 1200 1415 1211 q 1411 1186 1415 1193 q 1349 1116 1388 1142 q 1274 1080 1311 1090 q 1214 1069 1236 1069 m 1350 1250 q 1307 1260 1329 1250 q 1263 1279 1285 1269 q 1224 1289 1242 1289 q 1180 1276 1199 1289 q 1154 1251 1161 1264 q 1146 1258 1143 1251 q 1184 1313 1157 1292 q 1242 1333 1211 1333 q 1286 1324 1264 1333 q 1330 1304 1308 1314 q 1369 1294 1351 1294 q 1413 1308 1393 1294 q 1438 1332 1433 1321 q 1450 1326 1450 1332 q 1410 1271 1438 1292 q 1350 1250 1382 1250 z "},"Ǎ":{"ha":1490,"x_min":35,"x_max":1554,"o":"m 315 -121 q 132 -75 214 -121 q 35 78 35 -18 q 72 182 35 131 q 513 369 181 332 q 575 374 542 372 q 646 376 608 376 q 744 373 688 376 q 874 363 801 369 q 895 404 885 383 q 915 444 906 425 q 895 499 914 476 q 844 519 876 521 q 901 568 853 568 q 940 506 949 568 q 1013 825 1010 683 q 926 842 978 832 q 807 864 875 851 q 692 881 743 875 q 606 888 642 888 q 315 768 397 888 q 283 671 283 721 q 347 553 283 597 q 482 517 403 517 q 556 528 519 517 q 624 561 592 539 q 696 686 696 613 q 649 764 696 735 q 558 793 610 793 q 444 744 461 793 l 440 725 q 432 710 438 718 q 431 715 431 711 q 474 788 431 761 q 513 803 492 799 q 558 808 535 808 q 660 776 619 808 q 708 686 708 742 q 635 550 708 603 q 482 500 564 500 q 324 550 389 500 q 254 697 254 604 q 283 801 254 751 q 574 933 363 933 q 661 926 610 933 q 779 904 713 919 l 1013 849 q 976 982 1011 925 q 972 1000 972 993 q 982 1011 972 1011 q 1010 985 996 1011 q 1042 843 1039 938 q 1133 826 1090 833 q 1210 817 1175 819 q 1303 915 1257 882 q 1410 958 1361 958 q 1486 899 1486 958 q 1283 799 1486 804 q 1194 418 1194 654 q 1195 382 1194 400 q 1197 346 1196 364 q 1433 447 1382 353 q 1444 476 1439 458 q 1456 521 1450 494 q 1464 529 1458 529 q 1472 518 1472 529 q 1457 457 1472 496 q 1200 315 1407 321 q 1260 117 1215 199 q 1424 6 1324 6 q 1508 53 1478 6 q 1546 144 1511 56 q 1551 149 1549 149 q 1554 140 1554 149 q 1514 35 1554 83 q 1415 -12 1471 -12 l 1407 -12 q 1399 -11 1403 -11 q 1365 -46 1369 -11 q 1353 -83 1360 -83 q 1339 -78 1346 -83 q 1133 315 1161 44 q 1048 321 1096 317 q 942 331 1000 325 q 494 -89 738 -8 q 315 -121 401 -121 m 1250 814 q 1282 854 1267 839 q 1299 865 1288 860 q 1328 876 1310 869 q 1359 888 1347 883 q 1378 892 1371 892 q 1379 890 1379 892 q 1378 890 1379 890 q 1376 889 1378 890 q 1334 858 1354 876 q 1297 815 1314 840 q 1436 890 1436 825 q 1385 932 1436 932 q 1313 904 1353 932 q 1228 815 1274 876 q 1239 815 1233 815 q 1250 814 1244 815 m 940 358 q 975 417 954 379 q 1026 508 996 454 q 1094 631 1051 558 q 1197 800 1138 703 q 1124 808 1163 803 q 1042 819 1086 813 q 1028 699 1040 764 q 989 565 1015 635 q 948 466 972 517 q 894 363 924 415 l 940 358 m 1131 346 q 1129 372 1129 358 q 1129 400 1129 386 q 1238 799 1129 636 q 1226 799 1232 799 q 1215 800 1221 799 q 1151 695 1194 769 q 1039 500 1107 621 q 994 417 1014 453 q 958 357 974 382 q 1054 349 1011 351 q 1131 346 1097 347 m 332 -100 q 492 -75 407 -100 q 925 332 725 0 l 881 338 q 483 -18 688 10 q 515 71 515 3 l 515 74 q 561 115 536 115 q 565 113 565 115 q 554 25 565 40 l 519 0 q 861 340 699 54 q 613 357 703 357 q 333 314 450 357 q 183 224 243 281 q 110 71 110 154 q 182 -61 110 -12 q 332 -100 247 -100 m 1214 1069 q 1196 1074 1200 1069 q 1181 1096 1194 1075 q 1151 1144 1168 1117 q 1120 1194 1135 1172 q 1101 1219 1106 1217 q 1099 1225 1099 1221 q 1106 1233 1099 1231 q 1118 1231 1114 1235 q 1138 1215 1121 1231 q 1175 1180 1154 1200 q 1212 1143 1196 1160 q 1229 1122 1228 1126 q 1262 1144 1236 1128 q 1318 1181 1288 1161 q 1372 1216 1349 1201 q 1400 1231 1396 1231 q 1407 1233 1406 1233 q 1415 1229 1413 1233 q 1408 1219 1417 1225 q 1373 1192 1399 1214 q 1317 1143 1347 1169 q 1264 1096 1288 1117 q 1236 1074 1240 1075 q 1214 1069 1231 1069 z "},"Â":{"ha":1490,"x_min":35,"x_max":1554,"o":"m 315 -121 q 132 -75 214 -121 q 35 78 35 -18 q 72 182 35 131 q 513 369 181 332 q 575 374 542 372 q 646 376 608 376 q 744 373 688 376 q 874 363 801 369 q 895 404 885 383 q 915 444 906 425 q 895 499 914 476 q 844 519 876 521 q 901 568 853 568 q 940 506 949 568 q 1013 825 1010 683 q 926 842 978 832 q 807 864 875 851 q 692 881 743 875 q 606 888 642 888 q 315 768 397 888 q 283 671 283 721 q 347 553 283 597 q 482 517 403 517 q 556 528 519 517 q 624 561 592 539 q 696 686 696 613 q 649 764 696 735 q 558 793 610 793 q 444 744 461 793 l 440 725 q 432 710 438 718 q 431 715 431 711 q 474 788 431 761 q 513 803 492 799 q 558 808 535 808 q 660 776 619 808 q 708 686 708 742 q 635 550 708 603 q 482 500 564 500 q 324 550 389 500 q 254 697 254 604 q 283 801 254 751 q 574 933 363 933 q 661 926 610 933 q 779 904 713 919 l 1013 849 q 976 982 1011 925 q 972 1000 972 993 q 982 1011 972 1011 q 1010 985 996 1011 q 1042 843 1039 938 q 1133 826 1090 833 q 1210 817 1175 819 q 1303 915 1257 882 q 1410 958 1361 958 q 1486 899 1486 958 q 1283 799 1486 804 q 1194 418 1194 654 q 1195 382 1194 400 q 1197 346 1196 364 q 1433 447 1382 353 q 1444 476 1439 458 q 1456 521 1450 494 q 1464 529 1458 529 q 1472 518 1472 529 q 1457 457 1472 496 q 1200 315 1407 321 q 1260 117 1215 199 q 1424 6 1324 6 q 1508 53 1478 6 q 1546 144 1511 56 q 1551 149 1549 149 q 1554 140 1554 149 q 1514 35 1554 83 q 1415 -12 1471 -12 l 1407 -12 q 1399 -11 1403 -11 q 1365 -46 1369 -11 q 1353 -83 1360 -83 q 1339 -78 1346 -83 q 1133 315 1161 44 q 1048 321 1096 317 q 942 331 1000 325 q 494 -89 738 -8 q 315 -121 401 -121 m 1250 814 q 1282 854 1267 839 q 1299 865 1288 860 q 1328 876 1310 869 q 1359 888 1347 883 q 1378 892 1371 892 q 1379 890 1379 892 q 1378 890 1379 890 q 1376 889 1378 890 q 1334 858 1354 876 q 1297 815 1314 840 q 1436 890 1436 825 q 1385 932 1436 932 q 1313 904 1353 932 q 1228 815 1274 876 q 1239 815 1233 815 q 1250 814 1244 815 m 940 358 q 975 417 954 379 q 1026 508 996 454 q 1094 631 1051 558 q 1197 800 1138 703 q 1124 808 1163 803 q 1042 819 1086 813 q 1028 699 1040 764 q 989 565 1015 635 q 948 466 972 517 q 894 363 924 415 l 940 358 m 1131 346 q 1129 372 1129 358 q 1129 400 1129 386 q 1238 799 1129 636 q 1226 799 1232 799 q 1215 800 1221 799 q 1151 695 1194 769 q 1039 500 1107 621 q 994 417 1014 453 q 958 357 974 382 q 1054 349 1011 351 q 1131 346 1097 347 m 332 -100 q 492 -75 407 -100 q 925 332 725 0 l 881 338 q 483 -18 688 10 q 515 71 515 3 l 515 74 q 561 115 536 115 q 565 113 565 115 q 554 25 565 40 l 519 0 q 861 340 699 54 q 613 357 703 357 q 333 314 450 357 q 183 224 243 281 q 110 71 110 154 q 182 -61 110 -12 q 332 -100 247 -100 m 1071 1069 q 1063 1074 1065 1069 q 1067 1083 1060 1078 q 1102 1110 1076 1088 q 1158 1159 1128 1132 q 1212 1207 1189 1186 q 1239 1229 1235 1228 q 1263 1233 1246 1233 q 1279 1229 1275 1233 q 1295 1207 1282 1228 q 1326 1158 1308 1186 q 1357 1108 1343 1131 q 1374 1083 1371 1086 q 1378 1078 1378 1082 q 1370 1070 1376 1072 q 1358 1072 1364 1068 q 1340 1088 1357 1072 q 1303 1123 1324 1103 q 1266 1160 1282 1143 q 1247 1181 1250 1176 q 1216 1158 1242 1175 q 1160 1122 1190 1142 q 1105 1087 1129 1101 q 1078 1072 1081 1072 q 1071 1069 1072 1069 z "},"Ấ":{"ha":1490,"x_min":35,"x_max":1579,"o":"m 315 -121 q 132 -75 214 -121 q 35 78 35 -18 q 72 182 35 131 q 513 369 181 332 q 575 374 542 372 q 646 376 608 376 q 744 373 688 376 q 874 363 801 369 q 895 404 885 383 q 915 444 906 425 q 895 499 914 476 q 844 519 876 521 q 901 568 853 568 q 940 506 949 568 q 1013 825 1010 683 q 926 842 978 832 q 807 864 875 851 q 692 881 743 875 q 606 888 642 888 q 315 768 397 888 q 283 671 283 721 q 347 553 283 597 q 482 517 403 517 q 556 528 519 517 q 624 561 592 539 q 696 686 696 613 q 649 764 696 735 q 558 793 610 793 q 444 744 461 793 l 440 725 q 432 710 438 718 q 431 715 431 711 q 474 788 431 761 q 513 803 492 799 q 558 808 535 808 q 660 776 619 808 q 708 686 708 742 q 635 550 708 603 q 482 500 564 500 q 324 550 389 500 q 254 697 254 604 q 283 801 254 751 q 574 933 363 933 q 661 926 610 933 q 779 904 713 919 l 1013 849 q 976 982 1011 925 q 972 1000 972 993 q 982 1011 972 1011 q 1010 985 996 1011 q 1042 843 1039 938 q 1133 826 1090 833 q 1210 817 1175 819 q 1303 915 1257 882 q 1410 958 1361 958 q 1486 899 1486 958 q 1283 799 1486 804 q 1194 418 1194 654 q 1195 382 1194 400 q 1197 346 1196 364 q 1433 447 1382 353 q 1444 476 1439 458 q 1456 521 1450 494 q 1464 529 1458 529 q 1472 518 1472 529 q 1457 457 1472 496 q 1200 315 1407 321 q 1260 117 1215 199 q 1424 6 1324 6 q 1508 53 1478 6 q 1546 144 1511 56 q 1551 149 1549 149 q 1554 140 1554 149 q 1514 35 1554 83 q 1415 -12 1471 -12 l 1407 -12 q 1399 -11 1403 -11 q 1365 -46 1369 -11 q 1353 -83 1360 -83 q 1339 -78 1346 -83 q 1133 315 1161 44 q 1048 321 1096 317 q 942 331 1000 325 q 494 -89 738 -8 q 315 -121 401 -121 m 1250 814 q 1282 854 1267 839 q 1299 865 1288 860 q 1328 876 1310 869 q 1359 888 1347 883 q 1378 892 1371 892 q 1379 890 1379 892 q 1378 890 1379 890 q 1376 889 1378 890 q 1334 858 1354 876 q 1297 815 1314 840 q 1436 890 1436 825 q 1385 932 1436 932 q 1313 904 1353 932 q 1228 815 1274 876 q 1239 815 1233 815 q 1250 814 1244 815 m 940 358 q 975 417 954 379 q 1026 508 996 454 q 1094 631 1051 558 q 1197 800 1138 703 q 1124 808 1163 803 q 1042 819 1086 813 q 1028 699 1040 764 q 989 565 1015 635 q 948 466 972 517 q 894 363 924 415 l 940 358 m 1131 346 q 1129 372 1129 358 q 1129 400 1129 386 q 1238 799 1129 636 q 1226 799 1232 799 q 1215 800 1221 799 q 1151 695 1194 769 q 1039 500 1107 621 q 994 417 1014 453 q 958 357 974 382 q 1054 349 1011 351 q 1131 346 1097 347 m 332 -100 q 492 -75 407 -100 q 925 332 725 0 l 881 338 q 483 -18 688 10 q 515 71 515 3 l 515 74 q 561 115 536 115 q 565 113 565 115 q 554 25 565 40 l 519 0 q 861 340 699 54 q 613 357 703 357 q 333 314 450 357 q 183 224 243 281 q 110 71 110 154 q 182 -61 110 -12 q 332 -100 247 -100 m 1071 1069 q 1063 1074 1065 1069 q 1067 1083 1060 1078 q 1102 1110 1076 1088 q 1158 1159 1128 1132 q 1212 1207 1189 1186 q 1239 1229 1235 1228 q 1263 1233 1246 1233 q 1279 1229 1275 1233 q 1295 1207 1282 1228 q 1326 1158 1308 1186 q 1357 1108 1343 1131 q 1374 1083 1371 1086 q 1378 1078 1378 1082 q 1370 1070 1376 1072 q 1358 1072 1364 1068 q 1340 1088 1357 1072 q 1303 1123 1324 1103 q 1266 1160 1282 1143 q 1247 1181 1250 1176 q 1216 1158 1242 1175 q 1160 1122 1190 1142 q 1105 1087 1129 1101 q 1078 1072 1081 1072 q 1071 1069 1072 1069 m 1339 1194 q 1327 1198 1332 1194 q 1332 1206 1322 1201 q 1378 1233 1351 1214 q 1433 1274 1406 1251 q 1481 1313 1460 1296 q 1513 1336 1503 1331 q 1531 1342 1518 1340 q 1554 1344 1543 1344 q 1579 1336 1579 1344 q 1569 1317 1578 1329 q 1525 1285 1560 1306 q 1497 1269 1522 1283 q 1438 1239 1471 1256 q 1379 1209 1406 1222 q 1349 1196 1353 1196 q 1339 1194 1346 1194 z "},"Ậ":{"ha":1490,"x_min":35,"x_max":1554,"o":"m 315 -121 q 132 -75 214 -121 q 35 78 35 -18 q 72 182 35 131 q 513 369 181 332 q 575 374 542 372 q 646 376 608 376 q 744 373 688 376 q 874 363 801 369 q 895 404 885 383 q 915 444 906 425 q 895 499 914 476 q 844 519 876 521 q 901 568 853 568 q 940 506 949 568 q 1013 825 1010 683 q 926 842 978 832 q 807 864 875 851 q 692 881 743 875 q 606 888 642 888 q 315 768 397 888 q 283 671 283 721 q 347 553 283 597 q 482 517 403 517 q 556 528 519 517 q 624 561 592 539 q 696 686 696 613 q 649 764 696 735 q 558 793 610 793 q 444 744 461 793 l 440 725 q 432 710 438 718 q 431 715 431 711 q 474 788 431 761 q 513 803 492 799 q 558 808 535 808 q 660 776 619 808 q 708 686 708 742 q 635 550 708 603 q 482 500 564 500 q 324 550 389 500 q 254 697 254 604 q 283 801 254 751 q 574 933 363 933 q 661 926 610 933 q 779 904 713 919 l 1013 849 q 976 982 1011 925 q 972 1000 972 993 q 982 1011 972 1011 q 1010 985 996 1011 q 1042 843 1039 938 q 1133 826 1090 833 q 1210 817 1175 819 q 1303 915 1257 882 q 1410 958 1361 958 q 1486 899 1486 958 q 1283 799 1486 804 q 1194 418 1194 654 q 1195 382 1194 400 q 1197 346 1196 364 q 1433 447 1382 353 q 1444 476 1439 458 q 1456 521 1450 494 q 1464 529 1458 529 q 1472 518 1472 529 q 1457 457 1472 496 q 1200 315 1407 321 q 1260 117 1215 199 q 1424 6 1324 6 q 1508 53 1478 6 q 1546 144 1511 56 q 1551 149 1549 149 q 1554 140 1554 149 q 1514 35 1554 83 q 1415 -12 1471 -12 l 1407 -12 q 1399 -11 1403 -11 q 1365 -46 1369 -11 q 1353 -83 1360 -83 q 1339 -78 1346 -83 q 1133 315 1161 44 q 1048 321 1096 317 q 942 331 1000 325 q 494 -89 738 -8 q 315 -121 401 -121 m 1250 814 q 1282 854 1267 839 q 1299 865 1288 860 q 1328 876 1310 869 q 1359 888 1347 883 q 1378 892 1371 892 q 1379 890 1379 892 q 1378 890 1379 890 q 1376 889 1378 890 q 1334 858 1354 876 q 1297 815 1314 840 q 1436 890 1436 825 q 1385 932 1436 932 q 1313 904 1353 932 q 1228 815 1274 876 q 1239 815 1233 815 q 1250 814 1244 815 m 940 358 q 975 417 954 379 q 1026 508 996 454 q 1094 631 1051 558 q 1197 800 1138 703 q 1124 808 1163 803 q 1042 819 1086 813 q 1028 699 1040 764 q 989 565 1015 635 q 948 466 972 517 q 894 363 924 415 l 940 358 m 1131 346 q 1129 372 1129 358 q 1129 400 1129 386 q 1238 799 1129 636 q 1226 799 1232 799 q 1215 800 1221 799 q 1151 695 1194 769 q 1039 500 1107 621 q 994 417 1014 453 q 958 357 974 382 q 1054 349 1011 351 q 1131 346 1097 347 m 332 -100 q 492 -75 407 -100 q 925 332 725 0 l 881 338 q 483 -18 688 10 q 515 71 515 3 l 515 74 q 561 115 536 115 q 565 113 565 115 q 554 25 565 40 l 519 0 q 861 340 699 54 q 613 357 703 357 q 333 314 450 357 q 183 224 243 281 q 110 71 110 154 q 182 -61 110 -12 q 332 -100 247 -100 m 896 -228 q 878 -224 886 -228 q 869 -215 871 -221 q 868 -203 868 -211 q 885 -158 868 -176 q 922 -139 903 -139 q 957 -165 957 -139 q 943 -204 957 -179 q 922 -222 936 -217 q 896 -228 908 -228 m 1071 1069 q 1063 1074 1065 1069 q 1067 1083 1060 1078 q 1102 1110 1076 1088 q 1158 1159 1128 1132 q 1212 1207 1189 1186 q 1239 1229 1235 1228 q 1263 1233 1246 1233 q 1279 1229 1275 1233 q 1295 1207 1282 1228 q 1326 1158 1308 1186 q 1357 1108 1343 1131 q 1374 1083 1371 1086 q 1378 1078 1378 1082 q 1370 1070 1376 1072 q 1358 1072 1364 1068 q 1340 1088 1357 1072 q 1303 1123 1324 1103 q 1266 1160 1282 1143 q 1247 1181 1250 1176 q 1216 1158 1242 1175 q 1160 1122 1190 1142 q 1105 1087 1129 1101 q 1078 1072 1081 1072 q 1071 1069 1072 1069 z "},"Ầ":{"ha":1490,"x_min":35,"x_max":1554,"o":"m 315 -121 q 132 -75 214 -121 q 35 78 35 -18 q 72 182 35 131 q 513 369 181 332 q 575 374 542 372 q 646 376 608 376 q 744 373 688 376 q 874 363 801 369 q 895 404 885 383 q 915 444 906 425 q 895 499 914 476 q 844 519 876 521 q 901 568 853 568 q 940 506 949 568 q 1013 825 1010 683 q 926 842 978 832 q 807 864 875 851 q 692 881 743 875 q 606 888 642 888 q 315 768 397 888 q 283 671 283 721 q 347 553 283 597 q 482 517 403 517 q 556 528 519 517 q 624 561 592 539 q 696 686 696 613 q 649 764 696 735 q 558 793 610 793 q 444 744 461 793 l 440 725 q 432 710 438 718 q 431 715 431 711 q 474 788 431 761 q 513 803 492 799 q 558 808 535 808 q 660 776 619 808 q 708 686 708 742 q 635 550 708 603 q 482 500 564 500 q 324 550 389 500 q 254 697 254 604 q 283 801 254 751 q 574 933 363 933 q 661 926 610 933 q 779 904 713 919 l 1013 849 q 976 982 1011 925 q 972 1000 972 993 q 982 1011 972 1011 q 1010 985 996 1011 q 1042 843 1039 938 q 1133 826 1090 833 q 1210 817 1175 819 q 1303 915 1257 882 q 1410 958 1361 958 q 1486 899 1486 958 q 1283 799 1486 804 q 1194 418 1194 654 q 1195 382 1194 400 q 1197 346 1196 364 q 1433 447 1382 353 q 1444 476 1439 458 q 1456 521 1450 494 q 1464 529 1458 529 q 1472 518 1472 529 q 1457 457 1472 496 q 1200 315 1407 321 q 1260 117 1215 199 q 1424 6 1324 6 q 1508 53 1478 6 q 1546 144 1511 56 q 1551 149 1549 149 q 1554 140 1554 149 q 1514 35 1554 83 q 1415 -12 1471 -12 l 1407 -12 q 1399 -11 1403 -11 q 1365 -46 1369 -11 q 1353 -83 1360 -83 q 1339 -78 1346 -83 q 1133 315 1161 44 q 1048 321 1096 317 q 942 331 1000 325 q 494 -89 738 -8 q 315 -121 401 -121 m 1250 814 q 1282 854 1267 839 q 1299 865 1288 860 q 1328 876 1310 869 q 1359 888 1347 883 q 1378 892 1371 892 q 1379 890 1379 892 q 1378 890 1379 890 q 1376 889 1378 890 q 1334 858 1354 876 q 1297 815 1314 840 q 1436 890 1436 825 q 1385 932 1436 932 q 1313 904 1353 932 q 1228 815 1274 876 q 1239 815 1233 815 q 1250 814 1244 815 m 940 358 q 975 417 954 379 q 1026 508 996 454 q 1094 631 1051 558 q 1197 800 1138 703 q 1124 808 1163 803 q 1042 819 1086 813 q 1028 699 1040 764 q 989 565 1015 635 q 948 466 972 517 q 894 363 924 415 l 940 358 m 1131 346 q 1129 372 1129 358 q 1129 400 1129 386 q 1238 799 1129 636 q 1226 799 1232 799 q 1215 800 1221 799 q 1151 695 1194 769 q 1039 500 1107 621 q 994 417 1014 453 q 958 357 974 382 q 1054 349 1011 351 q 1131 346 1097 347 m 332 -100 q 492 -75 407 -100 q 925 332 725 0 l 881 338 q 483 -18 688 10 q 515 71 515 3 l 515 74 q 561 115 536 115 q 565 113 565 115 q 554 25 565 40 l 519 0 q 861 340 699 54 q 613 357 703 357 q 333 314 450 357 q 183 224 243 281 q 110 71 110 154 q 182 -61 110 -12 q 332 -100 247 -100 m 1071 1069 q 1063 1074 1065 1069 q 1067 1083 1060 1078 q 1102 1110 1076 1088 q 1158 1159 1128 1132 q 1212 1207 1189 1186 q 1239 1229 1235 1228 q 1263 1233 1246 1233 q 1279 1229 1275 1233 q 1295 1207 1282 1228 q 1326 1158 1308 1186 q 1357 1108 1343 1131 q 1374 1083 1371 1086 q 1378 1078 1378 1082 q 1370 1070 1376 1072 q 1358 1072 1364 1068 q 1340 1088 1357 1072 q 1303 1123 1324 1103 q 1266 1160 1282 1143 q 1247 1181 1250 1176 q 1216 1158 1242 1175 q 1160 1122 1190 1142 q 1105 1087 1129 1101 q 1078 1072 1081 1072 q 1071 1069 1072 1069 m 1399 1196 q 1371 1209 1394 1196 q 1319 1239 1347 1222 q 1269 1269 1292 1256 q 1244 1285 1247 1283 q 1209 1317 1214 1306 q 1204 1336 1204 1329 q 1229 1344 1204 1344 q 1253 1342 1240 1344 q 1271 1336 1265 1340 q 1294 1313 1278 1331 q 1333 1274 1311 1296 q 1378 1233 1356 1251 q 1418 1206 1400 1214 q 1424 1201 1424 1204 q 1414 1195 1422 1197 q 1399 1196 1406 1193 z "},"Ẩ":{"ha":1490,"x_min":35,"x_max":1554,"o":"m 315 -121 q 132 -75 214 -121 q 35 78 35 -18 q 72 182 35 131 q 513 369 181 332 q 575 374 542 372 q 646 376 608 376 q 744 373 688 376 q 874 363 801 369 q 895 404 885 383 q 915 444 906 425 q 895 499 914 476 q 844 519 876 521 q 901 568 853 568 q 940 506 949 568 q 1013 825 1010 683 q 926 842 978 832 q 807 864 875 851 q 692 881 743 875 q 606 888 642 888 q 315 768 397 888 q 283 671 283 721 q 347 553 283 597 q 482 517 403 517 q 556 528 519 517 q 624 561 592 539 q 696 686 696 613 q 649 764 696 735 q 558 793 610 793 q 444 744 461 793 l 440 725 q 432 710 438 718 q 431 715 431 711 q 474 788 431 761 q 513 803 492 799 q 558 808 535 808 q 660 776 619 808 q 708 686 708 742 q 635 550 708 603 q 482 500 564 500 q 324 550 389 500 q 254 697 254 604 q 283 801 254 751 q 574 933 363 933 q 661 926 610 933 q 779 904 713 919 l 1013 849 q 976 982 1011 925 q 972 1000 972 993 q 982 1011 972 1011 q 1010 985 996 1011 q 1042 843 1039 938 q 1133 826 1090 833 q 1210 817 1175 819 q 1303 915 1257 882 q 1410 958 1361 958 q 1486 899 1486 958 q 1283 799 1486 804 q 1194 418 1194 654 q 1195 382 1194 400 q 1197 346 1196 364 q 1433 447 1382 353 q 1444 476 1439 458 q 1456 521 1450 494 q 1464 529 1458 529 q 1472 518 1472 529 q 1457 457 1472 496 q 1200 315 1407 321 q 1260 117 1215 199 q 1424 6 1324 6 q 1508 53 1478 6 q 1546 144 1511 56 q 1551 149 1549 149 q 1554 140 1554 149 q 1514 35 1554 83 q 1415 -12 1471 -12 l 1407 -12 q 1399 -11 1403 -11 q 1365 -46 1369 -11 q 1353 -83 1360 -83 q 1339 -78 1346 -83 q 1133 315 1161 44 q 1048 321 1096 317 q 942 331 1000 325 q 494 -89 738 -8 q 315 -121 401 -121 m 1250 814 q 1282 854 1267 839 q 1299 865 1288 860 q 1328 876 1310 869 q 1359 888 1347 883 q 1378 892 1371 892 q 1379 890 1379 892 q 1378 890 1379 890 q 1376 889 1378 890 q 1334 858 1354 876 q 1297 815 1314 840 q 1436 890 1436 825 q 1385 932 1436 932 q 1313 904 1353 932 q 1228 815 1274 876 q 1239 815 1233 815 q 1250 814 1244 815 m 940 358 q 975 417 954 379 q 1026 508 996 454 q 1094 631 1051 558 q 1197 800 1138 703 q 1124 808 1163 803 q 1042 819 1086 813 q 1028 699 1040 764 q 989 565 1015 635 q 948 466 972 517 q 894 363 924 415 l 940 358 m 1131 346 q 1129 372 1129 358 q 1129 400 1129 386 q 1238 799 1129 636 q 1226 799 1232 799 q 1215 800 1221 799 q 1151 695 1194 769 q 1039 500 1107 621 q 994 417 1014 453 q 958 357 974 382 q 1054 349 1011 351 q 1131 346 1097 347 m 332 -100 q 492 -75 407 -100 q 925 332 725 0 l 881 338 q 483 -18 688 10 q 515 71 515 3 l 515 74 q 561 115 536 115 q 565 113 565 115 q 554 25 565 40 l 519 0 q 861 340 699 54 q 613 357 703 357 q 333 314 450 357 q 183 224 243 281 q 110 71 110 154 q 182 -61 110 -12 q 332 -100 247 -100 m 1071 1069 q 1063 1074 1065 1069 q 1067 1083 1060 1078 q 1102 1110 1076 1088 q 1158 1159 1128 1132 q 1212 1207 1189 1186 q 1239 1229 1235 1228 q 1263 1233 1246 1233 q 1279 1229 1275 1233 q 1295 1207 1282 1228 q 1326 1158 1308 1186 q 1357 1108 1343 1131 q 1374 1083 1371 1086 q 1378 1078 1378 1082 q 1370 1070 1376 1072 q 1358 1072 1364 1068 q 1340 1088 1357 1072 q 1303 1123 1324 1103 q 1266 1160 1282 1143 q 1247 1181 1250 1176 q 1216 1158 1242 1175 q 1160 1122 1190 1142 q 1105 1087 1129 1101 q 1078 1072 1081 1072 q 1071 1069 1072 1069 m 1346 1193 q 1336 1201 1336 1193 q 1358 1247 1339 1229 q 1394 1281 1376 1265 q 1428 1318 1414 1299 q 1443 1351 1443 1338 q 1408 1375 1443 1375 q 1362 1365 1383 1375 q 1332 1356 1340 1356 q 1322 1365 1319 1356 q 1342 1385 1324 1376 q 1384 1400 1360 1394 q 1425 1406 1408 1406 q 1477 1395 1453 1406 q 1501 1354 1501 1385 q 1476 1304 1501 1326 q 1424 1263 1451 1282 q 1368 1201 1376 1226 q 1358 1195 1368 1197 q 1346 1193 1349 1193 z "},"Ẫ":{"ha":1490,"x_min":35,"x_max":1554,"o":"m 315 -121 q 132 -75 214 -121 q 35 78 35 -18 q 72 182 35 131 q 513 369 181 332 q 575 374 542 372 q 646 376 608 376 q 744 373 688 376 q 874 363 801 369 q 895 404 885 383 q 915 444 906 425 q 895 499 914 476 q 844 519 876 521 q 901 568 853 568 q 940 506 949 568 q 1013 825 1010 683 q 926 842 978 832 q 807 864 875 851 q 692 881 743 875 q 606 888 642 888 q 315 768 397 888 q 283 671 283 721 q 347 553 283 597 q 482 517 403 517 q 556 528 519 517 q 624 561 592 539 q 696 686 696 613 q 649 764 696 735 q 558 793 610 793 q 444 744 461 793 l 440 725 q 432 710 438 718 q 431 715 431 711 q 474 788 431 761 q 513 803 492 799 q 558 808 535 808 q 660 776 619 808 q 708 686 708 742 q 635 550 708 603 q 482 500 564 500 q 324 550 389 500 q 254 697 254 604 q 283 801 254 751 q 574 933 363 933 q 661 926 610 933 q 779 904 713 919 l 1013 849 q 976 982 1011 925 q 972 1000 972 993 q 982 1011 972 1011 q 1010 985 996 1011 q 1042 843 1039 938 q 1133 826 1090 833 q 1210 817 1175 819 q 1303 915 1257 882 q 1410 958 1361 958 q 1486 899 1486 958 q 1283 799 1486 804 q 1194 418 1194 654 q 1195 382 1194 400 q 1197 346 1196 364 q 1433 447 1382 353 q 1444 476 1439 458 q 1456 521 1450 494 q 1464 529 1458 529 q 1472 518 1472 529 q 1457 457 1472 496 q 1200 315 1407 321 q 1260 117 1215 199 q 1424 6 1324 6 q 1508 53 1478 6 q 1546 144 1511 56 q 1551 149 1549 149 q 1554 140 1554 149 q 1514 35 1554 83 q 1415 -12 1471 -12 l 1407 -12 q 1399 -11 1403 -11 q 1365 -46 1369 -11 q 1353 -83 1360 -83 q 1339 -78 1346 -83 q 1133 315 1161 44 q 1048 321 1096 317 q 942 331 1000 325 q 494 -89 738 -8 q 315 -121 401 -121 m 1250 814 q 1282 854 1267 839 q 1299 865 1288 860 q 1328 876 1310 869 q 1359 888 1347 883 q 1378 892 1371 892 q 1379 890 1379 892 q 1378 890 1379 890 q 1376 889 1378 890 q 1334 858 1354 876 q 1297 815 1314 840 q 1436 890 1436 825 q 1385 932 1436 932 q 1313 904 1353 932 q 1228 815 1274 876 q 1239 815 1233 815 q 1250 814 1244 815 m 940 358 q 975 417 954 379 q 1026 508 996 454 q 1094 631 1051 558 q 1197 800 1138 703 q 1124 808 1163 803 q 1042 819 1086 813 q 1028 699 1040 764 q 989 565 1015 635 q 948 466 972 517 q 894 363 924 415 l 940 358 m 1131 346 q 1129 372 1129 358 q 1129 400 1129 386 q 1238 799 1129 636 q 1226 799 1232 799 q 1215 800 1221 799 q 1151 695 1194 769 q 1039 500 1107 621 q 994 417 1014 453 q 958 357 974 382 q 1054 349 1011 351 q 1131 346 1097 347 m 332 -100 q 492 -75 407 -100 q 925 332 725 0 l 881 338 q 483 -18 688 10 q 515 71 515 3 l 515 74 q 561 115 536 115 q 565 113 565 115 q 554 25 565 40 l 519 0 q 861 340 699 54 q 613 357 703 357 q 333 314 450 357 q 183 224 243 281 q 110 71 110 154 q 182 -61 110 -12 q 332 -100 247 -100 m 1071 1069 q 1063 1074 1065 1069 q 1067 1083 1060 1078 q 1102 1110 1076 1088 q 1158 1159 1128 1132 q 1212 1207 1189 1186 q 1239 1229 1235 1228 q 1263 1233 1246 1233 q 1279 1229 1275 1233 q 1295 1207 1282 1228 q 1326 1158 1308 1186 q 1357 1108 1343 1131 q 1374 1083 1371 1086 q 1378 1078 1378 1082 q 1370 1070 1376 1072 q 1358 1072 1364 1068 q 1340 1088 1357 1072 q 1303 1123 1324 1103 q 1266 1160 1282 1143 q 1247 1181 1250 1176 q 1216 1158 1242 1175 q 1160 1122 1190 1142 q 1105 1087 1129 1101 q 1078 1072 1081 1072 q 1071 1069 1072 1069 m 1317 1264 q 1274 1274 1296 1264 q 1230 1293 1251 1283 q 1190 1303 1208 1303 q 1147 1290 1165 1303 q 1121 1265 1128 1278 q 1113 1272 1110 1265 q 1151 1326 1124 1306 q 1208 1347 1178 1347 q 1253 1338 1231 1347 q 1297 1318 1275 1328 q 1336 1308 1318 1308 q 1380 1322 1360 1308 q 1404 1346 1400 1335 q 1417 1340 1417 1346 q 1376 1285 1404 1306 q 1317 1264 1349 1264 z "},"Ȁ":{"ha":1490,"x_min":35,"x_max":1554,"o":"m 315 -121 q 132 -75 214 -121 q 35 78 35 -18 q 72 182 35 131 q 513 369 181 332 q 575 374 542 372 q 646 376 608 376 q 744 373 688 376 q 874 363 801 369 q 895 404 885 383 q 915 444 906 425 q 895 499 914 476 q 844 519 876 521 q 901 568 853 568 q 940 506 949 568 q 1013 825 1010 683 q 926 842 978 832 q 807 864 875 851 q 692 881 743 875 q 606 888 642 888 q 315 768 397 888 q 283 671 283 721 q 347 553 283 597 q 482 517 403 517 q 556 528 519 517 q 624 561 592 539 q 696 686 696 613 q 649 764 696 735 q 558 793 610 793 q 444 744 461 793 l 440 725 q 432 710 438 718 q 431 715 431 711 q 474 788 431 761 q 513 803 492 799 q 558 808 535 808 q 660 776 619 808 q 708 686 708 742 q 635 550 708 603 q 482 500 564 500 q 324 550 389 500 q 254 697 254 604 q 283 801 254 751 q 574 933 363 933 q 661 926 610 933 q 779 904 713 919 l 1013 849 q 976 982 1011 925 q 972 1000 972 993 q 982 1011 972 1011 q 1010 985 996 1011 q 1042 843 1039 938 q 1133 826 1090 833 q 1210 817 1175 819 q 1303 915 1257 882 q 1410 958 1361 958 q 1486 899 1486 958 q 1283 799 1486 804 q 1194 418 1194 654 q 1195 382 1194 400 q 1197 346 1196 364 q 1433 447 1382 353 q 1444 476 1439 458 q 1456 521 1450 494 q 1464 529 1458 529 q 1472 518 1472 529 q 1457 457 1472 496 q 1200 315 1407 321 q 1260 117 1215 199 q 1424 6 1324 6 q 1508 53 1478 6 q 1546 144 1511 56 q 1551 149 1549 149 q 1554 140 1554 149 q 1514 35 1554 83 q 1415 -12 1471 -12 l 1407 -12 q 1399 -11 1403 -11 q 1365 -46 1369 -11 q 1353 -83 1360 -83 q 1339 -78 1346 -83 q 1133 315 1161 44 q 1048 321 1096 317 q 942 331 1000 325 q 494 -89 738 -8 q 315 -121 401 -121 m 1250 814 q 1282 854 1267 839 q 1299 865 1288 860 q 1328 876 1310 869 q 1359 888 1347 883 q 1378 892 1371 892 q 1379 890 1379 892 q 1378 890 1379 890 q 1376 889 1378 890 q 1334 858 1354 876 q 1297 815 1314 840 q 1436 890 1436 825 q 1385 932 1436 932 q 1313 904 1353 932 q 1228 815 1274 876 q 1239 815 1233 815 q 1250 814 1244 815 m 940 358 q 975 417 954 379 q 1026 508 996 454 q 1094 631 1051 558 q 1197 800 1138 703 q 1124 808 1163 803 q 1042 819 1086 813 q 1028 699 1040 764 q 989 565 1015 635 q 948 466 972 517 q 894 363 924 415 l 940 358 m 1131 346 q 1129 372 1129 358 q 1129 400 1129 386 q 1238 799 1129 636 q 1226 799 1232 799 q 1215 800 1221 799 q 1151 695 1194 769 q 1039 500 1107 621 q 994 417 1014 453 q 958 357 974 382 q 1054 349 1011 351 q 1131 346 1097 347 m 332 -100 q 492 -75 407 -100 q 925 332 725 0 l 881 338 q 483 -18 688 10 q 515 71 515 3 l 515 74 q 561 115 536 115 q 565 113 565 115 q 554 25 565 40 l 519 0 q 861 340 699 54 q 613 357 703 357 q 333 314 450 357 q 183 224 243 281 q 110 71 110 154 q 182 -61 110 -12 q 332 -100 247 -100 m 1288 1056 q 1278 1060 1282 1056 q 1253 1076 1274 1061 q 1210 1111 1233 1092 q 1167 1147 1186 1131 q 1146 1164 1149 1163 q 1118 1199 1121 1188 q 1115 1218 1115 1211 q 1132 1224 1119 1224 q 1158 1219 1143 1224 q 1178 1210 1172 1215 q 1206 1173 1186 1203 q 1251 1112 1226 1143 q 1296 1068 1275 1081 q 1300 1063 1300 1064 q 1288 1056 1297 1056 m 1133 1071 q 1106 1084 1129 1071 q 1054 1114 1082 1097 q 1004 1144 1026 1131 q 979 1160 982 1158 q 944 1192 950 1181 q 939 1211 939 1204 q 964 1219 939 1219 q 988 1217 975 1219 q 1006 1211 1000 1215 q 1030 1188 1013 1206 q 1069 1149 1047 1171 q 1113 1108 1090 1126 q 1153 1081 1135 1089 q 1158 1076 1158 1079 q 1142 1069 1156 1069 q 1133 1071 1136 1069 z "},"Ä":{"ha":1490,"x_min":35,"x_max":1554,"o":"m 315 -121 q 132 -75 214 -121 q 35 78 35 -18 q 72 182 35 131 q 513 369 181 332 q 575 374 542 372 q 646 376 608 376 q 744 373 688 376 q 874 363 801 369 q 895 404 885 383 q 915 444 906 425 q 895 499 914 476 q 844 519 876 521 q 901 568 853 568 q 940 506 949 568 q 1013 825 1010 683 q 926 842 978 832 q 807 864 875 851 q 692 881 743 875 q 606 888 642 888 q 315 768 397 888 q 283 671 283 721 q 347 553 283 597 q 482 517 403 517 q 556 528 519 517 q 624 561 592 539 q 696 686 696 613 q 649 764 696 735 q 558 793 610 793 q 444 744 461 793 l 440 725 q 432 710 438 718 q 431 715 431 711 q 474 788 431 761 q 513 803 492 799 q 558 808 535 808 q 660 776 619 808 q 708 686 708 742 q 635 550 708 603 q 482 500 564 500 q 324 550 389 500 q 254 697 254 604 q 283 801 254 751 q 574 933 363 933 q 661 926 610 933 q 779 904 713 919 l 1013 849 q 976 982 1011 925 q 972 1000 972 993 q 982 1011 972 1011 q 1010 985 996 1011 q 1042 843 1039 938 q 1133 826 1090 833 q 1210 817 1175 819 q 1303 915 1257 882 q 1410 958 1361 958 q 1486 899 1486 958 q 1283 799 1486 804 q 1194 418 1194 654 q 1195 382 1194 400 q 1197 346 1196 364 q 1433 447 1382 353 q 1444 476 1439 458 q 1456 521 1450 494 q 1464 529 1458 529 q 1472 518 1472 529 q 1457 457 1472 496 q 1200 315 1407 321 q 1260 117 1215 199 q 1424 6 1324 6 q 1508 53 1478 6 q 1546 144 1511 56 q 1551 149 1549 149 q 1554 140 1554 149 q 1514 35 1554 83 q 1415 -12 1471 -12 l 1407 -12 q 1399 -11 1403 -11 q 1365 -46 1369 -11 q 1353 -83 1360 -83 q 1339 -78 1346 -83 q 1133 315 1161 44 q 1048 321 1096 317 q 942 331 1000 325 q 494 -89 738 -8 q 315 -121 401 -121 m 1250 814 q 1282 854 1267 839 q 1299 865 1288 860 q 1328 876 1310 869 q 1359 888 1347 883 q 1378 892 1371 892 q 1379 890 1379 892 q 1378 890 1379 890 q 1376 889 1378 890 q 1334 858 1354 876 q 1297 815 1314 840 q 1436 890 1436 825 q 1385 932 1436 932 q 1313 904 1353 932 q 1228 815 1274 876 q 1239 815 1233 815 q 1250 814 1244 815 m 940 358 q 975 417 954 379 q 1026 508 996 454 q 1094 631 1051 558 q 1197 800 1138 703 q 1124 808 1163 803 q 1042 819 1086 813 q 1028 699 1040 764 q 989 565 1015 635 q 948 466 972 517 q 894 363 924 415 l 940 358 m 1131 346 q 1129 372 1129 358 q 1129 400 1129 386 q 1238 799 1129 636 q 1226 799 1232 799 q 1215 800 1221 799 q 1151 695 1194 769 q 1039 500 1107 621 q 994 417 1014 453 q 958 357 974 382 q 1054 349 1011 351 q 1131 346 1097 347 m 332 -100 q 492 -75 407 -100 q 925 332 725 0 l 881 338 q 483 -18 688 10 q 515 71 515 3 l 515 74 q 561 115 536 115 q 565 113 565 115 q 554 25 565 40 l 519 0 q 861 340 699 54 q 613 357 703 357 q 333 314 450 357 q 183 224 243 281 q 110 71 110 154 q 182 -61 110 -12 q 332 -100 247 -100 m 1282 1069 q 1263 1085 1272 1069 q 1254 1111 1254 1101 q 1274 1141 1254 1126 q 1316 1165 1293 1156 q 1349 1175 1339 1175 q 1356 1171 1354 1175 l 1356 1165 q 1335 1138 1344 1149 q 1324 1114 1326 1126 q 1309 1085 1319 1101 q 1282 1069 1299 1069 m 1100 1069 q 1081 1085 1090 1069 q 1072 1111 1072 1101 q 1092 1141 1072 1126 q 1134 1165 1111 1156 q 1167 1175 1157 1175 q 1174 1171 1172 1175 l 1174 1165 q 1153 1138 1163 1149 q 1142 1114 1144 1126 q 1127 1085 1138 1101 q 1100 1069 1117 1069 z "},"Ạ":{"ha":1490,"x_min":35,"x_max":1554,"o":"m 315 -121 q 132 -75 214 -121 q 35 78 35 -18 q 72 182 35 131 q 513 369 181 332 q 575 374 542 372 q 646 376 608 376 q 744 373 688 376 q 874 363 801 369 q 895 404 885 383 q 915 444 906 425 q 895 499 914 476 q 844 519 876 521 q 901 568 853 568 q 940 506 949 568 q 1013 825 1010 683 q 926 842 978 832 q 807 864 875 851 q 692 881 743 875 q 606 888 642 888 q 315 768 397 888 q 283 671 283 721 q 347 553 283 597 q 482 517 403 517 q 556 528 519 517 q 624 561 592 539 q 696 686 696 613 q 649 764 696 735 q 558 793 610 793 q 444 744 461 793 l 440 725 q 432 710 438 718 q 431 715 431 711 q 474 788 431 761 q 513 803 492 799 q 558 808 535 808 q 660 776 619 808 q 708 686 708 742 q 635 550 708 603 q 482 500 564 500 q 324 550 389 500 q 254 697 254 604 q 283 801 254 751 q 574 933 363 933 q 661 926 610 933 q 779 904 713 919 l 1013 849 q 976 982 1011 925 q 972 1000 972 993 q 982 1011 972 1011 q 1010 985 996 1011 q 1042 843 1039 938 q 1133 826 1090 833 q 1210 817 1175 819 q 1303 915 1257 882 q 1410 958 1361 958 q 1486 899 1486 958 q 1283 799 1486 804 q 1194 418 1194 654 q 1195 382 1194 400 q 1197 346 1196 364 q 1433 447 1382 353 q 1444 476 1439 458 q 1456 521 1450 494 q 1464 529 1458 529 q 1472 518 1472 529 q 1457 457 1472 496 q 1200 315 1407 321 q 1260 117 1215 199 q 1424 6 1324 6 q 1508 53 1478 6 q 1546 144 1511 56 q 1551 149 1549 149 q 1554 140 1554 149 q 1514 35 1554 83 q 1415 -12 1471 -12 l 1407 -12 q 1399 -11 1403 -11 q 1365 -46 1369 -11 q 1353 -83 1360 -83 q 1339 -78 1346 -83 q 1133 315 1161 44 q 1048 321 1096 317 q 942 331 1000 325 q 494 -89 738 -8 q 315 -121 401 -121 m 1250 814 q 1282 854 1267 839 q 1299 865 1288 860 q 1328 876 1310 869 q 1359 888 1347 883 q 1378 892 1371 892 q 1379 890 1379 892 q 1378 890 1379 890 q 1376 889 1378 890 q 1334 858 1354 876 q 1297 815 1314 840 q 1436 890 1436 825 q 1385 932 1436 932 q 1313 904 1353 932 q 1228 815 1274 876 q 1239 815 1233 815 q 1250 814 1244 815 m 940 358 q 975 417 954 379 q 1026 508 996 454 q 1094 631 1051 558 q 1197 800 1138 703 q 1124 808 1163 803 q 1042 819 1086 813 q 1028 699 1040 764 q 989 565 1015 635 q 948 466 972 517 q 894 363 924 415 l 940 358 m 1131 346 q 1129 372 1129 358 q 1129 400 1129 386 q 1238 799 1129 636 q 1226 799 1232 799 q 1215 800 1221 799 q 1151 695 1194 769 q 1039 500 1107 621 q 994 417 1014 453 q 958 357 974 382 q 1054 349 1011 351 q 1131 346 1097 347 m 332 -100 q 492 -75 407 -100 q 925 332 725 0 l 881 338 q 483 -18 688 10 q 515 71 515 3 l 515 74 q 561 115 536 115 q 565 113 565 115 q 554 25 565 40 l 519 0 q 861 340 699 54 q 613 357 703 357 q 333 314 450 357 q 183 224 243 281 q 110 71 110 154 q 182 -61 110 -12 q 332 -100 247 -100 m 896 -228 q 878 -224 886 -228 q 869 -215 871 -221 q 868 -203 868 -211 q 885 -158 868 -176 q 922 -139 903 -139 q 957 -165 957 -139 q 943 -204 957 -179 q 922 -222 936 -217 q 896 -228 908 -228 z "},"À":{"ha":1490,"x_min":35,"x_max":1554,"o":"m 315 -121 q 132 -75 214 -121 q 35 78 35 -18 q 72 182 35 131 q 513 369 181 332 q 575 374 542 372 q 646 376 608 376 q 744 373 688 376 q 874 363 801 369 q 895 404 885 383 q 915 444 906 425 q 895 499 914 476 q 844 519 876 521 q 901 568 853 568 q 940 506 949 568 q 1013 825 1010 683 q 926 842 978 832 q 807 864 875 851 q 692 881 743 875 q 606 888 642 888 q 315 768 397 888 q 283 671 283 721 q 347 553 283 597 q 482 517 403 517 q 556 528 519 517 q 624 561 592 539 q 696 686 696 613 q 649 764 696 735 q 558 793 610 793 q 444 744 461 793 l 440 725 q 432 710 438 718 q 431 715 431 711 q 474 788 431 761 q 513 803 492 799 q 558 808 535 808 q 660 776 619 808 q 708 686 708 742 q 635 550 708 603 q 482 500 564 500 q 324 550 389 500 q 254 697 254 604 q 283 801 254 751 q 574 933 363 933 q 661 926 610 933 q 779 904 713 919 l 1013 849 q 976 982 1011 925 q 972 1000 972 993 q 982 1011 972 1011 q 1010 985 996 1011 q 1042 843 1039 938 q 1133 826 1090 833 q 1210 817 1175 819 q 1303 915 1257 882 q 1410 958 1361 958 q 1486 899 1486 958 q 1283 799 1486 804 q 1194 418 1194 654 q 1195 382 1194 400 q 1197 346 1196 364 q 1433 447 1382 353 q 1444 476 1439 458 q 1456 521 1450 494 q 1464 529 1458 529 q 1472 518 1472 529 q 1457 457 1472 496 q 1200 315 1407 321 q 1260 117 1215 199 q 1424 6 1324 6 q 1508 53 1478 6 q 1546 144 1511 56 q 1551 149 1549 149 q 1554 140 1554 149 q 1514 35 1554 83 q 1415 -12 1471 -12 l 1407 -12 q 1399 -11 1403 -11 q 1365 -46 1369 -11 q 1353 -83 1360 -83 q 1339 -78 1346 -83 q 1133 315 1161 44 q 1048 321 1096 317 q 942 331 1000 325 q 494 -89 738 -8 q 315 -121 401 -121 m 1250 814 q 1282 854 1267 839 q 1299 865 1288 860 q 1328 876 1310 869 q 1359 888 1347 883 q 1378 892 1371 892 q 1379 890 1379 892 q 1378 890 1379 890 q 1376 889 1378 890 q 1334 858 1354 876 q 1297 815 1314 840 q 1436 890 1436 825 q 1385 932 1436 932 q 1313 904 1353 932 q 1228 815 1274 876 q 1239 815 1233 815 q 1250 814 1244 815 m 940 358 q 975 417 954 379 q 1026 508 996 454 q 1094 631 1051 558 q 1197 800 1138 703 q 1124 808 1163 803 q 1042 819 1086 813 q 1028 699 1040 764 q 989 565 1015 635 q 948 466 972 517 q 894 363 924 415 l 940 358 m 1131 346 q 1129 372 1129 358 q 1129 400 1129 386 q 1238 799 1129 636 q 1226 799 1232 799 q 1215 800 1221 799 q 1151 695 1194 769 q 1039 500 1107 621 q 994 417 1014 453 q 958 357 974 382 q 1054 349 1011 351 q 1131 346 1097 347 m 332 -100 q 492 -75 407 -100 q 925 332 725 0 l 881 338 q 483 -18 688 10 q 515 71 515 3 l 515 74 q 561 115 536 115 q 565 113 565 115 q 554 25 565 40 l 519 0 q 861 340 699 54 q 613 357 703 357 q 333 314 450 357 q 183 224 243 281 q 110 71 110 154 q 182 -61 110 -12 q 332 -100 247 -100 m 1232 1071 q 1204 1084 1228 1071 q 1153 1114 1181 1097 q 1103 1144 1125 1131 q 1078 1160 1081 1158 q 1042 1192 1047 1181 q 1038 1211 1038 1204 q 1063 1219 1038 1219 q 1086 1217 1074 1219 q 1104 1211 1099 1215 q 1128 1188 1111 1206 q 1167 1149 1144 1171 q 1211 1108 1189 1126 q 1251 1081 1233 1089 q 1257 1076 1257 1079 q 1247 1070 1256 1072 q 1232 1071 1239 1068 z "},"Ả":{"ha":1490,"x_min":35,"x_max":1554,"o":"m 315 -121 q 132 -75 214 -121 q 35 78 35 -18 q 72 182 35 131 q 513 369 181 332 q 575 374 542 372 q 646 376 608 376 q 744 373 688 376 q 874 363 801 369 q 895 404 885 383 q 915 444 906 425 q 895 499 914 476 q 844 519 876 521 q 901 568 853 568 q 940 506 949 568 q 1013 825 1010 683 q 926 842 978 832 q 807 864 875 851 q 692 881 743 875 q 606 888 642 888 q 315 768 397 888 q 283 671 283 721 q 347 553 283 597 q 482 517 403 517 q 556 528 519 517 q 624 561 592 539 q 696 686 696 613 q 649 764 696 735 q 558 793 610 793 q 444 744 461 793 l 440 725 q 432 710 438 718 q 431 715 431 711 q 474 788 431 761 q 513 803 492 799 q 558 808 535 808 q 660 776 619 808 q 708 686 708 742 q 635 550 708 603 q 482 500 564 500 q 324 550 389 500 q 254 697 254 604 q 283 801 254 751 q 574 933 363 933 q 661 926 610 933 q 779 904 713 919 l 1013 849 q 976 982 1011 925 q 972 1000 972 993 q 982 1011 972 1011 q 1010 985 996 1011 q 1042 843 1039 938 q 1133 826 1090 833 q 1210 817 1175 819 q 1303 915 1257 882 q 1410 958 1361 958 q 1486 899 1486 958 q 1283 799 1486 804 q 1194 418 1194 654 q 1195 382 1194 400 q 1197 346 1196 364 q 1433 447 1382 353 q 1444 476 1439 458 q 1456 521 1450 494 q 1464 529 1458 529 q 1472 518 1472 529 q 1457 457 1472 496 q 1200 315 1407 321 q 1260 117 1215 199 q 1424 6 1324 6 q 1508 53 1478 6 q 1546 144 1511 56 q 1551 149 1549 149 q 1554 140 1554 149 q 1514 35 1554 83 q 1415 -12 1471 -12 l 1407 -12 q 1399 -11 1403 -11 q 1365 -46 1369 -11 q 1353 -83 1360 -83 q 1339 -78 1346 -83 q 1133 315 1161 44 q 1048 321 1096 317 q 942 331 1000 325 q 494 -89 738 -8 q 315 -121 401 -121 m 1250 814 q 1282 854 1267 839 q 1299 865 1288 860 q 1328 876 1310 869 q 1359 888 1347 883 q 1378 892 1371 892 q 1379 890 1379 892 q 1378 890 1379 890 q 1376 889 1378 890 q 1334 858 1354 876 q 1297 815 1314 840 q 1436 890 1436 825 q 1385 932 1436 932 q 1313 904 1353 932 q 1228 815 1274 876 q 1239 815 1233 815 q 1250 814 1244 815 m 940 358 q 975 417 954 379 q 1026 508 996 454 q 1094 631 1051 558 q 1197 800 1138 703 q 1124 808 1163 803 q 1042 819 1086 813 q 1028 699 1040 764 q 989 565 1015 635 q 948 466 972 517 q 894 363 924 415 l 940 358 m 1131 346 q 1129 372 1129 358 q 1129 400 1129 386 q 1238 799 1129 636 q 1226 799 1232 799 q 1215 800 1221 799 q 1151 695 1194 769 q 1039 500 1107 621 q 994 417 1014 453 q 958 357 974 382 q 1054 349 1011 351 q 1131 346 1097 347 m 332 -100 q 492 -75 407 -100 q 925 332 725 0 l 881 338 q 483 -18 688 10 q 515 71 515 3 l 515 74 q 561 115 536 115 q 565 113 565 115 q 554 25 565 40 l 519 0 q 861 340 699 54 q 613 357 703 357 q 333 314 450 357 q 183 224 243 281 q 110 71 110 154 q 182 -61 110 -12 q 332 -100 247 -100 m 1207 1068 q 1197 1076 1197 1068 q 1219 1122 1200 1104 q 1256 1156 1238 1140 q 1290 1193 1275 1174 q 1304 1226 1304 1213 q 1269 1250 1304 1250 q 1223 1240 1244 1250 q 1193 1231 1201 1231 q 1183 1240 1181 1231 q 1203 1260 1185 1251 q 1245 1275 1221 1269 q 1286 1281 1269 1281 q 1338 1270 1314 1281 q 1363 1229 1363 1260 q 1338 1179 1363 1201 q 1285 1138 1313 1157 q 1229 1076 1238 1101 q 1219 1070 1229 1072 q 1207 1068 1210 1068 z "},"Ȃ":{"ha":1490,"x_min":35,"x_max":1554,"o":"m 315 -121 q 132 -75 214 -121 q 35 78 35 -18 q 72 182 35 131 q 513 369 181 332 q 575 374 542 372 q 646 376 608 376 q 744 373 688 376 q 874 363 801 369 q 895 404 885 383 q 915 444 906 425 q 895 499 914 476 q 844 519 876 521 q 901 568 853 568 q 940 506 949 568 q 1013 825 1010 683 q 926 842 978 832 q 807 864 875 851 q 692 881 743 875 q 606 888 642 888 q 315 768 397 888 q 283 671 283 721 q 347 553 283 597 q 482 517 403 517 q 556 528 519 517 q 624 561 592 539 q 696 686 696 613 q 649 764 696 735 q 558 793 610 793 q 444 744 461 793 l 440 725 q 432 710 438 718 q 431 715 431 711 q 474 788 431 761 q 513 803 492 799 q 558 808 535 808 q 660 776 619 808 q 708 686 708 742 q 635 550 708 603 q 482 500 564 500 q 324 550 389 500 q 254 697 254 604 q 283 801 254 751 q 574 933 363 933 q 661 926 610 933 q 779 904 713 919 l 1013 849 q 976 982 1011 925 q 972 1000 972 993 q 982 1011 972 1011 q 1010 985 996 1011 q 1042 843 1039 938 q 1133 826 1090 833 q 1210 817 1175 819 q 1303 915 1257 882 q 1410 958 1361 958 q 1486 899 1486 958 q 1283 799 1486 804 q 1194 418 1194 654 q 1195 382 1194 400 q 1197 346 1196 364 q 1433 447 1382 353 q 1444 476 1439 458 q 1456 521 1450 494 q 1464 529 1458 529 q 1472 518 1472 529 q 1457 457 1472 496 q 1200 315 1407 321 q 1260 117 1215 199 q 1424 6 1324 6 q 1508 53 1478 6 q 1546 144 1511 56 q 1551 149 1549 149 q 1554 140 1554 149 q 1514 35 1554 83 q 1415 -12 1471 -12 l 1407 -12 q 1399 -11 1403 -11 q 1365 -46 1369 -11 q 1353 -83 1360 -83 q 1339 -78 1346 -83 q 1133 315 1161 44 q 1048 321 1096 317 q 942 331 1000 325 q 494 -89 738 -8 q 315 -121 401 -121 m 1250 814 q 1282 854 1267 839 q 1299 865 1288 860 q 1328 876 1310 869 q 1359 888 1347 883 q 1378 892 1371 892 q 1379 890 1379 892 q 1378 890 1379 890 q 1376 889 1378 890 q 1334 858 1354 876 q 1297 815 1314 840 q 1436 890 1436 825 q 1385 932 1436 932 q 1313 904 1353 932 q 1228 815 1274 876 q 1239 815 1233 815 q 1250 814 1244 815 m 940 358 q 975 417 954 379 q 1026 508 996 454 q 1094 631 1051 558 q 1197 800 1138 703 q 1124 808 1163 803 q 1042 819 1086 813 q 1028 699 1040 764 q 989 565 1015 635 q 948 466 972 517 q 894 363 924 415 l 940 358 m 1131 346 q 1129 372 1129 358 q 1129 400 1129 386 q 1238 799 1129 636 q 1226 799 1232 799 q 1215 800 1221 799 q 1151 695 1194 769 q 1039 500 1107 621 q 994 417 1014 453 q 958 357 974 382 q 1054 349 1011 351 q 1131 346 1097 347 m 332 -100 q 492 -75 407 -100 q 925 332 725 0 l 881 338 q 483 -18 688 10 q 515 71 515 3 l 515 74 q 561 115 536 115 q 565 113 565 115 q 554 25 565 40 l 519 0 q 861 340 699 54 q 613 357 703 357 q 333 314 450 357 q 183 224 243 281 q 110 71 110 154 q 182 -61 110 -12 q 332 -100 247 -100 m 1354 1069 q 1343 1081 1343 1069 q 1324 1146 1346 1126 q 1269 1165 1301 1165 q 1169 1137 1217 1165 q 1094 1078 1121 1108 q 1081 1071 1085 1071 q 1071 1081 1071 1071 q 1075 1096 1071 1088 q 1136 1166 1099 1140 q 1212 1202 1174 1192 q 1271 1213 1250 1213 q 1317 1203 1292 1213 q 1360 1175 1342 1194 q 1378 1125 1378 1156 q 1378 1107 1378 1117 q 1375 1086 1378 1097 q 1354 1069 1368 1069 z "},"Ā":{"ha":1490,"x_min":35,"x_max":1554,"o":"m 315 -121 q 132 -75 214 -121 q 35 78 35 -18 q 72 182 35 131 q 513 369 181 332 q 575 374 542 372 q 646 376 608 376 q 744 373 688 376 q 874 363 801 369 q 895 404 885 383 q 915 444 906 425 q 895 499 914 476 q 844 519 876 521 q 901 568 853 568 q 940 506 949 568 q 1013 825 1010 683 q 926 842 978 832 q 807 864 875 851 q 692 881 743 875 q 606 888 642 888 q 315 768 397 888 q 283 671 283 721 q 347 553 283 597 q 482 517 403 517 q 556 528 519 517 q 624 561 592 539 q 696 686 696 613 q 649 764 696 735 q 558 793 610 793 q 444 744 461 793 l 440 725 q 432 710 438 718 q 431 715 431 711 q 474 788 431 761 q 513 803 492 799 q 558 808 535 808 q 660 776 619 808 q 708 686 708 742 q 635 550 708 603 q 482 500 564 500 q 324 550 389 500 q 254 697 254 604 q 283 801 254 751 q 574 933 363 933 q 661 926 610 933 q 779 904 713 919 l 1013 849 q 976 982 1011 925 q 972 1000 972 993 q 982 1011 972 1011 q 1010 985 996 1011 q 1042 843 1039 938 q 1133 826 1090 833 q 1210 817 1175 819 q 1303 915 1257 882 q 1410 958 1361 958 q 1486 899 1486 958 q 1283 799 1486 804 q 1194 418 1194 654 q 1195 382 1194 400 q 1197 346 1196 364 q 1433 447 1382 353 q 1444 476 1439 458 q 1456 521 1450 494 q 1464 529 1458 529 q 1472 518 1472 529 q 1457 457 1472 496 q 1200 315 1407 321 q 1260 117 1215 199 q 1424 6 1324 6 q 1508 53 1478 6 q 1546 144 1511 56 q 1551 149 1549 149 q 1554 140 1554 149 q 1514 35 1554 83 q 1415 -12 1471 -12 l 1407 -12 q 1399 -11 1403 -11 q 1365 -46 1369 -11 q 1353 -83 1360 -83 q 1339 -78 1346 -83 q 1133 315 1161 44 q 1048 321 1096 317 q 942 331 1000 325 q 494 -89 738 -8 q 315 -121 401 -121 m 1250 814 q 1282 854 1267 839 q 1299 865 1288 860 q 1328 876 1310 869 q 1359 888 1347 883 q 1378 892 1371 892 q 1379 890 1379 892 q 1378 890 1379 890 q 1376 889 1378 890 q 1334 858 1354 876 q 1297 815 1314 840 q 1436 890 1436 825 q 1385 932 1436 932 q 1313 904 1353 932 q 1228 815 1274 876 q 1239 815 1233 815 q 1250 814 1244 815 m 940 358 q 975 417 954 379 q 1026 508 996 454 q 1094 631 1051 558 q 1197 800 1138 703 q 1124 808 1163 803 q 1042 819 1086 813 q 1028 699 1040 764 q 989 565 1015 635 q 948 466 972 517 q 894 363 924 415 l 940 358 m 1131 346 q 1129 372 1129 358 q 1129 400 1129 386 q 1238 799 1129 636 q 1226 799 1232 799 q 1215 800 1221 799 q 1151 695 1194 769 q 1039 500 1107 621 q 994 417 1014 453 q 958 357 974 382 q 1054 349 1011 351 q 1131 346 1097 347 m 332 -100 q 492 -75 407 -100 q 925 332 725 0 l 881 338 q 483 -18 688 10 q 515 71 515 3 l 515 74 q 561 115 536 115 q 565 113 565 115 q 554 25 565 40 l 519 0 q 861 340 699 54 q 613 357 703 357 q 333 314 450 357 q 183 224 243 281 q 110 71 110 154 q 182 -61 110 -12 q 332 -100 247 -100 m 1093 1090 q 1076 1105 1088 1090 q 1064 1128 1065 1119 l 1067 1129 q 1106 1138 1079 1136 q 1163 1140 1133 1140 q 1206 1140 1192 1140 q 1247 1139 1221 1140 q 1299 1135 1272 1138 q 1345 1129 1326 1133 q 1364 1119 1364 1125 q 1360 1110 1364 1117 q 1349 1103 1357 1103 q 1279 1101 1314 1103 q 1210 1097 1244 1100 q 1153 1093 1182 1096 q 1093 1090 1125 1090 z "},"Ą":{"ha":1490,"x_min":35,"x_max":1554,"o":"m 315 -121 q 132 -75 214 -121 q 35 78 35 -18 q 72 182 35 131 q 513 369 181 332 q 575 374 542 372 q 646 376 608 376 q 744 373 688 376 q 874 363 801 369 q 895 404 885 383 q 915 444 906 425 q 895 499 914 476 q 844 519 876 521 q 901 568 853 568 q 940 506 949 568 q 1013 825 1010 683 q 926 842 978 832 q 807 864 875 851 q 692 881 743 875 q 606 888 642 888 q 315 768 397 888 q 283 671 283 721 q 347 553 283 597 q 482 517 403 517 q 556 528 519 517 q 624 561 592 539 q 696 686 696 613 q 649 764 696 735 q 558 793 610 793 q 444 744 461 793 l 440 725 q 432 710 438 718 q 431 715 431 711 q 474 788 431 761 q 513 803 492 799 q 558 808 535 808 q 660 776 619 808 q 708 686 708 742 q 635 550 708 603 q 482 500 564 500 q 324 550 389 500 q 254 697 254 604 q 283 801 254 751 q 574 933 363 933 q 661 926 610 933 q 779 904 713 919 l 1013 849 q 976 982 1011 925 q 972 1000 972 993 q 982 1011 972 1011 q 1010 985 996 1011 q 1042 843 1039 938 q 1133 826 1090 833 q 1210 817 1175 819 q 1303 915 1257 882 q 1410 958 1361 958 q 1486 899 1486 958 q 1283 799 1486 804 q 1194 418 1194 654 q 1195 382 1194 400 q 1197 346 1196 364 q 1433 447 1382 353 q 1444 476 1439 458 q 1456 521 1450 494 q 1464 529 1458 529 q 1472 518 1472 529 q 1457 457 1472 496 q 1200 315 1407 321 q 1260 117 1215 199 q 1424 6 1324 6 q 1508 53 1478 6 q 1546 144 1511 56 q 1551 149 1549 149 q 1554 140 1554 149 q 1514 35 1554 83 q 1415 -12 1471 -12 l 1407 -12 q 1399 -11 1403 -11 q 1365 -46 1369 -11 q 1353 -83 1360 -83 q 1339 -78 1346 -83 q 1133 315 1161 44 q 1048 321 1096 317 q 942 331 1000 325 q 494 -89 738 -8 q 315 -121 401 -121 m 1250 814 q 1282 854 1267 839 q 1299 865 1288 860 q 1328 876 1310 869 q 1359 888 1347 883 q 1378 892 1371 892 q 1379 890 1379 892 q 1378 890 1379 890 q 1376 889 1378 890 q 1334 858 1354 876 q 1297 815 1314 840 q 1436 890 1436 825 q 1385 932 1436 932 q 1313 904 1353 932 q 1228 815 1274 876 q 1239 815 1233 815 q 1250 814 1244 815 m 940 358 q 975 417 954 379 q 1026 508 996 454 q 1094 631 1051 558 q 1197 800 1138 703 q 1124 808 1163 803 q 1042 819 1086 813 q 1028 699 1040 764 q 989 565 1015 635 q 948 466 972 517 q 894 363 924 415 l 940 358 m 1131 346 q 1129 372 1129 358 q 1129 400 1129 386 q 1238 799 1129 636 q 1226 799 1232 799 q 1215 800 1221 799 q 1151 695 1194 769 q 1039 500 1107 621 q 994 417 1014 453 q 958 357 974 382 q 1054 349 1011 351 q 1131 346 1097 347 m 332 -100 q 492 -75 407 -100 q 925 332 725 0 l 881 338 q 483 -18 688 10 q 515 71 515 3 l 515 74 q 561 115 536 115 q 565 113 565 115 q 554 25 565 40 l 519 0 q 861 340 699 54 q 613 357 703 357 q 333 314 450 357 q 183 224 243 281 q 110 71 110 154 q 182 -61 110 -12 q 332 -100 247 -100 m 1194 -218 q 1139 -206 1164 -218 q 1111 -158 1114 -193 q 1133 -106 1111 -129 q 1179 -62 1156 -82 q 1231 -16 1215 -31 q 1251 3 1246 -1 q 1263 7 1257 7 q 1279 4 1276 7 q 1247 -46 1265 -26 q 1210 -82 1228 -65 q 1181 -120 1193 -100 q 1169 -156 1168 -140 q 1179 -178 1168 -169 q 1207 -186 1190 -186 q 1256 -178 1232 -186 q 1288 -171 1279 -171 q 1293 -175 1293 -171 q 1275 -196 1293 -186 q 1234 -212 1257 -206 q 1194 -218 1211 -218 z "},"Å":{"ha":1490,"x_min":35,"x_max":1554,"o":"m 315 -121 q 132 -75 214 -121 q 35 78 35 -18 q 72 182 35 131 q 513 369 181 332 q 575 374 542 372 q 646 376 608 376 q 744 373 688 376 q 874 363 801 369 q 895 404 885 383 q 915 444 906 425 q 895 499 914 476 q 844 519 876 521 q 901 568 853 568 q 940 506 949 568 q 1013 825 1010 683 q 926 842 978 832 q 807 864 875 851 q 692 881 743 875 q 606 888 642 888 q 315 768 397 888 q 283 671 283 721 q 347 553 283 597 q 482 517 403 517 q 556 528 519 517 q 624 561 592 539 q 696 686 696 613 q 649 764 696 735 q 558 793 610 793 q 444 744 461 793 l 440 725 q 432 710 438 718 q 431 715 431 711 q 474 788 431 761 q 513 803 492 799 q 558 808 535 808 q 660 776 619 808 q 708 686 708 742 q 635 550 708 603 q 482 500 564 500 q 324 550 389 500 q 254 697 254 604 q 283 801 254 751 q 574 933 363 933 q 661 926 610 933 q 779 904 713 919 l 1013 849 q 976 982 1011 925 q 972 1000 972 993 q 982 1011 972 1011 q 1010 985 996 1011 q 1042 843 1039 938 q 1133 826 1090 833 q 1210 817 1175 819 q 1303 915 1257 882 q 1410 958 1361 958 q 1486 899 1486 958 q 1283 799 1486 804 q 1194 418 1194 654 q 1195 382 1194 400 q 1197 346 1196 364 q 1433 447 1382 353 q 1444 476 1439 458 q 1456 521 1450 494 q 1464 529 1458 529 q 1472 518 1472 529 q 1457 457 1472 496 q 1200 315 1407 321 q 1260 117 1215 199 q 1424 6 1324 6 q 1508 53 1478 6 q 1546 144 1511 56 q 1551 149 1549 149 q 1554 140 1554 149 q 1514 35 1554 83 q 1415 -12 1471 -12 l 1407 -12 q 1399 -11 1403 -11 q 1365 -46 1369 -11 q 1353 -83 1360 -83 q 1339 -78 1346 -83 q 1133 315 1161 44 q 1048 321 1096 317 q 942 331 1000 325 q 494 -89 738 -8 q 315 -121 401 -121 m 1250 814 q 1282 854 1267 839 q 1299 865 1288 860 q 1328 876 1310 869 q 1359 888 1347 883 q 1378 892 1371 892 q 1379 890 1379 892 q 1378 890 1379 890 q 1376 889 1378 890 q 1334 858 1354 876 q 1297 815 1314 840 q 1436 890 1436 825 q 1385 932 1436 932 q 1313 904 1353 932 q 1228 815 1274 876 q 1239 815 1233 815 q 1250 814 1244 815 m 940 358 q 975 417 954 379 q 1026 508 996 454 q 1094 631 1051 558 q 1197 800 1138 703 q 1124 808 1163 803 q 1042 819 1086 813 q 1028 699 1040 764 q 989 565 1015 635 q 948 466 972 517 q 894 363 924 415 l 940 358 m 1131 346 q 1129 372 1129 358 q 1129 400 1129 386 q 1238 799 1129 636 q 1226 799 1232 799 q 1215 800 1221 799 q 1151 695 1194 769 q 1039 500 1107 621 q 994 417 1014 453 q 958 357 974 382 q 1054 349 1011 351 q 1131 346 1097 347 m 332 -100 q 492 -75 407 -100 q 925 332 725 0 l 881 338 q 483 -18 688 10 q 515 71 515 3 l 515 74 q 561 115 536 115 q 565 113 565 115 q 554 25 565 40 l 519 0 q 861 340 699 54 q 613 357 703 357 q 333 314 450 357 q 183 224 243 281 q 110 71 110 154 q 182 -61 110 -12 q 332 -100 247 -100 m 1214 1069 q 1174 1083 1190 1069 q 1157 1118 1157 1096 q 1165 1158 1157 1133 q 1186 1203 1174 1183 q 1210 1224 1199 1224 q 1247 1255 1225 1243 q 1293 1267 1269 1267 q 1337 1244 1321 1267 q 1353 1197 1353 1222 q 1331 1136 1351 1165 q 1280 1088 1311 1107 q 1214 1069 1249 1069 m 1232 1094 q 1276 1111 1257 1094 q 1306 1151 1294 1128 q 1317 1194 1317 1174 q 1312 1226 1317 1208 q 1288 1243 1307 1243 q 1265 1238 1275 1243 q 1243 1225 1254 1232 q 1249 1224 1244 1224 q 1253 1219 1253 1224 q 1247 1210 1253 1215 q 1224 1178 1238 1199 q 1210 1122 1211 1157 q 1215 1103 1210 1113 q 1232 1094 1219 1094 z "},"Ǻ":{"ha":1490,"x_min":35,"x_max":1554,"o":"m 315 -121 q 132 -75 214 -121 q 35 78 35 -18 q 72 182 35 131 q 513 369 181 332 q 575 374 542 372 q 646 376 608 376 q 744 373 688 376 q 874 363 801 369 q 895 404 885 383 q 915 444 906 425 q 895 499 914 476 q 844 519 876 521 q 901 568 853 568 q 940 506 949 568 q 1013 825 1010 683 q 926 842 978 832 q 807 864 875 851 q 692 881 743 875 q 606 888 642 888 q 315 768 397 888 q 283 671 283 721 q 347 553 283 597 q 482 517 403 517 q 556 528 519 517 q 624 561 592 539 q 696 686 696 613 q 649 764 696 735 q 558 793 610 793 q 444 744 461 793 l 440 725 q 432 710 438 718 q 431 715 431 711 q 474 788 431 761 q 513 803 492 799 q 558 808 535 808 q 660 776 619 808 q 708 686 708 742 q 635 550 708 603 q 482 500 564 500 q 324 550 389 500 q 254 697 254 604 q 283 801 254 751 q 574 933 363 933 q 661 926 610 933 q 779 904 713 919 l 1013 849 q 976 982 1011 925 q 972 1000 972 993 q 982 1011 972 1011 q 1010 985 996 1011 q 1042 843 1039 938 q 1133 826 1090 833 q 1210 817 1175 819 q 1303 915 1257 882 q 1410 958 1361 958 q 1486 899 1486 958 q 1283 799 1486 804 q 1194 418 1194 654 q 1195 382 1194 400 q 1197 346 1196 364 q 1433 447 1382 353 q 1444 476 1439 458 q 1456 521 1450 494 q 1464 529 1458 529 q 1472 518 1472 529 q 1457 457 1472 496 q 1200 315 1407 321 q 1260 117 1215 199 q 1424 6 1324 6 q 1508 53 1478 6 q 1546 144 1511 56 q 1551 149 1549 149 q 1554 140 1554 149 q 1514 35 1554 83 q 1415 -12 1471 -12 l 1407 -12 q 1399 -11 1403 -11 q 1365 -46 1369 -11 q 1353 -83 1360 -83 q 1339 -78 1346 -83 q 1133 315 1161 44 q 1048 321 1096 317 q 942 331 1000 325 q 494 -89 738 -8 q 315 -121 401 -121 m 1250 814 q 1282 854 1267 839 q 1299 865 1288 860 q 1328 876 1310 869 q 1359 888 1347 883 q 1378 892 1371 892 q 1379 890 1379 892 q 1378 890 1379 890 q 1376 889 1378 890 q 1334 858 1354 876 q 1297 815 1314 840 q 1436 890 1436 825 q 1385 932 1436 932 q 1313 904 1353 932 q 1228 815 1274 876 q 1239 815 1233 815 q 1250 814 1244 815 m 940 358 q 975 417 954 379 q 1026 508 996 454 q 1094 631 1051 558 q 1197 800 1138 703 q 1124 808 1163 803 q 1042 819 1086 813 q 1028 699 1040 764 q 989 565 1015 635 q 948 466 972 517 q 894 363 924 415 l 940 358 m 1131 346 q 1129 372 1129 358 q 1129 400 1129 386 q 1238 799 1129 636 q 1226 799 1232 799 q 1215 800 1221 799 q 1151 695 1194 769 q 1039 500 1107 621 q 994 417 1014 453 q 958 357 974 382 q 1054 349 1011 351 q 1131 346 1097 347 m 332 -100 q 492 -75 407 -100 q 925 332 725 0 l 881 338 q 483 -18 688 10 q 515 71 515 3 l 515 74 q 561 115 536 115 q 565 113 565 115 q 554 25 565 40 l 519 0 q 861 340 699 54 q 613 357 703 357 q 333 314 450 357 q 183 224 243 281 q 110 71 110 154 q 182 -61 110 -12 q 332 -100 247 -100 m 1221 1069 q 1185 1081 1201 1069 q 1169 1114 1169 1093 q 1176 1151 1169 1128 q 1193 1192 1183 1174 q 1213 1210 1203 1210 q 1247 1238 1226 1226 q 1286 1249 1267 1249 q 1327 1228 1314 1249 q 1340 1186 1340 1208 q 1323 1131 1340 1157 q 1279 1087 1306 1104 q 1221 1069 1253 1069 m 1236 1094 q 1286 1125 1267 1094 q 1307 1183 1306 1156 q 1302 1210 1307 1196 q 1282 1225 1297 1225 q 1263 1221 1272 1225 q 1244 1211 1254 1217 q 1249 1210 1246 1210 q 1253 1206 1253 1210 q 1249 1197 1253 1204 q 1229 1169 1240 1188 q 1217 1118 1218 1150 q 1236 1094 1217 1094 m 1349 1196 q 1334 1196 1343 1193 q 1326 1204 1325 1199 l 1331 1207 q 1369 1231 1347 1214 q 1414 1267 1392 1247 q 1452 1301 1436 1286 q 1472 1319 1468 1315 q 1494 1331 1483 1329 q 1518 1333 1504 1333 q 1535 1329 1528 1333 q 1540 1318 1543 1325 q 1532 1304 1539 1313 q 1496 1276 1525 1296 q 1473 1263 1494 1275 q 1424 1235 1451 1250 q 1375 1208 1397 1219 q 1349 1196 1353 1196 z "},"Ã":{"ha":1490,"x_min":35,"x_max":1554,"o":"m 315 -121 q 132 -75 214 -121 q 35 78 35 -18 q 72 182 35 131 q 513 369 181 332 q 575 374 542 372 q 646 376 608 376 q 744 373 688 376 q 874 363 801 369 q 895 404 885 383 q 915 444 906 425 q 895 499 914 476 q 844 519 876 521 q 901 568 853 568 q 940 506 949 568 q 1013 825 1010 683 q 926 842 978 832 q 807 864 875 851 q 692 881 743 875 q 606 888 642 888 q 315 768 397 888 q 283 671 283 721 q 347 553 283 597 q 482 517 403 517 q 556 528 519 517 q 624 561 592 539 q 696 686 696 613 q 649 764 696 735 q 558 793 610 793 q 444 744 461 793 l 440 725 q 432 710 438 718 q 431 715 431 711 q 474 788 431 761 q 513 803 492 799 q 558 808 535 808 q 660 776 619 808 q 708 686 708 742 q 635 550 708 603 q 482 500 564 500 q 324 550 389 500 q 254 697 254 604 q 283 801 254 751 q 574 933 363 933 q 661 926 610 933 q 779 904 713 919 l 1013 849 q 976 982 1011 925 q 972 1000 972 993 q 982 1011 972 1011 q 1010 985 996 1011 q 1042 843 1039 938 q 1133 826 1090 833 q 1210 817 1175 819 q 1303 915 1257 882 q 1410 958 1361 958 q 1486 899 1486 958 q 1283 799 1486 804 q 1194 418 1194 654 q 1195 382 1194 400 q 1197 346 1196 364 q 1433 447 1382 353 q 1444 476 1439 458 q 1456 521 1450 494 q 1464 529 1458 529 q 1472 518 1472 529 q 1457 457 1472 496 q 1200 315 1407 321 q 1260 117 1215 199 q 1424 6 1324 6 q 1508 53 1478 6 q 1546 144 1511 56 q 1551 149 1549 149 q 1554 140 1554 149 q 1514 35 1554 83 q 1415 -12 1471 -12 l 1407 -12 q 1399 -11 1403 -11 q 1365 -46 1369 -11 q 1353 -83 1360 -83 q 1339 -78 1346 -83 q 1133 315 1161 44 q 1048 321 1096 317 q 942 331 1000 325 q 494 -89 738 -8 q 315 -121 401 -121 m 1250 814 q 1282 854 1267 839 q 1299 865 1288 860 q 1328 876 1310 869 q 1359 888 1347 883 q 1378 892 1371 892 q 1379 890 1379 892 q 1378 890 1379 890 q 1376 889 1378 890 q 1334 858 1354 876 q 1297 815 1314 840 q 1436 890 1436 825 q 1385 932 1436 932 q 1313 904 1353 932 q 1228 815 1274 876 q 1239 815 1233 815 q 1250 814 1244 815 m 940 358 q 975 417 954 379 q 1026 508 996 454 q 1094 631 1051 558 q 1197 800 1138 703 q 1124 808 1163 803 q 1042 819 1086 813 q 1028 699 1040 764 q 989 565 1015 635 q 948 466 972 517 q 894 363 924 415 l 940 358 m 1131 346 q 1129 372 1129 358 q 1129 400 1129 386 q 1238 799 1129 636 q 1226 799 1232 799 q 1215 800 1221 799 q 1151 695 1194 769 q 1039 500 1107 621 q 994 417 1014 453 q 958 357 974 382 q 1054 349 1011 351 q 1131 346 1097 347 m 332 -100 q 492 -75 407 -100 q 925 332 725 0 l 881 338 q 483 -18 688 10 q 515 71 515 3 l 515 74 q 561 115 536 115 q 565 113 565 115 q 554 25 565 40 l 519 0 q 861 340 699 54 q 613 357 703 357 q 333 314 450 357 q 183 224 243 281 q 110 71 110 154 q 182 -61 110 -12 q 332 -100 247 -100 m 1267 1069 q 1224 1079 1246 1069 q 1180 1099 1201 1089 q 1140 1108 1158 1108 q 1097 1096 1115 1108 q 1071 1071 1078 1083 q 1063 1078 1060 1071 q 1101 1132 1074 1111 q 1158 1153 1128 1153 q 1203 1143 1181 1153 q 1247 1124 1225 1133 q 1286 1114 1268 1114 q 1330 1127 1310 1114 q 1354 1151 1350 1140 q 1367 1146 1367 1151 q 1326 1090 1354 1111 q 1267 1069 1299 1069 z "},"B":{"ha":1211,"x_min":24,"x_max":1181,"o":"m 188 -208 q 146 -194 165 -208 q 126 -156 126 -179 q 146 -119 126 -119 q 182 -146 149 -119 q 246 -174 213 -174 q 469 94 349 -174 l 457 113 l 450 96 q 447 92 450 94 q 442 101 443 92 q 443 108 443 104 l 450 124 q 396 318 396 210 q 415 353 396 333 q 439 379 435 369 q 447 414 443 388 q 456 425 450 424 q 457 374 457 425 q 463 284 457 326 q 479 201 469 242 q 526 369 514 294 q 517 354 524 364 q 500 344 511 344 q 496 349 496 344 q 507 369 496 354 q 529 397 518 383 q 531 427 531 413 q 532 457 532 442 q 530 513 532 485 q 522 571 528 542 q 463 697 506 646 q 340 754 411 757 l 336 754 q 382 703 382 750 q 363 658 382 678 q 296 721 346 721 q 285 720 290 721 q 274 718 279 719 l 274 719 q 346 776 271 776 q 476 717 417 776 q 546 586 531 664 q 556 489 556 543 q 551 419 556 456 q 574 440 563 431 q 597 458 586 450 q 757 846 682 710 q 524 863 649 863 q 72 710 72 863 q 228 563 72 625 l 231 560 q 217 554 231 556 q 94 617 165 554 q 24 735 24 679 q 242 893 24 856 q 383 910 310 904 q 533 917 456 917 q 665 912 603 917 q 788 897 728 907 q 1014 1063 896 1063 q 1135 981 1093 1063 q 1136 964 1136 978 q 1122 935 1136 935 q 1082 986 1121 935 q 990 1038 1043 1038 q 804 894 888 1038 q 888 877 849 888 q 961 856 926 867 q 1138 701 1138 793 q 876 531 1138 593 q 994 507 942 525 q 1086 460 1046 489 q 1181 269 1181 389 q 1100 72 1181 161 q 913 -35 1025 -10 q 799 -49 858 -49 q 497 65 611 -49 q 188 -208 368 -208 m 647 486 q 854 547 689 506 q 1068 692 1068 604 q 933 806 1068 754 q 776 843 865 829 q 720 703 753 792 q 647 486 688 614 m 769 -29 q 1000 60 907 -29 q 1094 286 1094 149 q 847 501 1094 501 q 640 461 736 501 q 572 254 601 342 q 518 111 542 167 q 769 -29 601 -29 m 496 157 l 497 161 q 528 245 504 176 q 590 435 551 314 q 569 420 579 428 q 549 403 558 413 q 526 300 542 356 q 486 182 511 244 q 491 170 489 176 q 496 157 493 164 z "},"C":{"ha":988,"x_min":35,"x_max":983,"o":"m 414 -131 q 408 -125 408 -131 q 413 -40 408 -86 q 143 93 246 -14 q 63 222 90 150 q 35 383 35 294 q 115 663 35 531 q 209 779 156 729 q 328 864 263 829 q 618 929 454 929 q 692 926 654 929 q 768 915 729 922 q 925 1118 839 1025 l 931 1121 q 932 1118 932 1121 q 924 1099 932 1110 q 844 999 879 1046 q 785 911 810 951 q 925 869 853 896 q 943 896 933 883 q 963 921 953 908 q 976 932 971 932 q 983 925 983 932 q 982 921 982 924 q 926 795 947 869 q 896 626 906 721 q 876 596 894 613 q 843 579 858 579 q 835 615 835 579 q 883 797 835 696 q 840 830 872 813 q 756 865 808 847 q 600 547 669 721 q 628 531 611 531 q 576 481 638 531 q 518 303 544 394 q 505 214 515 264 q 483 104 494 164 l 475 63 q 456 28 468 33 q 452 4 454 17 q 449 -21 450 -8 q 497 -28 472 -26 q 546 -29 521 -29 q 856 171 761 -29 q 881 264 881 225 q 867 294 881 289 q 864 296 864 294 q 903 308 864 308 q 944 253 944 308 q 797 28 944 115 q 526 -50 671 -50 q 444 -46 485 -50 q 442 -72 443 -56 q 438 -107 440 -87 q 414 -131 433 -131 m 417 -12 q 446 147 425 61 q 497 328 467 232 l 497 360 q 472 526 497 451 q 296 675 415 675 q 282 674 289 675 q 268 672 275 674 q 321 621 321 672 q 308 586 321 599 q 247 635 288 635 q 215 628 233 635 q 214 639 214 631 q 297 696 214 696 q 418 649 361 696 q 492 544 469 606 q 521 394 519 478 q 537 442 528 418 q 556 488 546 465 q 543 526 543 504 q 558 561 543 539 q 586 585 574 583 l 589 572 q 658 727 625 656 q 729 853 692 799 l 742 871 q 567 904 650 904 q 239 761 365 904 q 111 419 111 624 q 194 146 111 265 q 417 -12 279 31 z "},"Ć":{"ha":988,"x_min":35,"x_max":983,"o":"m 414 -131 q 408 -125 408 -131 q 413 -40 408 -86 q 143 93 246 -14 q 63 222 90 150 q 35 383 35 294 q 115 663 35 531 q 209 779 156 729 q 328 864 263 829 q 618 929 454 929 q 692 926 654 929 q 768 915 729 922 q 925 1118 839 1025 l 931 1121 q 932 1118 932 1121 q 924 1099 932 1110 q 844 999 879 1046 q 785 911 810 951 q 925 869 853 896 q 943 896 933 883 q 963 921 953 908 q 976 932 971 932 q 983 925 983 932 q 982 921 982 924 q 926 795 947 869 q 896 626 906 721 q 876 596 894 613 q 843 579 858 579 q 835 615 835 579 q 883 797 835 696 q 840 830 872 813 q 756 865 808 847 q 600 547 669 721 q 628 531 611 531 q 576 481 638 531 q 518 303 544 394 q 505 214 515 264 q 483 104 494 164 l 475 63 q 456 28 468 33 q 452 4 454 17 q 449 -21 450 -8 q 497 -28 472 -26 q 546 -29 521 -29 q 856 171 761 -29 q 881 264 881 225 q 867 294 881 289 q 864 296 864 294 q 903 308 864 308 q 944 253 944 308 q 797 28 944 115 q 526 -50 671 -50 q 444 -46 485 -50 q 442 -72 443 -56 q 438 -107 440 -87 q 414 -131 433 -131 m 417 -12 q 446 147 425 61 q 497 328 467 232 l 497 360 q 472 526 497 451 q 296 675 415 675 q 282 674 289 675 q 268 672 275 674 q 321 621 321 672 q 308 586 321 599 q 247 635 288 635 q 215 628 233 635 q 214 639 214 631 q 297 696 214 696 q 418 649 361 696 q 492 544 469 606 q 521 394 519 478 q 537 442 528 418 q 556 488 546 465 q 543 526 543 504 q 558 561 543 539 q 586 585 574 583 l 589 572 q 658 727 625 656 q 729 853 692 799 l 742 871 q 567 904 650 904 q 239 761 365 904 q 111 419 111 624 q 194 146 111 265 q 417 -12 279 31 m 603 1069 q 591 1073 596 1069 q 596 1081 586 1076 q 642 1108 615 1089 q 697 1149 669 1126 q 745 1188 724 1171 q 776 1211 767 1206 q 794 1217 782 1215 q 818 1219 807 1219 q 843 1211 843 1219 q 833 1192 842 1204 q 789 1160 824 1181 q 760 1144 786 1158 q 702 1114 735 1131 q 643 1084 669 1097 q 613 1071 617 1071 q 603 1069 610 1069 z "},"Č":{"ha":988,"x_min":35,"x_max":983,"o":"m 414 -131 q 408 -125 408 -131 q 413 -40 408 -86 q 143 93 246 -14 q 63 222 90 150 q 35 383 35 294 q 115 663 35 531 q 209 779 156 729 q 328 864 263 829 q 618 929 454 929 q 692 926 654 929 q 768 915 729 922 q 925 1118 839 1025 l 931 1121 q 932 1118 932 1121 q 924 1099 932 1110 q 844 999 879 1046 q 785 911 810 951 q 925 869 853 896 q 943 896 933 883 q 963 921 953 908 q 976 932 971 932 q 983 925 983 932 q 982 921 982 924 q 926 795 947 869 q 896 626 906 721 q 876 596 894 613 q 843 579 858 579 q 835 615 835 579 q 883 797 835 696 q 840 830 872 813 q 756 865 808 847 q 600 547 669 721 q 628 531 611 531 q 576 481 638 531 q 518 303 544 394 q 505 214 515 264 q 483 104 494 164 l 475 63 q 456 28 468 33 q 452 4 454 17 q 449 -21 450 -8 q 497 -28 472 -26 q 546 -29 521 -29 q 856 171 761 -29 q 881 264 881 225 q 867 294 881 289 q 864 296 864 294 q 903 308 864 308 q 944 253 944 308 q 797 28 944 115 q 526 -50 671 -50 q 444 -46 485 -50 q 442 -72 443 -56 q 438 -107 440 -87 q 414 -131 433 -131 m 417 -12 q 446 147 425 61 q 497 328 467 232 l 497 360 q 472 526 497 451 q 296 675 415 675 q 282 674 289 675 q 268 672 275 674 q 321 621 321 672 q 308 586 321 599 q 247 635 288 635 q 215 628 233 635 q 214 639 214 631 q 297 696 214 696 q 418 649 361 696 q 492 544 469 606 q 521 394 519 478 q 537 442 528 418 q 556 488 546 465 q 543 526 543 504 q 558 561 543 539 q 586 585 574 583 l 589 572 q 658 727 625 656 q 729 853 692 799 l 742 871 q 567 904 650 904 q 239 761 365 904 q 111 419 111 624 q 194 146 111 265 q 417 -12 279 31 m 631 1069 q 613 1074 617 1069 q 598 1096 611 1075 q 568 1144 585 1117 q 537 1194 551 1172 q 518 1219 522 1217 q 515 1225 515 1221 q 523 1233 515 1231 q 535 1231 531 1235 q 554 1215 538 1231 q 592 1180 571 1200 q 628 1143 613 1160 q 646 1122 644 1126 q 678 1144 653 1128 q 735 1181 704 1161 q 789 1216 765 1201 q 817 1231 813 1231 q 824 1233 822 1233 q 831 1229 829 1233 q 825 1219 833 1225 q 790 1192 815 1214 q 734 1143 764 1169 q 681 1096 704 1117 q 653 1074 657 1075 q 631 1069 647 1069 z "},"Ç":{"ha":988,"x_min":35,"x_max":983,"o":"m 414 -131 q 408 -125 408 -131 q 413 -40 408 -86 q 143 93 246 -14 q 63 222 90 150 q 35 383 35 294 q 115 663 35 531 q 209 779 156 729 q 328 864 263 829 q 618 929 454 929 q 692 926 654 929 q 768 915 729 922 q 925 1118 839 1025 l 931 1121 q 932 1118 932 1121 q 924 1099 932 1110 q 844 999 879 1046 q 785 911 810 951 q 925 869 853 896 q 943 896 933 883 q 963 921 953 908 q 976 932 971 932 q 983 925 983 932 q 982 921 982 924 q 926 795 947 869 q 896 626 906 721 q 876 596 894 613 q 843 579 858 579 q 835 615 835 579 q 883 797 835 696 q 840 830 872 813 q 756 865 808 847 q 600 547 669 721 q 628 531 611 531 q 576 481 638 531 q 518 303 544 394 q 505 214 515 264 q 483 104 494 164 l 475 63 q 456 28 468 33 q 452 4 454 17 q 449 -21 450 -8 q 497 -28 472 -26 q 546 -29 521 -29 q 856 171 761 -29 q 881 264 881 225 q 867 294 881 289 q 864 296 864 294 q 903 308 864 308 q 944 253 944 308 q 797 28 944 115 q 526 -50 671 -50 q 444 -46 485 -50 q 442 -72 443 -56 q 438 -107 440 -87 q 414 -131 433 -131 m 417 -12 q 446 147 425 61 q 497 328 467 232 l 497 360 q 472 526 497 451 q 296 675 415 675 q 282 674 289 675 q 268 672 275 674 q 321 621 321 672 q 308 586 321 599 q 247 635 288 635 q 215 628 233 635 q 214 639 214 631 q 297 696 214 696 q 418 649 361 696 q 492 544 469 606 q 521 394 519 478 q 537 442 528 418 q 556 488 546 465 q 543 526 543 504 q 558 561 543 539 q 586 585 574 583 l 589 572 q 658 727 625 656 q 729 853 692 799 l 742 871 q 567 904 650 904 q 239 761 365 904 q 111 419 111 624 q 194 146 111 265 q 417 -12 279 31 m 208 -285 q 180 -281 186 -285 q 174 -274 174 -278 q 215 -261 174 -268 q 259 -253 235 -258 q 301 -235 283 -249 q 318 -192 318 -221 q 302 -153 318 -169 q 270 -122 286 -137 q 254 -85 254 -106 q 259 -64 254 -75 q 275 -40 264 -53 q 329 -7 294 -18 l 333 -7 q 348 -9 340 -7 q 357 -14 356 -11 q 313 -44 333 -25 q 306 -56 308 -50 q 303 -68 303 -61 q 320 -103 303 -85 q 354 -141 338 -121 q 371 -187 371 -161 q 353 -232 371 -214 q 308 -262 335 -250 q 253 -279 281 -274 q 208 -285 226 -285 z "},"Ĉ":{"ha":988,"x_min":35,"x_max":983,"o":"m 414 -131 q 408 -125 408 -131 q 413 -40 408 -86 q 143 93 246 -14 q 63 222 90 150 q 35 383 35 294 q 115 663 35 531 q 209 779 156 729 q 328 864 263 829 q 618 929 454 929 q 692 926 654 929 q 768 915 729 922 q 925 1118 839 1025 l 931 1121 q 932 1118 932 1121 q 924 1099 932 1110 q 844 999 879 1046 q 785 911 810 951 q 925 869 853 896 q 943 896 933 883 q 963 921 953 908 q 976 932 971 932 q 983 925 983 932 q 982 921 982 924 q 926 795 947 869 q 896 626 906 721 q 876 596 894 613 q 843 579 858 579 q 835 615 835 579 q 883 797 835 696 q 840 830 872 813 q 756 865 808 847 q 600 547 669 721 q 628 531 611 531 q 576 481 638 531 q 518 303 544 394 q 505 214 515 264 q 483 104 494 164 l 475 63 q 456 28 468 33 q 452 4 454 17 q 449 -21 450 -8 q 497 -28 472 -26 q 546 -29 521 -29 q 856 171 761 -29 q 881 264 881 225 q 867 294 881 289 q 864 296 864 294 q 903 308 864 308 q 944 253 944 308 q 797 28 944 115 q 526 -50 671 -50 q 444 -46 485 -50 q 442 -72 443 -56 q 438 -107 440 -87 q 414 -131 433 -131 m 417 -12 q 446 147 425 61 q 497 328 467 232 l 497 360 q 472 526 497 451 q 296 675 415 675 q 282 674 289 675 q 268 672 275 674 q 321 621 321 672 q 308 586 321 599 q 247 635 288 635 q 215 628 233 635 q 214 639 214 631 q 297 696 214 696 q 418 649 361 696 q 492 544 469 606 q 521 394 519 478 q 537 442 528 418 q 556 488 546 465 q 543 526 543 504 q 558 561 543 539 q 586 585 574 583 l 589 572 q 658 727 625 656 q 729 853 692 799 l 742 871 q 567 904 650 904 q 239 761 365 904 q 111 419 111 624 q 194 146 111 265 q 417 -12 279 31 m 488 1069 q 479 1074 482 1069 q 483 1083 476 1078 q 519 1110 493 1088 q 575 1159 544 1132 q 628 1207 606 1186 q 656 1229 651 1228 q 679 1233 663 1233 q 696 1229 692 1233 q 712 1207 699 1228 q 742 1158 725 1186 q 774 1108 760 1131 q 790 1083 788 1086 q 794 1078 794 1082 q 787 1070 793 1072 q 775 1072 781 1068 q 757 1088 774 1072 q 719 1123 740 1103 q 683 1160 699 1143 q 664 1181 667 1176 q 633 1158 658 1175 q 576 1122 607 1142 q 522 1087 546 1101 q 494 1072 497 1072 q 488 1069 489 1069 z "},"Ċ":{"ha":988,"x_min":35,"x_max":983,"o":"m 414 -131 q 408 -125 408 -131 q 413 -40 408 -86 q 143 93 246 -14 q 63 222 90 150 q 35 383 35 294 q 115 663 35 531 q 209 779 156 729 q 328 864 263 829 q 618 929 454 929 q 692 926 654 929 q 768 915 729 922 q 925 1118 839 1025 l 931 1121 q 932 1118 932 1121 q 924 1099 932 1110 q 844 999 879 1046 q 785 911 810 951 q 925 869 853 896 q 943 896 933 883 q 963 921 953 908 q 976 932 971 932 q 983 925 983 932 q 982 921 982 924 q 926 795 947 869 q 896 626 906 721 q 876 596 894 613 q 843 579 858 579 q 835 615 835 579 q 883 797 835 696 q 840 830 872 813 q 756 865 808 847 q 600 547 669 721 q 628 531 611 531 q 576 481 638 531 q 518 303 544 394 q 505 214 515 264 q 483 104 494 164 l 475 63 q 456 28 468 33 q 452 4 454 17 q 449 -21 450 -8 q 497 -28 472 -26 q 546 -29 521 -29 q 856 171 761 -29 q 881 264 881 225 q 867 294 881 289 q 864 296 864 294 q 903 308 864 308 q 944 253 944 308 q 797 28 944 115 q 526 -50 671 -50 q 444 -46 485 -50 q 442 -72 443 -56 q 438 -107 440 -87 q 414 -131 433 -131 m 417 -12 q 446 147 425 61 q 497 328 467 232 l 497 360 q 472 526 497 451 q 296 675 415 675 q 282 674 289 675 q 268 672 275 674 q 321 621 321 672 q 308 586 321 599 q 247 635 288 635 q 215 628 233 635 q 214 639 214 631 q 297 696 214 696 q 418 649 361 696 q 492 544 469 606 q 521 394 519 478 q 537 442 528 418 q 556 488 546 465 q 543 526 543 504 q 558 561 543 539 q 586 585 574 583 l 589 572 q 658 727 625 656 q 729 853 692 799 l 742 871 q 567 904 650 904 q 239 761 365 904 q 111 419 111 624 q 194 146 111 265 q 417 -12 279 31 m 614 1068 q 597 1072 604 1068 q 588 1081 589 1075 q 586 1093 586 1085 q 603 1138 586 1119 q 640 1157 621 1157 q 675 1131 675 1157 q 661 1092 675 1117 q 640 1074 654 1079 q 614 1068 626 1068 z "},"D":{"ha":1263,"x_min":11,"x_max":1297,"o":"m 217 -160 q 192 -153 208 -160 q 169 -147 176 -147 q 164 -151 171 -147 l 158 -149 q 51 -57 86 -112 q 17 67 17 -1 q 60 171 17 131 q 168 211 104 211 q 382 143 253 211 l 411 128 q 453 267 433 190 q 434 250 444 258 q 413 231 424 242 q 383 279 383 247 q 394 309 383 292 q 418 328 406 326 q 456 281 431 283 q 531 751 531 585 q 526 838 531 799 q 363 819 438 832 q 228 786 288 806 q 61 640 61 732 q 215 493 61 556 q 218 490 215 493 q 203 486 218 486 q 85 544 158 486 q 11 663 11 606 q 226 842 11 781 q 365 872 292 861 q 518 889 438 883 q 396 1032 489 1032 l 376 1032 q 415 972 415 1015 q 389 919 415 932 q 307 997 376 999 q 394 1047 329 1047 q 544 890 508 1047 q 581 892 563 892 q 617 892 599 892 q 772 883 697 892 q 992 1013 881 1013 q 1060 988 1025 1013 q 1094 933 1094 967 q 1082 908 1094 908 q 1046 949 1078 908 q 969 990 1017 990 q 885 961 925 990 q 811 878 844 932 q 1297 438 1297 807 q 1146 111 1297 249 q 807 -28 994 -28 q 518 29 674 -28 q 388 -85 460 -44 q 229 -125 315 -125 l 225 -125 q 174 -83 174 -125 q 193 -50 174 -50 q 229 -75 196 -50 q 294 -100 263 -100 q 456 54 376 -100 l 406 75 l 390 40 q 382 31 386 31 q 376 40 376 31 q 392 81 376 42 q 277 121 329 104 q 181 146 225 138 q 152 150 165 149 q 128 151 139 151 q 26 65 26 151 q 147 -119 26 -40 q 178 -137 161 -129 q 215 -154 194 -144 q 221 -158 219 -154 q 217 -160 221 -160 m 474 94 q 543 280 510 172 q 607 522 576 388 q 662 693 629 614 q 738 836 694 772 q 679 840 708 839 q 619 842 650 842 q 589 841 606 842 q 553 839 572 840 q 558 790 556 817 q 560 736 560 764 q 538 521 560 614 q 481 297 510 397 q 422 122 453 197 l 474 94 m 807 -11 q 1108 114 986 -11 q 1233 417 1233 238 q 786 831 1233 768 q 732 694 760 775 q 678 508 704 614 l 604 206 q 578 131 594 167 q 540 64 563 96 q 807 -11 706 -11 z "},"Ǆ":{"ha":2442,"x_min":11,"x_max":2556,"o":"m 217 -160 q 192 -153 208 -160 q 169 -147 176 -147 q 164 -151 171 -147 l 158 -149 q 51 -57 86 -112 q 17 67 17 -1 q 60 171 17 131 q 168 211 104 211 q 382 143 253 211 l 411 128 q 453 267 433 190 q 434 250 444 258 q 413 231 424 242 q 383 279 383 247 q 394 309 383 292 q 418 328 406 326 q 456 281 431 283 q 531 751 531 585 q 526 838 531 799 q 363 819 438 832 q 228 786 288 806 q 61 640 61 732 q 215 493 61 556 q 218 490 215 493 q 203 486 218 486 q 85 544 158 486 q 11 663 11 606 q 226 842 11 781 q 365 872 292 861 q 518 889 438 883 q 396 1032 489 1032 l 376 1032 q 415 972 415 1015 q 389 919 415 932 q 307 997 376 999 q 394 1047 329 1047 q 544 890 508 1047 q 581 892 563 892 q 617 892 599 892 q 772 883 697 892 q 992 1013 881 1013 q 1060 988 1025 1013 q 1094 933 1094 967 q 1082 908 1094 908 q 1046 949 1078 908 q 969 990 1017 990 q 885 961 925 990 q 811 878 844 932 q 1297 438 1297 807 q 1146 111 1297 249 q 807 -28 994 -28 q 518 29 674 -28 q 388 -85 460 -44 q 229 -125 315 -125 l 225 -125 q 174 -83 174 -125 q 193 -50 174 -50 q 229 -75 196 -50 q 294 -100 263 -100 q 456 54 376 -100 l 406 75 l 390 40 q 382 31 386 31 q 376 40 376 31 q 392 81 376 42 q 277 121 329 104 q 181 146 225 138 q 152 150 165 149 q 128 151 139 151 q 26 65 26 151 q 147 -119 26 -40 q 178 -137 161 -129 q 215 -154 194 -144 q 221 -158 219 -154 q 217 -160 221 -160 m 474 94 q 543 280 510 172 q 607 522 576 388 q 662 693 629 614 q 738 836 694 772 q 679 840 708 839 q 619 842 650 842 q 589 841 606 842 q 553 839 572 840 q 558 790 556 817 q 560 736 560 764 q 538 521 560 614 q 481 297 510 397 q 422 122 453 197 l 474 94 m 807 -11 q 1108 114 986 -11 q 1233 417 1233 238 q 786 831 1233 768 q 732 694 760 775 q 678 508 704 614 l 604 206 q 578 131 594 167 q 540 64 563 96 q 807 -11 706 -11 m 1406 -140 q 1322 -85 1364 -140 q 1285 10 1285 -37 q 1301 76 1285 46 q 1547 196 1375 196 q 1588 194 1567 196 q 1628 190 1608 193 q 1710 296 1668 239 q 1796 417 1751 353 l 1772 403 q 1757 438 1757 417 q 1758 451 1757 446 q 1778 481 1761 464 q 1807 497 1796 499 q 1821 451 1808 464 q 1859 506 1842 481 q 1890 554 1876 532 q 1956 665 1922 603 q 2029 804 1990 728 q 1835 851 1913 836 q 1721 865 1758 865 q 1656 861 1688 865 q 1604 844 1629 856 q 1558 818 1579 833 q 1511 742 1508 786 q 1529 744 1513 740 q 1566 752 1546 747 q 1594 758 1586 757 q 1640 769 1618 765 q 1682 774 1663 772 q 1781 742 1782 757 q 1736 746 1758 746 q 1681 740 1710 746 q 1621 721 1651 735 l 1539 685 q 1492 714 1492 701 q 1496 728 1492 722 l 1493 753 q 1567 874 1500 829 q 1638 908 1599 896 q 1722 919 1676 919 q 2058 858 1818 919 q 2106 960 2086 914 q 2140 1042 2126 1006 q 2168 1060 2146 1060 q 2172 1051 2175 1060 q 2082 853 2163 1003 q 2138 840 2113 846 q 2186 829 2164 833 q 2433 964 2319 964 q 2506 906 2506 964 q 2471 835 2506 869 q 2426 802 2453 815 q 2365 779 2399 789 q 2284 766 2326 769 q 2197 765 2242 763 q 2108 649 2175 739 q 1935 407 2042 560 q 1743 153 1879 324 l 1754 147 q 2076 16 1935 57 q 2315 -25 2217 -25 q 2432 51 2432 -25 q 2410 107 2432 78 q 2389 136 2389 139 q 2394 140 2389 140 q 2433 97 2417 140 q 2442 69 2440 83 q 2444 42 2444 54 q 2264 -72 2444 -72 q 2046 -35 2175 -72 q 1749 76 1917 1 q 1722 88 1735 83 q 1694 99 1708 93 q 1408 -67 1536 -67 q 1360 -57 1360 -67 q 1369 -50 1360 -50 q 1388 -51 1376 -50 q 1404 -53 1399 -53 q 1674 107 1526 -53 q 1638 119 1656 114 q 1604 129 1619 125 q 1426 -32 1468 -32 q 1417 -25 1417 -32 q 1425 -12 1417 -17 q 1583 135 1481 15 q 1525 145 1553 142 q 1469 149 1497 149 q 1299 24 1299 149 q 1346 -79 1299 -35 q 1458 -136 1393 -119 q 1464 -139 1461 -136 q 1461 -140 1464 -139 q 1451 -140 1458 -140 q 1432 -139 1444 -140 q 1414 -137 1419 -137 q 1408 -139 1410 -137 q 1406 -140 1407 -140 m 2278 819 q 2325 822 2300 819 q 2376 831 2350 825 q 2478 913 2478 849 q 2443 942 2478 942 q 2351 904 2408 942 q 2297 865 2322 885 q 2249 821 2271 844 q 2263 820 2256 821 q 2278 819 2271 819 m 1721 163 q 1797 264 1753 203 q 1892 408 1840 325 l 2000 585 q 2072 692 2036 644 q 2138 776 2107 739 q 2098 786 2119 781 q 2053 797 2076 792 q 1974 657 2010 719 q 1906 546 1938 594 q 1781 360 1846 450 q 1650 186 1717 271 q 1685 175 1668 181 q 1721 163 1703 169 m 2353 1153 q 2335 1157 2339 1153 q 2320 1179 2333 1158 q 2290 1228 2307 1200 q 2259 1278 2274 1256 q 2240 1303 2244 1300 q 2238 1308 2238 1304 q 2245 1316 2238 1314 q 2257 1314 2253 1318 q 2276 1299 2260 1314 q 2314 1263 2293 1283 q 2351 1226 2335 1243 q 2368 1206 2367 1210 q 2401 1228 2375 1211 q 2457 1265 2426 1244 q 2511 1299 2488 1285 q 2539 1314 2535 1314 q 2546 1317 2544 1317 q 2553 1313 2551 1317 q 2547 1303 2556 1308 q 2512 1275 2538 1297 q 2456 1226 2486 1253 q 2403 1179 2426 1200 q 2375 1157 2379 1158 q 2353 1153 2369 1153 z "},"Ď":{"ha":1263,"x_min":11,"x_max":1297,"o":"m 217 -160 q 192 -153 208 -160 q 169 -147 176 -147 q 164 -151 171 -147 l 158 -149 q 51 -57 86 -112 q 17 67 17 -1 q 60 171 17 131 q 168 211 104 211 q 382 143 253 211 l 411 128 q 453 267 433 190 q 434 250 444 258 q 413 231 424 242 q 383 279 383 247 q 394 309 383 292 q 418 328 406 326 q 456 281 431 283 q 531 751 531 585 q 526 838 531 799 q 363 819 438 832 q 228 786 288 806 q 61 640 61 732 q 215 493 61 556 q 218 490 215 493 q 203 486 218 486 q 85 544 158 486 q 11 663 11 606 q 226 842 11 781 q 365 872 292 861 q 518 889 438 883 q 396 1032 489 1032 l 376 1032 q 415 972 415 1015 q 389 919 415 932 q 307 997 376 999 q 394 1047 329 1047 q 544 890 508 1047 q 581 892 563 892 q 617 892 599 892 q 772 883 697 892 q 992 1013 881 1013 q 1060 988 1025 1013 q 1094 933 1094 967 q 1082 908 1094 908 q 1046 949 1078 908 q 969 990 1017 990 q 885 961 925 990 q 811 878 844 932 q 1297 438 1297 807 q 1146 111 1297 249 q 807 -28 994 -28 q 518 29 674 -28 q 388 -85 460 -44 q 229 -125 315 -125 l 225 -125 q 174 -83 174 -125 q 193 -50 174 -50 q 229 -75 196 -50 q 294 -100 263 -100 q 456 54 376 -100 l 406 75 l 390 40 q 382 31 386 31 q 376 40 376 31 q 392 81 376 42 q 277 121 329 104 q 181 146 225 138 q 152 150 165 149 q 128 151 139 151 q 26 65 26 151 q 147 -119 26 -40 q 178 -137 161 -129 q 215 -154 194 -144 q 221 -158 219 -154 q 217 -160 221 -160 m 474 94 q 543 280 510 172 q 607 522 576 388 q 662 693 629 614 q 738 836 694 772 q 679 840 708 839 q 619 842 650 842 q 589 841 606 842 q 553 839 572 840 q 558 790 556 817 q 560 736 560 764 q 538 521 560 614 q 481 297 510 397 q 422 122 453 197 l 474 94 m 807 -11 q 1108 114 986 -11 q 1233 417 1233 238 q 786 831 1233 768 q 732 694 760 775 q 678 508 704 614 l 604 206 q 578 131 594 167 q 540 64 563 96 q 807 -11 706 -11 m 701 1069 q 683 1074 688 1069 q 669 1096 682 1075 q 639 1144 656 1117 q 608 1194 622 1172 q 589 1219 593 1217 q 586 1225 586 1221 q 594 1233 586 1231 q 606 1231 601 1235 q 625 1215 608 1231 q 663 1180 642 1200 q 699 1143 683 1160 q 717 1122 715 1126 q 749 1144 724 1128 q 806 1181 775 1161 q 860 1216 836 1201 q 888 1231 883 1231 q 894 1233 893 1233 q 902 1229 900 1233 q 896 1219 904 1225 q 860 1192 886 1214 q 805 1143 835 1169 q 751 1096 775 1117 q 724 1074 728 1075 q 701 1069 718 1069 z "},"Đ":{"ha":1263,"x_min":11,"x_max":1297,"o":"m 217 -160 q 192 -153 208 -160 q 169 -147 176 -147 q 164 -151 171 -147 l 158 -149 q 17 67 17 -69 q 60 171 17 131 q 168 211 104 211 q 382 143 256 211 l 411 128 q 450 253 429 179 q 378 251 403 251 q 350 249 354 250 l 353 249 q 350 249 349 249 q 324 261 339 250 q 307 279 308 272 l 311 282 q 460 289 389 288 q 494 444 478 363 q 521 606 511 526 q 531 751 531 686 q 526 838 531 799 q 363 819 438 832 q 228 786 288 806 q 61 640 61 732 q 215 493 61 556 q 218 490 215 493 q 203 486 218 486 q 85 544 158 486 q 11 663 11 606 q 226 842 11 781 q 365 872 292 861 q 518 889 438 883 q 396 1032 489 1032 l 376 1032 q 415 972 415 1015 q 389 919 415 932 q 307 997 376 999 q 394 1047 329 1047 q 544 890 508 1047 q 581 892 563 892 q 617 892 599 892 q 772 883 697 892 q 992 1013 881 1013 q 1060 988 1025 1013 q 1094 933 1094 967 q 1082 908 1094 908 q 1046 949 1078 908 q 969 990 1017 990 q 885 961 925 990 q 811 878 844 932 q 1297 438 1297 807 q 1146 111 1297 249 q 807 -28 994 -28 q 518 29 674 -28 q 229 -125 401 -119 l 225 -125 q 174 -83 174 -128 q 193 -50 174 -50 q 229 -75 196 -50 q 294 -100 263 -100 q 456 54 376 -100 l 406 75 l 390 40 q 382 31 386 31 q 376 40 376 31 q 392 81 376 42 q 277 121 329 104 q 181 146 225 138 q 152 150 165 149 q 128 151 139 151 q 26 65 26 151 q 147 -119 26 -40 q 178 -137 161 -129 q 215 -154 194 -144 q 221 -158 219 -154 q 217 -160 221 -160 m 538 506 q 510 391 524 444 q 481 290 496 338 q 519 290 500 290 q 546 290 533 290 q 576 400 561 342 q 607 522 592 458 q 662 693 629 614 q 738 836 694 772 q 679 840 708 839 q 619 842 650 842 q 589 841 606 842 q 553 839 572 840 q 558 790 556 817 q 560 736 560 764 q 554 615 560 676 q 538 506 549 554 m 807 -11 q 1108 114 986 -11 q 1233 417 1233 238 q 786 831 1233 768 q 732 694 760 775 q 678 508 704 614 l 624 288 q 746 275 700 285 q 753 269 753 274 q 740 263 753 263 q 618 261 683 263 l 604 206 q 578 131 593 167 q 540 64 563 96 q 807 -11 706 -11 m 474 94 q 536 257 506 163 q 474 254 506 256 l 469 254 q 447 185 458 218 q 422 122 435 153 l 474 94 z "},"∆":{"ha":1010,"x_min":131,"x_max":858,"o":"m 158 -8 q 140 10 149 -8 q 131 43 131 29 q 136 58 131 53 l 488 774 l 489 775 q 513 812 496 794 q 540 829 531 829 q 549 825 547 829 l 854 113 q 858 103 858 111 q 835 38 858 67 q 788 -8 811 8 l 158 -8 m 189 65 l 771 65 l 503 701 l 189 65 z "},"ǅ":{"ha":1699,"x_min":11,"x_max":1785,"o":"m 217 -160 q 192 -153 208 -160 q 169 -147 176 -147 q 164 -151 171 -147 l 158 -149 q 51 -57 86 -112 q 17 67 17 -1 q 60 171 17 131 q 168 211 104 211 q 382 143 253 211 l 411 128 q 453 267 433 190 q 434 250 444 258 q 413 231 424 242 q 383 279 383 247 q 394 309 383 292 q 418 328 406 326 q 456 281 431 283 q 531 751 531 585 q 526 838 531 799 q 363 819 438 832 q 228 786 288 806 q 61 640 61 732 q 215 493 61 556 q 218 490 215 493 q 203 486 218 486 q 85 544 158 486 q 11 663 11 606 q 226 842 11 781 q 365 872 292 861 q 518 889 438 883 q 396 1032 489 1032 l 376 1032 q 415 972 415 1015 q 389 919 415 932 q 307 997 376 999 q 394 1047 329 1047 q 544 890 508 1047 q 581 892 563 892 q 617 892 599 892 q 772 883 697 892 q 992 1013 881 1013 q 1060 988 1025 1013 q 1094 933 1094 967 q 1082 908 1094 908 q 1046 949 1078 908 q 969 990 1017 990 q 885 961 925 990 q 811 878 844 932 q 1297 438 1297 807 q 1146 111 1297 249 q 807 -28 994 -28 q 518 29 674 -28 q 388 -85 460 -44 q 229 -125 315 -125 l 225 -125 q 174 -83 174 -125 q 193 -50 174 -50 q 229 -75 196 -50 q 294 -100 263 -100 q 456 54 376 -100 l 406 75 l 390 40 q 382 31 386 31 q 376 40 376 31 q 392 81 376 42 q 277 121 329 104 q 181 146 225 138 q 152 150 165 149 q 128 151 139 151 q 26 65 26 151 q 147 -119 26 -40 q 178 -137 161 -129 q 215 -154 194 -144 q 221 -158 219 -154 q 217 -160 221 -160 m 474 94 q 543 280 510 172 q 607 522 576 388 q 662 693 629 614 q 738 836 694 772 q 679 840 708 839 q 619 842 650 842 q 589 841 606 842 q 553 839 572 840 q 558 790 556 817 q 560 736 560 764 q 538 521 560 614 q 481 297 510 397 q 422 122 453 197 l 474 94 m 807 -11 q 1108 114 986 -11 q 1233 417 1233 238 q 786 831 1233 768 q 732 694 760 775 q 678 508 704 614 l 604 206 q 578 131 594 167 q 540 64 563 96 q 807 -11 706 -11 m 1297 -564 q 1187 -523 1229 -564 q 1144 -414 1144 -482 q 1184 -281 1144 -343 q 1289 -170 1224 -218 q 1434 -95 1354 -122 q 1593 -68 1514 -68 q 1633 -71 1615 -68 q 1668 -79 1651 -74 l 1668 -72 q 1628 38 1668 -11 q 1529 88 1592 88 q 1494 75 1522 88 q 1460 61 1468 61 q 1439 81 1439 61 q 1457 102 1439 85 q 1514 146 1475 119 q 1589 253 1589 204 q 1528 310 1589 310 q 1457 281 1493 310 q 1386 210 1421 253 q 1318 124 1351 168 q 1308 119 1314 119 q 1303 126 1303 119 q 1313 147 1303 135 q 1388 246 1353 203 q 1460 314 1422 289 q 1546 339 1499 339 q 1625 313 1600 339 q 1650 247 1650 288 q 1633 187 1650 214 q 1593 141 1615 160 q 1557 114 1571 122 q 1676 45 1635 100 q 1718 -92 1718 -10 q 1785 -140 1785 -126 q 1779 -146 1785 -146 q 1746 -133 1761 -139 q 1719 -121 1731 -126 q 1683 -274 1719 -196 q 1585 -417 1646 -351 q 1449 -524 1524 -483 q 1297 -564 1374 -564 m 1307 -539 q 1426 -501 1367 -539 q 1538 -403 1486 -462 q 1621 -282 1589 -344 q 1669 -107 1665 -186 q 1583 -90 1635 -90 q 1453 -115 1521 -90 q 1325 -184 1385 -140 q 1228 -287 1265 -228 q 1192 -412 1192 -346 q 1222 -502 1192 -465 q 1307 -539 1253 -539 m 1721 565 q 1731 560 1728 565 q 1728 550 1733 554 q 1697 524 1719 544 q 1648 481 1674 504 q 1602 440 1622 457 q 1578 419 1582 422 q 1572 417 1576 418 q 1558 415 1568 415 q 1544 419 1549 415 q 1532 440 1543 421 q 1506 484 1521 460 q 1481 528 1492 508 q 1469 550 1471 549 q 1467 558 1467 556 q 1476 565 1467 565 q 1494 554 1483 565 q 1532 515 1506 543 q 1572 469 1558 488 q 1596 487 1578 474 q 1637 515 1614 500 q 1681 544 1660 531 q 1713 563 1703 557 q 1721 565 1718 565 z "},"E":{"ha":1038,"x_min":3,"x_max":1058,"o":"m 88 -226 q 27 -202 51 -226 q 3 -142 3 -178 q 28 -67 3 -104 q 218 75 97 36 q 281 315 281 228 q 208 407 281 407 q 200 407 204 407 q 192 406 196 407 q 211 371 211 394 q 167 301 211 322 q 169 313 168 307 q 169 324 169 318 q 115 374 169 376 q 211 421 150 421 q 300 318 300 421 q 298 283 300 303 q 290 243 296 264 q 312 317 301 275 q 333 413 322 358 l 344 464 l 338 464 q 139 411 217 464 l 136 415 l 185 454 q 354 507 242 501 q 398 692 376 613 q 438 825 419 771 q 381 833 408 831 q 326 836 354 836 q 200 817 263 836 q 121 739 121 792 q 136 694 121 718 q 147 676 143 682 q 150 668 150 669 q 81 621 150 647 q 63 665 63 639 q 169 826 63 749 q 361 906 278 906 q 467 892 406 906 q 517 964 489 940 q 531 975 522 969 q 550 990 539 981 q 521 940 536 967 q 492 886 506 914 q 694 845 607 860 q 840 831 782 831 q 1001 881 964 831 q 1022 899 1015 899 q 1026 894 1026 899 q 1022 882 1026 890 q 797 764 953 764 q 564 797 706 764 q 489 501 525 718 q 681 478 614 486 q 756 471 747 471 q 896 501 840 471 q 901 497 901 501 q 839 443 901 472 q 733 421 794 421 q 644 428 707 421 q 481 451 582 436 q 369 154 440 217 l 300 92 q 322 94 311 93 q 344 94 333 94 q 435 83 390 94 q 657 31 558 49 q 828 14 756 14 q 1019 72 969 14 q 1049 147 1049 106 q 1036 187 1049 171 q 1024 204 1024 203 q 1032 214 1024 214 q 1058 157 1058 214 q 1029 69 1058 111 q 756 -39 950 -39 q 628 -25 714 -39 q 415 17 543 -11 q 348 27 381 24 q 285 31 315 31 q 214 26 250 31 q 188 -28 200 -3 q 163 -75 176 -53 q 139 -103 146 -103 l 139 -101 q 150 -72 139 -93 q 174 -26 161 -49 q 196 24 186 -3 q 66 -37 115 7 q 17 -131 17 -82 q 118 -208 17 -208 q 133 -208 125 -208 q 142 -208 142 -207 q 101 -219 142 -211 q 94 -224 97 -221 q 88 -226 92 -226 m 431 507 l 431 508 q 447 619 431 561 q 479 740 464 676 q 506 772 490 756 q 538 803 521 788 l 464 819 q 419 686 442 764 q 374 508 397 608 l 386 508 q 407 508 396 508 q 431 507 418 508 m 240 82 l 286 90 q 364 249 331 157 q 421 458 397 342 q 364 463 392 463 l 332 324 q 301 235 322 285 q 256 122 279 186 l 240 82 z "},"É":{"ha":1038,"x_min":3,"x_max":1058,"o":"m 88 -226 q 27 -202 51 -226 q 3 -142 3 -178 q 28 -67 3 -104 q 218 75 97 36 q 281 315 281 228 q 208 407 281 407 q 200 407 204 407 q 192 406 196 407 q 211 371 211 394 q 167 301 211 322 q 169 313 168 307 q 169 324 169 318 q 115 374 169 376 q 211 421 150 421 q 300 318 300 421 q 298 283 300 303 q 290 243 296 264 q 312 317 301 275 q 333 413 322 358 l 344 464 l 338 464 q 139 411 217 464 l 136 415 l 185 454 q 354 507 242 501 q 398 692 376 613 q 438 825 419 771 q 381 833 408 831 q 326 836 354 836 q 200 817 263 836 q 121 739 121 792 q 136 694 121 718 q 147 676 143 682 q 150 668 150 669 q 81 621 150 647 q 63 665 63 639 q 169 826 63 749 q 361 906 278 906 q 467 892 406 906 q 517 964 489 940 q 531 975 522 969 q 550 990 539 981 q 521 940 536 967 q 492 886 506 914 q 694 845 607 860 q 840 831 782 831 q 1001 881 964 831 q 1022 899 1015 899 q 1026 894 1026 899 q 1022 882 1026 890 q 797 764 953 764 q 564 797 706 764 q 489 501 525 718 q 681 478 614 486 q 756 471 747 471 q 896 501 840 471 q 901 497 901 501 q 839 443 901 472 q 733 421 794 421 q 644 428 707 421 q 481 451 582 436 q 369 154 440 217 l 300 92 q 322 94 311 93 q 344 94 333 94 q 435 83 390 94 q 657 31 558 49 q 828 14 756 14 q 1019 72 969 14 q 1049 147 1049 106 q 1036 187 1049 171 q 1024 204 1024 203 q 1032 214 1024 214 q 1058 157 1058 214 q 1029 69 1058 111 q 756 -39 950 -39 q 628 -25 714 -39 q 415 17 543 -11 q 348 27 381 24 q 285 31 315 31 q 214 26 250 31 q 188 -28 200 -3 q 163 -75 176 -53 q 139 -103 146 -103 l 139 -101 q 150 -72 139 -93 q 174 -26 161 -49 q 196 24 186 -3 q 66 -37 115 7 q 17 -131 17 -82 q 118 -208 17 -208 q 133 -208 125 -208 q 142 -208 142 -207 q 101 -219 142 -211 q 94 -224 97 -221 q 88 -226 92 -226 m 431 507 l 431 508 q 447 619 431 561 q 479 740 464 676 q 506 772 490 756 q 538 803 521 788 l 464 819 q 419 686 442 764 q 374 508 397 608 l 386 508 q 407 508 396 508 q 431 507 418 508 m 240 82 l 286 90 q 364 249 331 157 q 421 458 397 342 q 364 463 392 463 l 332 324 q 301 235 322 285 q 256 122 279 186 l 240 82 m 617 1042 q 605 1045 610 1042 q 610 1053 600 1049 q 656 1080 629 1061 q 710 1121 683 1099 q 759 1160 738 1143 q 790 1183 781 1178 q 808 1190 796 1188 q 832 1192 821 1192 q 857 1183 857 1192 q 847 1165 856 1176 q 803 1132 838 1153 q 774 1117 800 1131 q 716 1086 749 1103 q 657 1056 683 1069 q 626 1043 631 1043 q 617 1042 624 1042 z "},"Ĕ":{"ha":1038,"x_min":3,"x_max":1058,"o":"m 88 -226 q 27 -202 51 -226 q 3 -142 3 -178 q 28 -67 3 -104 q 218 75 97 36 q 281 315 281 228 q 208 407 281 407 q 200 407 204 407 q 192 406 196 407 q 211 371 211 394 q 167 301 211 322 q 169 313 168 307 q 169 324 169 318 q 115 374 169 376 q 211 421 150 421 q 300 318 300 421 q 298 283 300 303 q 290 243 296 264 q 312 317 301 275 q 333 413 322 358 l 344 464 l 338 464 q 139 411 217 464 l 136 415 l 185 454 q 354 507 242 501 q 398 692 376 613 q 438 825 419 771 q 381 833 408 831 q 326 836 354 836 q 200 817 263 836 q 121 739 121 792 q 136 694 121 718 q 147 676 143 682 q 150 668 150 669 q 81 621 150 647 q 63 665 63 639 q 169 826 63 749 q 361 906 278 906 q 467 892 406 906 q 517 964 489 940 q 531 975 522 969 q 550 990 539 981 q 521 940 536 967 q 492 886 506 914 q 694 845 607 860 q 840 831 782 831 q 1001 881 964 831 q 1022 899 1015 899 q 1026 894 1026 899 q 1022 882 1026 890 q 797 764 953 764 q 564 797 706 764 q 489 501 525 718 q 681 478 614 486 q 756 471 747 471 q 896 501 840 471 q 901 497 901 501 q 839 443 901 472 q 733 421 794 421 q 644 428 707 421 q 481 451 582 436 q 369 154 440 217 l 300 92 q 322 94 311 93 q 344 94 333 94 q 435 83 390 94 q 657 31 558 49 q 828 14 756 14 q 1019 72 969 14 q 1049 147 1049 106 q 1036 187 1049 171 q 1024 204 1024 203 q 1032 214 1024 214 q 1058 157 1058 214 q 1029 69 1058 111 q 756 -39 950 -39 q 628 -25 714 -39 q 415 17 543 -11 q 348 27 381 24 q 285 31 315 31 q 214 26 250 31 q 188 -28 200 -3 q 163 -75 176 -53 q 139 -103 146 -103 l 139 -101 q 150 -72 139 -93 q 174 -26 161 -49 q 196 24 186 -3 q 66 -37 115 7 q 17 -131 17 -82 q 118 -208 17 -208 q 133 -208 125 -208 q 142 -208 142 -207 q 101 -219 142 -211 q 94 -224 97 -221 q 88 -226 92 -226 m 431 507 l 431 508 q 447 619 431 561 q 479 740 464 676 q 506 772 490 756 q 538 803 521 788 l 464 819 q 419 686 442 764 q 374 508 397 608 l 386 508 q 407 508 396 508 q 431 507 418 508 m 240 82 l 286 90 q 364 249 331 157 q 421 458 397 342 q 364 463 392 463 l 332 324 q 301 235 322 285 q 256 122 279 186 l 240 82 m 644 1042 q 539 1129 539 1042 q 540 1147 539 1138 q 542 1167 540 1157 q 563 1185 549 1185 q 572 1172 572 1185 q 593 1108 571 1126 q 646 1089 615 1089 q 748 1117 700 1089 q 822 1176 796 1146 q 836 1183 832 1183 q 846 1172 846 1183 q 842 1158 846 1165 q 780 1088 818 1114 q 704 1052 742 1063 q 644 1042 667 1042 z "},"Ě":{"ha":1038,"x_min":3,"x_max":1058,"o":"m 88 -226 q 27 -202 51 -226 q 3 -142 3 -178 q 28 -67 3 -104 q 218 75 97 36 q 281 315 281 228 q 208 407 281 407 q 200 407 204 407 q 192 406 196 407 q 211 371 211 394 q 167 301 211 322 q 169 313 168 307 q 169 324 169 318 q 115 374 169 376 q 211 421 150 421 q 300 318 300 421 q 298 283 300 303 q 290 243 296 264 q 312 317 301 275 q 333 413 322 358 l 344 464 l 338 464 q 139 411 217 464 l 136 415 l 185 454 q 354 507 242 501 q 398 692 376 613 q 438 825 419 771 q 381 833 408 831 q 326 836 354 836 q 200 817 263 836 q 121 739 121 792 q 136 694 121 718 q 147 676 143 682 q 150 668 150 669 q 81 621 150 647 q 63 665 63 639 q 169 826 63 749 q 361 906 278 906 q 467 892 406 906 q 517 964 489 940 q 531 975 522 969 q 550 990 539 981 q 521 940 536 967 q 492 886 506 914 q 694 845 607 860 q 840 831 782 831 q 1001 881 964 831 q 1022 899 1015 899 q 1026 894 1026 899 q 1022 882 1026 890 q 797 764 953 764 q 564 797 706 764 q 489 501 525 718 q 681 478 614 486 q 756 471 747 471 q 896 501 840 471 q 901 497 901 501 q 839 443 901 472 q 733 421 794 421 q 644 428 707 421 q 481 451 582 436 q 369 154 440 217 l 300 92 q 322 94 311 93 q 344 94 333 94 q 435 83 390 94 q 657 31 558 49 q 828 14 756 14 q 1019 72 969 14 q 1049 147 1049 106 q 1036 187 1049 171 q 1024 204 1024 203 q 1032 214 1024 214 q 1058 157 1058 214 q 1029 69 1058 111 q 756 -39 950 -39 q 628 -25 714 -39 q 415 17 543 -11 q 348 27 381 24 q 285 31 315 31 q 214 26 250 31 q 188 -28 200 -3 q 163 -75 176 -53 q 139 -103 146 -103 l 139 -101 q 150 -72 139 -93 q 174 -26 161 -49 q 196 24 186 -3 q 66 -37 115 7 q 17 -131 17 -82 q 118 -208 17 -208 q 133 -208 125 -208 q 142 -208 142 -207 q 101 -219 142 -211 q 94 -224 97 -221 q 88 -226 92 -226 m 431 507 l 431 508 q 447 619 431 561 q 479 740 464 676 q 506 772 490 756 q 538 803 521 788 l 464 819 q 419 686 442 764 q 374 508 397 608 l 386 508 q 407 508 396 508 q 431 507 418 508 m 240 82 l 286 90 q 364 249 331 157 q 421 458 397 342 q 364 463 392 463 l 332 324 q 301 235 322 285 q 256 122 279 186 l 240 82 m 644 1042 q 626 1046 631 1042 q 612 1068 625 1047 q 582 1117 599 1089 q 551 1167 565 1144 q 532 1192 536 1189 q 529 1197 529 1193 q 537 1205 529 1203 q 549 1203 544 1207 q 568 1188 551 1203 q 606 1152 585 1172 q 642 1115 626 1132 q 660 1094 658 1099 q 692 1117 667 1100 q 749 1153 718 1133 q 803 1188 779 1174 q 831 1203 826 1203 q 838 1206 836 1206 q 845 1201 843 1206 q 839 1192 847 1197 q 803 1164 829 1186 q 748 1115 778 1142 q 694 1068 718 1089 q 667 1046 671 1047 q 644 1042 661 1042 z "},"Ê":{"ha":1038,"x_min":3,"x_max":1058,"o":"m 88 -226 q 27 -202 51 -226 q 3 -142 3 -178 q 28 -67 3 -104 q 218 75 97 36 q 281 315 281 228 q 208 407 281 407 q 200 407 204 407 q 192 406 196 407 q 211 371 211 394 q 167 301 211 322 q 169 313 168 307 q 169 324 169 318 q 115 374 169 376 q 211 421 150 421 q 300 318 300 421 q 298 283 300 303 q 290 243 296 264 q 312 317 301 275 q 333 413 322 358 l 344 464 l 338 464 q 139 411 217 464 l 136 415 l 185 454 q 354 507 242 501 q 398 692 376 613 q 438 825 419 771 q 381 833 408 831 q 326 836 354 836 q 200 817 263 836 q 121 739 121 792 q 136 694 121 718 q 147 676 143 682 q 150 668 150 669 q 81 621 150 647 q 63 665 63 639 q 169 826 63 749 q 361 906 278 906 q 467 892 406 906 q 517 964 489 940 q 531 975 522 969 q 550 990 539 981 q 521 940 536 967 q 492 886 506 914 q 694 845 607 860 q 840 831 782 831 q 1001 881 964 831 q 1022 899 1015 899 q 1026 894 1026 899 q 1022 882 1026 890 q 797 764 953 764 q 564 797 706 764 q 489 501 525 718 q 681 478 614 486 q 756 471 747 471 q 896 501 840 471 q 901 497 901 501 q 839 443 901 472 q 733 421 794 421 q 644 428 707 421 q 481 451 582 436 q 369 154 440 217 l 300 92 q 322 94 311 93 q 344 94 333 94 q 435 83 390 94 q 657 31 558 49 q 828 14 756 14 q 1019 72 969 14 q 1049 147 1049 106 q 1036 187 1049 171 q 1024 204 1024 203 q 1032 214 1024 214 q 1058 157 1058 214 q 1029 69 1058 111 q 756 -39 950 -39 q 628 -25 714 -39 q 415 17 543 -11 q 348 27 381 24 q 285 31 315 31 q 214 26 250 31 q 188 -28 200 -3 q 163 -75 176 -53 q 139 -103 146 -103 l 139 -101 q 150 -72 139 -93 q 174 -26 161 -49 q 196 24 186 -3 q 66 -37 115 7 q 17 -131 17 -82 q 118 -208 17 -208 q 133 -208 125 -208 q 142 -208 142 -207 q 101 -219 142 -211 q 94 -224 97 -221 q 88 -226 92 -226 m 431 507 l 431 508 q 447 619 431 561 q 479 740 464 676 q 506 772 490 756 q 538 803 521 788 l 464 819 q 419 686 442 764 q 374 508 397 608 l 386 508 q 407 508 396 508 q 431 507 418 508 m 240 82 l 286 90 q 364 249 331 157 q 421 458 397 342 q 364 463 392 463 l 332 324 q 301 235 322 285 q 256 122 279 186 l 240 82 m 501 1042 q 493 1046 496 1042 q 497 1056 490 1050 q 533 1082 507 1060 q 589 1131 558 1104 q 642 1179 619 1158 q 669 1201 665 1200 q 693 1206 676 1206 q 710 1201 706 1206 q 726 1179 713 1200 q 756 1131 739 1158 q 788 1081 774 1103 q 804 1056 801 1058 q 808 1050 808 1054 q 801 1042 807 1044 q 789 1044 794 1040 q 771 1060 788 1044 q 733 1095 754 1075 q 697 1132 713 1115 q 678 1153 681 1149 q 647 1131 672 1147 q 590 1094 621 1114 q 535 1059 560 1074 q 508 1044 511 1044 q 501 1042 503 1042 z "},"Ế":{"ha":1038,"x_min":3,"x_max":1058,"o":"m 88 -226 q 27 -202 51 -226 q 3 -142 3 -178 q 28 -67 3 -104 q 218 75 97 36 q 281 315 281 228 q 208 407 281 407 q 200 407 204 407 q 192 406 196 407 q 211 371 211 394 q 167 301 211 322 q 169 313 168 307 q 169 324 169 318 q 115 374 169 376 q 211 421 150 421 q 300 318 300 421 q 298 283 300 303 q 290 243 296 264 q 312 317 301 275 q 333 413 322 358 l 344 464 l 338 464 q 139 411 217 464 l 136 415 l 185 454 q 354 507 242 501 q 398 692 376 613 q 438 825 419 771 q 381 833 408 831 q 326 836 354 836 q 200 817 263 836 q 121 739 121 792 q 136 694 121 718 q 147 676 143 682 q 150 668 150 669 q 81 621 150 647 q 63 665 63 639 q 169 826 63 749 q 361 906 278 906 q 467 892 406 906 q 517 964 489 940 q 531 975 522 969 q 550 990 539 981 q 521 940 536 967 q 492 886 506 914 q 694 845 607 860 q 840 831 782 831 q 1001 881 964 831 q 1022 899 1015 899 q 1026 894 1026 899 q 1022 882 1026 890 q 797 764 953 764 q 564 797 706 764 q 489 501 525 718 q 681 478 614 486 q 756 471 747 471 q 896 501 840 471 q 901 497 901 501 q 839 443 901 472 q 733 421 794 421 q 644 428 707 421 q 481 451 582 436 q 369 154 440 217 l 300 92 q 322 94 311 93 q 344 94 333 94 q 435 83 390 94 q 657 31 558 49 q 828 14 756 14 q 1019 72 969 14 q 1049 147 1049 106 q 1036 187 1049 171 q 1024 204 1024 203 q 1032 214 1024 214 q 1058 157 1058 214 q 1029 69 1058 111 q 756 -39 950 -39 q 628 -25 714 -39 q 415 17 543 -11 q 348 27 381 24 q 285 31 315 31 q 214 26 250 31 q 188 -28 200 -3 q 163 -75 176 -53 q 139 -103 146 -103 l 139 -101 q 150 -72 139 -93 q 174 -26 161 -49 q 196 24 186 -3 q 66 -37 115 7 q 17 -131 17 -82 q 118 -208 17 -208 q 133 -208 125 -208 q 142 -208 142 -207 q 101 -219 142 -211 q 94 -224 97 -221 q 88 -226 92 -226 m 431 507 l 431 508 q 447 619 431 561 q 479 740 464 676 q 506 772 490 756 q 538 803 521 788 l 464 819 q 419 686 442 764 q 374 508 397 608 l 386 508 q 407 508 396 508 q 431 507 418 508 m 240 82 l 286 90 q 364 249 331 157 q 421 458 397 342 q 364 463 392 463 l 332 324 q 301 235 322 285 q 256 122 279 186 l 240 82 m 501 1042 q 493 1046 496 1042 q 497 1056 490 1050 q 533 1082 507 1060 q 589 1131 558 1104 q 642 1179 619 1158 q 669 1201 665 1200 q 693 1206 676 1206 q 710 1201 706 1206 q 726 1179 713 1200 q 756 1131 739 1158 q 788 1081 774 1103 q 804 1056 801 1058 q 808 1050 808 1054 q 801 1042 807 1044 q 789 1044 794 1040 q 771 1060 788 1044 q 733 1095 754 1075 q 697 1132 713 1115 q 678 1153 681 1149 q 647 1131 672 1147 q 590 1094 621 1114 q 535 1059 560 1074 q 508 1044 511 1044 q 501 1042 503 1042 m 769 1167 q 758 1170 763 1167 q 763 1178 753 1174 q 809 1205 782 1186 q 863 1246 836 1224 q 912 1285 890 1268 q 943 1308 933 1303 q 961 1315 949 1313 q 985 1317 974 1317 q 1010 1308 1010 1317 q 999 1290 1008 1301 q 956 1257 990 1278 q 927 1242 953 1256 q 869 1211 901 1228 q 810 1181 836 1194 q 779 1168 783 1168 q 769 1167 776 1167 z "},"Ệ":{"ha":1038,"x_min":3,"x_max":1058,"o":"m 88 -226 q 27 -202 51 -226 q 3 -142 3 -178 q 28 -67 3 -104 q 218 75 97 36 q 281 315 281 228 q 208 407 281 407 q 200 407 204 407 q 192 406 196 407 q 211 371 211 394 q 167 301 211 322 q 169 313 168 307 q 169 324 169 318 q 115 374 169 376 q 211 421 150 421 q 300 318 300 421 q 298 283 300 303 q 290 243 296 264 q 312 317 301 275 q 333 413 322 358 l 344 464 l 338 464 q 139 411 217 464 l 136 415 l 185 454 q 354 507 242 501 q 398 692 376 613 q 438 825 419 771 q 381 833 408 831 q 326 836 354 836 q 200 817 263 836 q 121 739 121 792 q 136 694 121 718 q 147 676 143 682 q 150 668 150 669 q 81 621 150 647 q 63 665 63 639 q 169 826 63 749 q 361 906 278 906 q 467 892 406 906 q 517 964 489 940 q 531 975 522 969 q 550 990 539 981 q 521 940 536 967 q 492 886 506 914 q 694 845 607 860 q 840 831 782 831 q 1001 881 964 831 q 1022 899 1015 899 q 1026 894 1026 899 q 1022 882 1026 890 q 797 764 953 764 q 564 797 706 764 q 489 501 525 718 q 681 478 614 486 q 756 471 747 471 q 896 501 840 471 q 901 497 901 501 q 839 443 901 472 q 733 421 794 421 q 644 428 707 421 q 481 451 582 436 q 369 154 440 217 l 300 92 q 322 94 311 93 q 344 94 333 94 q 435 83 390 94 q 657 31 558 49 q 828 14 756 14 q 1019 72 969 14 q 1049 147 1049 106 q 1036 187 1049 171 q 1024 204 1024 203 q 1032 214 1024 214 q 1058 157 1058 214 q 1029 69 1058 111 q 756 -39 950 -39 q 628 -25 714 -39 q 415 17 543 -11 q 348 27 381 24 q 285 31 315 31 q 214 26 250 31 q 188 -28 200 -3 q 163 -75 176 -53 q 139 -103 146 -103 l 139 -101 q 150 -72 139 -93 q 174 -26 161 -49 q 196 24 186 -3 q 66 -37 115 7 q 17 -131 17 -82 q 118 -208 17 -208 q 133 -208 125 -208 q 142 -208 142 -207 q 101 -219 142 -211 q 94 -224 97 -221 q 88 -226 92 -226 m 431 507 l 431 508 q 447 619 431 561 q 479 740 464 676 q 506 772 490 756 q 538 803 521 788 l 464 819 q 419 686 442 764 q 374 508 397 608 l 386 508 q 407 508 396 508 q 431 507 418 508 m 240 82 l 286 90 q 364 249 331 157 q 421 458 397 342 q 364 463 392 463 l 332 324 q 301 235 322 285 q 256 122 279 186 l 240 82 m 461 -228 q 444 -224 451 -228 q 435 -215 436 -221 q 433 -203 433 -211 q 451 -158 433 -176 q 488 -139 468 -139 q 522 -165 522 -139 q 508 -204 522 -179 q 488 -222 501 -217 q 461 -228 474 -228 m 501 1042 q 493 1046 496 1042 q 497 1056 490 1050 q 533 1082 507 1060 q 589 1131 558 1104 q 642 1179 619 1158 q 669 1201 665 1200 q 693 1206 676 1206 q 710 1201 706 1206 q 726 1179 713 1200 q 756 1131 739 1158 q 788 1081 774 1103 q 804 1056 801 1058 q 808 1050 808 1054 q 801 1042 807 1044 q 789 1044 794 1040 q 771 1060 788 1044 q 733 1095 754 1075 q 697 1132 713 1115 q 678 1153 681 1149 q 647 1131 672 1147 q 590 1094 621 1114 q 535 1059 560 1074 q 508 1044 511 1044 q 501 1042 503 1042 z "},"Ề":{"ha":1038,"x_min":3,"x_max":1058,"o":"m 88 -226 q 27 -202 51 -226 q 3 -142 3 -178 q 28 -67 3 -104 q 218 75 97 36 q 281 315 281 228 q 208 407 281 407 q 200 407 204 407 q 192 406 196 407 q 211 371 211 394 q 167 301 211 322 q 169 313 168 307 q 169 324 169 318 q 115 374 169 376 q 211 421 150 421 q 300 318 300 421 q 298 283 300 303 q 290 243 296 264 q 312 317 301 275 q 333 413 322 358 l 344 464 l 338 464 q 139 411 217 464 l 136 415 l 185 454 q 354 507 242 501 q 398 692 376 613 q 438 825 419 771 q 381 833 408 831 q 326 836 354 836 q 200 817 263 836 q 121 739 121 792 q 136 694 121 718 q 147 676 143 682 q 150 668 150 669 q 81 621 150 647 q 63 665 63 639 q 169 826 63 749 q 361 906 278 906 q 467 892 406 906 q 517 964 489 940 q 531 975 522 969 q 550 990 539 981 q 521 940 536 967 q 492 886 506 914 q 694 845 607 860 q 840 831 782 831 q 1001 881 964 831 q 1022 899 1015 899 q 1026 894 1026 899 q 1022 882 1026 890 q 797 764 953 764 q 564 797 706 764 q 489 501 525 718 q 681 478 614 486 q 756 471 747 471 q 896 501 840 471 q 901 497 901 501 q 839 443 901 472 q 733 421 794 421 q 644 428 707 421 q 481 451 582 436 q 369 154 440 217 l 300 92 q 322 94 311 93 q 344 94 333 94 q 435 83 390 94 q 657 31 558 49 q 828 14 756 14 q 1019 72 969 14 q 1049 147 1049 106 q 1036 187 1049 171 q 1024 204 1024 203 q 1032 214 1024 214 q 1058 157 1058 214 q 1029 69 1058 111 q 756 -39 950 -39 q 628 -25 714 -39 q 415 17 543 -11 q 348 27 381 24 q 285 31 315 31 q 214 26 250 31 q 188 -28 200 -3 q 163 -75 176 -53 q 139 -103 146 -103 l 139 -101 q 150 -72 139 -93 q 174 -26 161 -49 q 196 24 186 -3 q 66 -37 115 7 q 17 -131 17 -82 q 118 -208 17 -208 q 133 -208 125 -208 q 142 -208 142 -207 q 101 -219 142 -211 q 94 -224 97 -221 q 88 -226 92 -226 m 431 507 l 431 508 q 447 619 431 561 q 479 740 464 676 q 506 772 490 756 q 538 803 521 788 l 464 819 q 419 686 442 764 q 374 508 397 608 l 386 508 q 407 508 396 508 q 431 507 418 508 m 240 82 l 286 90 q 364 249 331 157 q 421 458 397 342 q 364 463 392 463 l 332 324 q 301 235 322 285 q 256 122 279 186 l 240 82 m 501 1042 q 493 1046 496 1042 q 497 1056 490 1050 q 533 1082 507 1060 q 589 1131 558 1104 q 642 1179 619 1158 q 669 1201 665 1200 q 693 1206 676 1206 q 710 1201 706 1206 q 726 1179 713 1200 q 756 1131 739 1158 q 788 1081 774 1103 q 804 1056 801 1058 q 808 1050 808 1054 q 801 1042 807 1044 q 789 1044 794 1040 q 771 1060 788 1044 q 733 1095 754 1075 q 697 1132 713 1115 q 678 1153 681 1149 q 647 1131 672 1147 q 590 1094 621 1114 q 535 1059 560 1074 q 508 1044 511 1044 q 501 1042 503 1042 m 829 1168 q 801 1181 825 1168 q 750 1211 778 1194 q 700 1242 722 1228 q 675 1257 678 1256 q 640 1290 644 1278 q 635 1308 635 1301 q 660 1317 635 1317 q 683 1315 671 1317 q 701 1308 696 1313 q 725 1285 708 1303 q 764 1246 742 1268 q 808 1205 786 1224 q 849 1178 831 1186 q 854 1174 854 1176 q 844 1167 853 1169 q 829 1168 836 1165 z "},"Ể":{"ha":1038,"x_min":3,"x_max":1058,"o":"m 88 -226 q 27 -202 51 -226 q 3 -142 3 -178 q 28 -67 3 -104 q 218 75 97 36 q 281 315 281 228 q 208 407 281 407 q 200 407 204 407 q 192 406 196 407 q 211 371 211 394 q 167 301 211 322 q 169 313 168 307 q 169 324 169 318 q 115 374 169 376 q 211 421 150 421 q 300 318 300 421 q 298 283 300 303 q 290 243 296 264 q 312 317 301 275 q 333 413 322 358 l 344 464 l 338 464 q 139 411 217 464 l 136 415 l 185 454 q 354 507 242 501 q 398 692 376 613 q 438 825 419 771 q 381 833 408 831 q 326 836 354 836 q 200 817 263 836 q 121 739 121 792 q 136 694 121 718 q 147 676 143 682 q 150 668 150 669 q 81 621 150 647 q 63 665 63 639 q 169 826 63 749 q 361 906 278 906 q 467 892 406 906 q 517 964 489 940 q 531 975 522 969 q 550 990 539 981 q 521 940 536 967 q 492 886 506 914 q 694 845 607 860 q 840 831 782 831 q 1001 881 964 831 q 1022 899 1015 899 q 1026 894 1026 899 q 1022 882 1026 890 q 797 764 953 764 q 564 797 706 764 q 489 501 525 718 q 681 478 614 486 q 756 471 747 471 q 896 501 840 471 q 901 497 901 501 q 839 443 901 472 q 733 421 794 421 q 644 428 707 421 q 481 451 582 436 q 369 154 440 217 l 300 92 q 322 94 311 93 q 344 94 333 94 q 435 83 390 94 q 657 31 558 49 q 828 14 756 14 q 1019 72 969 14 q 1049 147 1049 106 q 1036 187 1049 171 q 1024 204 1024 203 q 1032 214 1024 214 q 1058 157 1058 214 q 1029 69 1058 111 q 756 -39 950 -39 q 628 -25 714 -39 q 415 17 543 -11 q 348 27 381 24 q 285 31 315 31 q 214 26 250 31 q 188 -28 200 -3 q 163 -75 176 -53 q 139 -103 146 -103 l 139 -101 q 150 -72 139 -93 q 174 -26 161 -49 q 196 24 186 -3 q 66 -37 115 7 q 17 -131 17 -82 q 118 -208 17 -208 q 133 -208 125 -208 q 142 -208 142 -207 q 101 -219 142 -211 q 94 -224 97 -221 q 88 -226 92 -226 m 431 507 l 431 508 q 447 619 431 561 q 479 740 464 676 q 506 772 490 756 q 538 803 521 788 l 464 819 q 419 686 442 764 q 374 508 397 608 l 386 508 q 407 508 396 508 q 431 507 418 508 m 240 82 l 286 90 q 364 249 331 157 q 421 458 397 342 q 364 463 392 463 l 332 324 q 301 235 322 285 q 256 122 279 186 l 240 82 m 501 1042 q 493 1046 496 1042 q 497 1056 490 1050 q 533 1082 507 1060 q 589 1131 558 1104 q 642 1179 619 1158 q 669 1201 665 1200 q 693 1206 676 1206 q 710 1201 706 1206 q 726 1179 713 1200 q 756 1131 739 1158 q 788 1081 774 1103 q 804 1056 801 1058 q 808 1050 808 1054 q 801 1042 807 1044 q 789 1044 794 1040 q 771 1060 788 1044 q 733 1095 754 1075 q 697 1132 713 1115 q 678 1153 681 1149 q 647 1131 672 1147 q 590 1094 621 1114 q 535 1059 560 1074 q 508 1044 511 1044 q 501 1042 503 1042 m 776 1165 q 767 1174 767 1165 q 788 1219 769 1201 q 825 1253 807 1238 q 859 1290 844 1271 q 874 1324 874 1310 q 839 1347 874 1347 q 792 1338 814 1347 q 763 1328 771 1328 q 753 1338 750 1328 q 772 1358 754 1349 q 815 1372 790 1367 q 856 1378 839 1378 q 908 1367 883 1378 q 932 1326 932 1357 q 907 1276 932 1299 q 854 1235 882 1254 q 799 1174 807 1199 q 789 1167 799 1169 q 776 1165 779 1165 z "},"Ễ":{"ha":1038,"x_min":3,"x_max":1058,"o":"m 88 -226 q 27 -202 51 -226 q 3 -142 3 -178 q 28 -67 3 -104 q 218 75 97 36 q 281 315 281 228 q 208 407 281 407 q 200 407 204 407 q 192 406 196 407 q 211 371 211 394 q 167 301 211 322 q 169 313 168 307 q 169 324 169 318 q 115 374 169 376 q 211 421 150 421 q 300 318 300 421 q 298 283 300 303 q 290 243 296 264 q 312 317 301 275 q 333 413 322 358 l 344 464 l 338 464 q 139 411 217 464 l 136 415 l 185 454 q 354 507 242 501 q 398 692 376 613 q 438 825 419 771 q 381 833 408 831 q 326 836 354 836 q 200 817 263 836 q 121 739 121 792 q 136 694 121 718 q 147 676 143 682 q 150 668 150 669 q 81 621 150 647 q 63 665 63 639 q 169 826 63 749 q 361 906 278 906 q 467 892 406 906 q 517 964 489 940 q 531 975 522 969 q 550 990 539 981 q 521 940 536 967 q 492 886 506 914 q 694 845 607 860 q 840 831 782 831 q 1001 881 964 831 q 1022 899 1015 899 q 1026 894 1026 899 q 1022 882 1026 890 q 797 764 953 764 q 564 797 706 764 q 489 501 525 718 q 681 478 614 486 q 756 471 747 471 q 896 501 840 471 q 901 497 901 501 q 839 443 901 472 q 733 421 794 421 q 644 428 707 421 q 481 451 582 436 q 369 154 440 217 l 300 92 q 322 94 311 93 q 344 94 333 94 q 435 83 390 94 q 657 31 558 49 q 828 14 756 14 q 1019 72 969 14 q 1049 147 1049 106 q 1036 187 1049 171 q 1024 204 1024 203 q 1032 214 1024 214 q 1058 157 1058 214 q 1029 69 1058 111 q 756 -39 950 -39 q 628 -25 714 -39 q 415 17 543 -11 q 348 27 381 24 q 285 31 315 31 q 214 26 250 31 q 188 -28 200 -3 q 163 -75 176 -53 q 139 -103 146 -103 l 139 -101 q 150 -72 139 -93 q 174 -26 161 -49 q 196 24 186 -3 q 66 -37 115 7 q 17 -131 17 -82 q 118 -208 17 -208 q 133 -208 125 -208 q 142 -208 142 -207 q 101 -219 142 -211 q 94 -224 97 -221 q 88 -226 92 -226 m 431 507 l 431 508 q 447 619 431 561 q 479 740 464 676 q 506 772 490 756 q 538 803 521 788 l 464 819 q 419 686 442 764 q 374 508 397 608 l 386 508 q 407 508 396 508 q 431 507 418 508 m 240 82 l 286 90 q 364 249 331 157 q 421 458 397 342 q 364 463 392 463 l 332 324 q 301 235 322 285 q 256 122 279 186 l 240 82 m 501 1042 q 493 1046 496 1042 q 497 1056 490 1050 q 533 1082 507 1060 q 589 1131 558 1104 q 642 1179 619 1158 q 669 1201 665 1200 q 693 1206 676 1206 q 710 1201 706 1206 q 726 1179 713 1200 q 756 1131 739 1158 q 788 1081 774 1103 q 804 1056 801 1058 q 808 1050 808 1054 q 801 1042 807 1044 q 789 1044 794 1040 q 771 1060 788 1044 q 733 1095 754 1075 q 697 1132 713 1115 q 678 1153 681 1149 q 647 1131 672 1147 q 590 1094 621 1114 q 535 1059 560 1074 q 508 1044 511 1044 q 501 1042 503 1042 m 747 1236 q 704 1246 726 1236 q 660 1265 682 1256 q 621 1275 639 1275 q 577 1263 596 1275 q 551 1238 558 1250 q 543 1244 540 1238 q 581 1299 554 1278 q 639 1319 608 1319 q 683 1310 661 1319 q 727 1290 706 1300 q 767 1281 749 1281 q 810 1294 790 1281 q 835 1318 831 1307 q 847 1313 847 1318 q 807 1257 835 1278 q 747 1236 779 1236 z "},"Ȅ":{"ha":1038,"x_min":3,"x_max":1058,"o":"m 88 -226 q 27 -202 51 -226 q 3 -142 3 -178 q 28 -67 3 -104 q 218 75 97 36 q 281 315 281 228 q 208 407 281 407 q 200 407 204 407 q 192 406 196 407 q 211 371 211 394 q 167 301 211 322 q 169 313 168 307 q 169 324 169 318 q 115 374 169 376 q 211 421 150 421 q 300 318 300 421 q 298 283 300 303 q 290 243 296 264 q 312 317 301 275 q 333 413 322 358 l 344 464 l 338 464 q 139 411 217 464 l 136 415 l 185 454 q 354 507 242 501 q 398 692 376 613 q 438 825 419 771 q 381 833 408 831 q 326 836 354 836 q 200 817 263 836 q 121 739 121 792 q 136 694 121 718 q 147 676 143 682 q 150 668 150 669 q 81 621 150 647 q 63 665 63 639 q 169 826 63 749 q 361 906 278 906 q 467 892 406 906 q 517 964 489 940 q 531 975 522 969 q 550 990 539 981 q 521 940 536 967 q 492 886 506 914 q 694 845 607 860 q 840 831 782 831 q 1001 881 964 831 q 1022 899 1015 899 q 1026 894 1026 899 q 1022 882 1026 890 q 797 764 953 764 q 564 797 706 764 q 489 501 525 718 q 681 478 614 486 q 756 471 747 471 q 896 501 840 471 q 901 497 901 501 q 839 443 901 472 q 733 421 794 421 q 644 428 707 421 q 481 451 582 436 q 369 154 440 217 l 300 92 q 322 94 311 93 q 344 94 333 94 q 435 83 390 94 q 657 31 558 49 q 828 14 756 14 q 1019 72 969 14 q 1049 147 1049 106 q 1036 187 1049 171 q 1024 204 1024 203 q 1032 214 1024 214 q 1058 157 1058 214 q 1029 69 1058 111 q 756 -39 950 -39 q 628 -25 714 -39 q 415 17 543 -11 q 348 27 381 24 q 285 31 315 31 q 214 26 250 31 q 188 -28 200 -3 q 163 -75 176 -53 q 139 -103 146 -103 l 139 -101 q 150 -72 139 -93 q 174 -26 161 -49 q 196 24 186 -3 q 66 -37 115 7 q 17 -131 17 -82 q 118 -208 17 -208 q 133 -208 125 -208 q 142 -208 142 -207 q 101 -219 142 -211 q 94 -224 97 -221 q 88 -226 92 -226 m 431 507 l 431 508 q 447 619 431 561 q 479 740 464 676 q 506 772 490 756 q 538 803 521 788 l 464 819 q 419 686 442 764 q 374 508 397 608 l 386 508 q 407 508 396 508 q 431 507 418 508 m 240 82 l 286 90 q 364 249 331 157 q 421 458 397 342 q 364 463 392 463 l 332 324 q 301 235 322 285 q 256 122 279 186 l 240 82 m 718 1028 q 708 1032 713 1028 q 684 1049 704 1033 q 640 1083 664 1064 q 598 1119 617 1103 q 576 1136 579 1135 q 549 1172 551 1160 q 546 1190 546 1183 q 563 1196 550 1196 q 588 1192 574 1196 q 608 1182 603 1188 q 637 1145 617 1175 q 681 1084 657 1115 q 726 1040 706 1053 q 731 1035 731 1036 q 718 1028 728 1028 m 564 1043 q 536 1056 560 1043 q 485 1086 513 1069 q 435 1117 457 1103 q 410 1132 413 1131 q 375 1165 381 1153 q 369 1183 369 1176 q 394 1192 369 1192 q 418 1190 406 1192 q 436 1183 431 1188 q 460 1160 443 1178 q 499 1121 478 1143 q 543 1080 521 1099 q 583 1053 565 1061 q 589 1049 589 1051 q 572 1042 586 1042 q 564 1043 567 1042 z "},"Ë":{"ha":1038,"x_min":3,"x_max":1058,"o":"m 88 -226 q 27 -202 51 -226 q 3 -142 3 -178 q 28 -67 3 -104 q 218 75 97 36 q 281 315 281 228 q 208 407 281 407 q 200 407 204 407 q 192 406 196 407 q 211 371 211 394 q 167 301 211 322 q 169 313 168 307 q 169 324 169 318 q 115 374 169 376 q 211 421 150 421 q 300 318 300 421 q 298 283 300 303 q 290 243 296 264 q 312 317 301 275 q 333 413 322 358 l 344 464 l 338 464 q 139 411 217 464 l 136 415 l 185 454 q 354 507 242 501 q 398 692 376 613 q 438 825 419 771 q 381 833 408 831 q 326 836 354 836 q 200 817 263 836 q 121 739 121 792 q 136 694 121 718 q 147 676 143 682 q 150 668 150 669 q 81 621 150 647 q 63 665 63 639 q 169 826 63 749 q 361 906 278 906 q 467 892 406 906 q 517 964 489 940 q 531 975 522 969 q 550 990 539 981 q 521 940 536 967 q 492 886 506 914 q 694 845 607 860 q 840 831 782 831 q 1001 881 964 831 q 1022 899 1015 899 q 1026 894 1026 899 q 1022 882 1026 890 q 797 764 953 764 q 564 797 706 764 q 489 501 525 718 q 681 478 614 486 q 756 471 747 471 q 896 501 840 471 q 901 497 901 501 q 839 443 901 472 q 733 421 794 421 q 644 428 707 421 q 481 451 582 436 q 369 154 440 217 l 300 92 q 322 94 311 93 q 344 94 333 94 q 435 83 390 94 q 657 31 558 49 q 828 14 756 14 q 1019 72 969 14 q 1049 147 1049 106 q 1036 187 1049 171 q 1024 204 1024 203 q 1032 214 1024 214 q 1058 157 1058 214 q 1029 69 1058 111 q 756 -39 950 -39 q 628 -25 714 -39 q 415 17 543 -11 q 348 27 381 24 q 285 31 315 31 q 214 26 250 31 q 188 -28 200 -3 q 163 -75 176 -53 q 139 -103 146 -103 l 139 -101 q 150 -72 139 -93 q 174 -26 161 -49 q 196 24 186 -3 q 66 -37 115 7 q 17 -131 17 -82 q 118 -208 17 -208 q 133 -208 125 -208 q 142 -208 142 -207 q 101 -219 142 -211 q 94 -224 97 -221 q 88 -226 92 -226 m 431 507 l 431 508 q 447 619 431 561 q 479 740 464 676 q 506 772 490 756 q 538 803 521 788 l 464 819 q 419 686 442 764 q 374 508 397 608 l 386 508 q 407 508 396 508 q 431 507 418 508 m 240 82 l 286 90 q 364 249 331 157 q 421 458 397 342 q 364 463 392 463 l 332 324 q 301 235 322 285 q 256 122 279 186 l 240 82 m 713 1042 q 694 1058 703 1042 q 685 1083 685 1074 q 704 1113 685 1099 q 747 1138 724 1128 q 779 1147 769 1147 q 786 1143 785 1147 l 786 1138 q 766 1110 775 1121 q 754 1086 757 1099 q 740 1058 750 1074 q 713 1042 729 1042 m 531 1042 q 512 1058 521 1042 q 503 1083 503 1074 q 522 1113 503 1099 q 565 1138 542 1128 q 597 1147 588 1147 q 604 1143 603 1147 l 604 1138 q 584 1110 593 1121 q 572 1086 575 1099 q 558 1058 568 1074 q 531 1042 547 1042 z "},"Ė":{"ha":1038,"x_min":3,"x_max":1058,"o":"m 88 -226 q 27 -202 51 -226 q 3 -142 3 -178 q 28 -67 3 -104 q 218 75 97 36 q 281 315 281 228 q 208 407 281 407 q 200 407 204 407 q 192 406 196 407 q 211 371 211 394 q 167 301 211 322 q 169 313 168 307 q 169 324 169 318 q 115 374 169 376 q 211 421 150 421 q 300 318 300 421 q 298 283 300 303 q 290 243 296 264 q 312 317 301 275 q 333 413 322 358 l 344 464 l 338 464 q 139 411 217 464 l 136 415 l 185 454 q 354 507 242 501 q 398 692 376 613 q 438 825 419 771 q 381 833 408 831 q 326 836 354 836 q 200 817 263 836 q 121 739 121 792 q 136 694 121 718 q 147 676 143 682 q 150 668 150 669 q 81 621 150 647 q 63 665 63 639 q 169 826 63 749 q 361 906 278 906 q 467 892 406 906 q 517 964 489 940 q 531 975 522 969 q 550 990 539 981 q 521 940 536 967 q 492 886 506 914 q 694 845 607 860 q 840 831 782 831 q 1001 881 964 831 q 1022 899 1015 899 q 1026 894 1026 899 q 1022 882 1026 890 q 797 764 953 764 q 564 797 706 764 q 489 501 525 718 q 681 478 614 486 q 756 471 747 471 q 896 501 840 471 q 901 497 901 501 q 839 443 901 472 q 733 421 794 421 q 644 428 707 421 q 481 451 582 436 q 369 154 440 217 l 300 92 q 322 94 311 93 q 344 94 333 94 q 435 83 390 94 q 657 31 558 49 q 828 14 756 14 q 1019 72 969 14 q 1049 147 1049 106 q 1036 187 1049 171 q 1024 204 1024 203 q 1032 214 1024 214 q 1058 157 1058 214 q 1029 69 1058 111 q 756 -39 950 -39 q 628 -25 714 -39 q 415 17 543 -11 q 348 27 381 24 q 285 31 315 31 q 214 26 250 31 q 188 -28 200 -3 q 163 -75 176 -53 q 139 -103 146 -103 l 139 -101 q 150 -72 139 -93 q 174 -26 161 -49 q 196 24 186 -3 q 66 -37 115 7 q 17 -131 17 -82 q 118 -208 17 -208 q 133 -208 125 -208 q 142 -208 142 -207 q 101 -219 142 -211 q 94 -224 97 -221 q 88 -226 92 -226 m 431 507 l 431 508 q 447 619 431 561 q 479 740 464 676 q 506 772 490 756 q 538 803 521 788 l 464 819 q 419 686 442 764 q 374 508 397 608 l 386 508 q 407 508 396 508 q 431 507 418 508 m 240 82 l 286 90 q 364 249 331 157 q 421 458 397 342 q 364 463 392 463 l 332 324 q 301 235 322 285 q 256 122 279 186 l 240 82 m 628 1040 q 610 1044 618 1040 q 601 1053 603 1047 q 600 1065 600 1057 q 617 1110 600 1092 q 654 1129 635 1129 q 689 1103 689 1129 q 675 1064 689 1089 q 654 1046 668 1051 q 628 1040 640 1040 z "},"Ẹ":{"ha":1038,"x_min":3,"x_max":1058,"o":"m 88 -226 q 27 -202 51 -226 q 3 -142 3 -178 q 28 -67 3 -104 q 218 75 97 36 q 281 315 281 228 q 208 407 281 407 q 200 407 204 407 q 192 406 196 407 q 211 371 211 394 q 167 301 211 322 q 169 313 168 307 q 169 324 169 318 q 115 374 169 376 q 211 421 150 421 q 300 318 300 421 q 298 283 300 303 q 290 243 296 264 q 312 317 301 275 q 333 413 322 358 l 344 464 l 338 464 q 139 411 217 464 l 136 415 l 185 454 q 354 507 242 501 q 398 692 376 613 q 438 825 419 771 q 381 833 408 831 q 326 836 354 836 q 200 817 263 836 q 121 739 121 792 q 136 694 121 718 q 147 676 143 682 q 150 668 150 669 q 81 621 150 647 q 63 665 63 639 q 169 826 63 749 q 361 906 278 906 q 467 892 406 906 q 517 964 489 940 q 531 975 522 969 q 550 990 539 981 q 521 940 536 967 q 492 886 506 914 q 694 845 607 860 q 840 831 782 831 q 1001 881 964 831 q 1022 899 1015 899 q 1026 894 1026 899 q 1022 882 1026 890 q 797 764 953 764 q 564 797 706 764 q 489 501 525 718 q 681 478 614 486 q 756 471 747 471 q 896 501 840 471 q 901 497 901 501 q 839 443 901 472 q 733 421 794 421 q 644 428 707 421 q 481 451 582 436 q 369 154 440 217 l 300 92 q 322 94 311 93 q 344 94 333 94 q 435 83 390 94 q 657 31 558 49 q 828 14 756 14 q 1019 72 969 14 q 1049 147 1049 106 q 1036 187 1049 171 q 1024 204 1024 203 q 1032 214 1024 214 q 1058 157 1058 214 q 1029 69 1058 111 q 756 -39 950 -39 q 628 -25 714 -39 q 415 17 543 -11 q 348 27 381 24 q 285 31 315 31 q 214 26 250 31 q 188 -28 200 -3 q 163 -75 176 -53 q 139 -103 146 -103 l 139 -101 q 150 -72 139 -93 q 174 -26 161 -49 q 196 24 186 -3 q 66 -37 115 7 q 17 -131 17 -82 q 118 -208 17 -208 q 133 -208 125 -208 q 142 -208 142 -207 q 101 -219 142 -211 q 94 -224 97 -221 q 88 -226 92 -226 m 431 507 l 431 508 q 447 619 431 561 q 479 740 464 676 q 506 772 490 756 q 538 803 521 788 l 464 819 q 419 686 442 764 q 374 508 397 608 l 386 508 q 407 508 396 508 q 431 507 418 508 m 240 82 l 286 90 q 364 249 331 157 q 421 458 397 342 q 364 463 392 463 l 332 324 q 301 235 322 285 q 256 122 279 186 l 240 82 m 461 -228 q 444 -224 451 -228 q 435 -215 436 -221 q 433 -203 433 -211 q 451 -158 433 -176 q 488 -139 468 -139 q 522 -165 522 -139 q 508 -204 522 -179 q 488 -222 501 -217 q 461 -228 474 -228 z "},"È":{"ha":1038,"x_min":3,"x_max":1058,"o":"m 88 -226 q 27 -202 51 -226 q 3 -142 3 -178 q 28 -67 3 -104 q 218 75 97 36 q 281 315 281 228 q 208 407 281 407 q 200 407 204 407 q 192 406 196 407 q 211 371 211 394 q 167 301 211 322 q 169 313 168 307 q 169 324 169 318 q 115 374 169 376 q 211 421 150 421 q 300 318 300 421 q 298 283 300 303 q 290 243 296 264 q 312 317 301 275 q 333 413 322 358 l 344 464 l 338 464 q 139 411 217 464 l 136 415 l 185 454 q 354 507 242 501 q 398 692 376 613 q 438 825 419 771 q 381 833 408 831 q 326 836 354 836 q 200 817 263 836 q 121 739 121 792 q 136 694 121 718 q 147 676 143 682 q 150 668 150 669 q 81 621 150 647 q 63 665 63 639 q 169 826 63 749 q 361 906 278 906 q 467 892 406 906 q 517 964 489 940 q 531 975 522 969 q 550 990 539 981 q 521 940 536 967 q 492 886 506 914 q 694 845 607 860 q 840 831 782 831 q 1001 881 964 831 q 1022 899 1015 899 q 1026 894 1026 899 q 1022 882 1026 890 q 797 764 953 764 q 564 797 706 764 q 489 501 525 718 q 681 478 614 486 q 756 471 747 471 q 896 501 840 471 q 901 497 901 501 q 839 443 901 472 q 733 421 794 421 q 644 428 707 421 q 481 451 582 436 q 369 154 440 217 l 300 92 q 322 94 311 93 q 344 94 333 94 q 435 83 390 94 q 657 31 558 49 q 828 14 756 14 q 1019 72 969 14 q 1049 147 1049 106 q 1036 187 1049 171 q 1024 204 1024 203 q 1032 214 1024 214 q 1058 157 1058 214 q 1029 69 1058 111 q 756 -39 950 -39 q 628 -25 714 -39 q 415 17 543 -11 q 348 27 381 24 q 285 31 315 31 q 214 26 250 31 q 188 -28 200 -3 q 163 -75 176 -53 q 139 -103 146 -103 l 139 -101 q 150 -72 139 -93 q 174 -26 161 -49 q 196 24 186 -3 q 66 -37 115 7 q 17 -131 17 -82 q 118 -208 17 -208 q 133 -208 125 -208 q 142 -208 142 -207 q 101 -219 142 -211 q 94 -224 97 -221 q 88 -226 92 -226 m 431 507 l 431 508 q 447 619 431 561 q 479 740 464 676 q 506 772 490 756 q 538 803 521 788 l 464 819 q 419 686 442 764 q 374 508 397 608 l 386 508 q 407 508 396 508 q 431 507 418 508 m 240 82 l 286 90 q 364 249 331 157 q 421 458 397 342 q 364 463 392 463 l 332 324 q 301 235 322 285 q 256 122 279 186 l 240 82 m 663 1043 q 635 1056 658 1043 q 583 1086 611 1069 q 533 1117 556 1103 q 508 1132 511 1131 q 473 1165 478 1153 q 468 1183 468 1176 q 493 1192 468 1192 q 517 1190 504 1192 q 535 1183 529 1188 q 558 1160 542 1178 q 597 1121 575 1143 q 642 1080 619 1099 q 682 1053 664 1061 q 688 1049 688 1051 q 678 1042 686 1044 q 663 1043 669 1040 z "},"Ẻ":{"ha":1038,"x_min":3,"x_max":1058,"o":"m 88 -226 q 27 -202 51 -226 q 3 -142 3 -178 q 28 -67 3 -104 q 218 75 97 36 q 281 315 281 228 q 208 407 281 407 q 200 407 204 407 q 192 406 196 407 q 211 371 211 394 q 167 301 211 322 q 169 313 168 307 q 169 324 169 318 q 115 374 169 376 q 211 421 150 421 q 300 318 300 421 q 298 283 300 303 q 290 243 296 264 q 312 317 301 275 q 333 413 322 358 l 344 464 l 338 464 q 139 411 217 464 l 136 415 l 185 454 q 354 507 242 501 q 398 692 376 613 q 438 825 419 771 q 381 833 408 831 q 326 836 354 836 q 200 817 263 836 q 121 739 121 792 q 136 694 121 718 q 147 676 143 682 q 150 668 150 669 q 81 621 150 647 q 63 665 63 639 q 169 826 63 749 q 361 906 278 906 q 467 892 406 906 q 517 964 489 940 q 531 975 522 969 q 550 990 539 981 q 521 940 536 967 q 492 886 506 914 q 694 845 607 860 q 840 831 782 831 q 1001 881 964 831 q 1022 899 1015 899 q 1026 894 1026 899 q 1022 882 1026 890 q 797 764 953 764 q 564 797 706 764 q 489 501 525 718 q 681 478 614 486 q 756 471 747 471 q 896 501 840 471 q 901 497 901 501 q 839 443 901 472 q 733 421 794 421 q 644 428 707 421 q 481 451 582 436 q 369 154 440 217 l 300 92 q 322 94 311 93 q 344 94 333 94 q 435 83 390 94 q 657 31 558 49 q 828 14 756 14 q 1019 72 969 14 q 1049 147 1049 106 q 1036 187 1049 171 q 1024 204 1024 203 q 1032 214 1024 214 q 1058 157 1058 214 q 1029 69 1058 111 q 756 -39 950 -39 q 628 -25 714 -39 q 415 17 543 -11 q 348 27 381 24 q 285 31 315 31 q 214 26 250 31 q 188 -28 200 -3 q 163 -75 176 -53 q 139 -103 146 -103 l 139 -101 q 150 -72 139 -93 q 174 -26 161 -49 q 196 24 186 -3 q 66 -37 115 7 q 17 -131 17 -82 q 118 -208 17 -208 q 133 -208 125 -208 q 142 -208 142 -207 q 101 -219 142 -211 q 94 -224 97 -221 q 88 -226 92 -226 m 431 507 l 431 508 q 447 619 431 561 q 479 740 464 676 q 506 772 490 756 q 538 803 521 788 l 464 819 q 419 686 442 764 q 374 508 397 608 l 386 508 q 407 508 396 508 q 431 507 418 508 m 240 82 l 286 90 q 364 249 331 157 q 421 458 397 342 q 364 463 392 463 l 332 324 q 301 235 322 285 q 256 122 279 186 l 240 82 m 638 1040 q 628 1049 628 1040 q 649 1094 631 1076 q 686 1128 668 1113 q 720 1165 706 1146 q 735 1199 735 1185 q 700 1222 735 1222 q 653 1213 675 1222 q 624 1203 632 1203 q 614 1213 611 1203 q 633 1233 615 1224 q 676 1247 651 1242 q 717 1253 700 1253 q 769 1242 744 1253 q 793 1201 793 1232 q 768 1151 793 1174 q 715 1110 743 1129 q 660 1049 668 1074 q 650 1042 660 1044 q 638 1040 640 1040 z "},"Ȇ":{"ha":1038,"x_min":3,"x_max":1058,"o":"m 88 -226 q 27 -202 51 -226 q 3 -142 3 -178 q 28 -67 3 -104 q 218 75 97 36 q 281 315 281 228 q 208 407 281 407 q 200 407 204 407 q 192 406 196 407 q 211 371 211 394 q 167 301 211 322 q 169 313 168 307 q 169 324 169 318 q 115 374 169 376 q 211 421 150 421 q 300 318 300 421 q 298 283 300 303 q 290 243 296 264 q 312 317 301 275 q 333 413 322 358 l 344 464 l 338 464 q 139 411 217 464 l 136 415 l 185 454 q 354 507 242 501 q 398 692 376 613 q 438 825 419 771 q 381 833 408 831 q 326 836 354 836 q 200 817 263 836 q 121 739 121 792 q 136 694 121 718 q 147 676 143 682 q 150 668 150 669 q 81 621 150 647 q 63 665 63 639 q 169 826 63 749 q 361 906 278 906 q 467 892 406 906 q 517 964 489 940 q 531 975 522 969 q 550 990 539 981 q 521 940 536 967 q 492 886 506 914 q 694 845 607 860 q 840 831 782 831 q 1001 881 964 831 q 1022 899 1015 899 q 1026 894 1026 899 q 1022 882 1026 890 q 797 764 953 764 q 564 797 706 764 q 489 501 525 718 q 681 478 614 486 q 756 471 747 471 q 896 501 840 471 q 901 497 901 501 q 839 443 901 472 q 733 421 794 421 q 644 428 707 421 q 481 451 582 436 q 369 154 440 217 l 300 92 q 322 94 311 93 q 344 94 333 94 q 435 83 390 94 q 657 31 558 49 q 828 14 756 14 q 1019 72 969 14 q 1049 147 1049 106 q 1036 187 1049 171 q 1024 204 1024 203 q 1032 214 1024 214 q 1058 157 1058 214 q 1029 69 1058 111 q 756 -39 950 -39 q 628 -25 714 -39 q 415 17 543 -11 q 348 27 381 24 q 285 31 315 31 q 214 26 250 31 q 188 -28 200 -3 q 163 -75 176 -53 q 139 -103 146 -103 l 139 -101 q 150 -72 139 -93 q 174 -26 161 -49 q 196 24 186 -3 q 66 -37 115 7 q 17 -131 17 -82 q 118 -208 17 -208 q 133 -208 125 -208 q 142 -208 142 -207 q 101 -219 142 -211 q 94 -224 97 -221 q 88 -226 92 -226 m 431 507 l 431 508 q 447 619 431 561 q 479 740 464 676 q 506 772 490 756 q 538 803 521 788 l 464 819 q 419 686 442 764 q 374 508 397 608 l 386 508 q 407 508 396 508 q 431 507 418 508 m 240 82 l 286 90 q 364 249 331 157 q 421 458 397 342 q 364 463 392 463 l 332 324 q 301 235 322 285 q 256 122 279 186 l 240 82 m 785 1042 q 774 1053 774 1042 q 754 1118 776 1099 q 700 1138 732 1138 q 599 1109 647 1138 q 525 1050 551 1081 q 511 1043 515 1043 q 501 1053 501 1043 q 506 1068 501 1060 q 567 1138 529 1113 q 642 1174 604 1164 q 701 1185 681 1185 q 747 1176 722 1185 q 790 1147 772 1167 q 808 1097 808 1128 q 808 1079 808 1089 q 806 1058 808 1069 q 785 1042 799 1042 z "},"Ē":{"ha":1038,"x_min":3,"x_max":1058,"o":"m 88 -226 q 27 -202 51 -226 q 3 -142 3 -178 q 28 -67 3 -104 q 218 75 97 36 q 281 315 281 228 q 208 407 281 407 q 200 407 204 407 q 192 406 196 407 q 211 371 211 394 q 167 301 211 322 q 169 313 168 307 q 169 324 169 318 q 115 374 169 376 q 211 421 150 421 q 300 318 300 421 q 298 283 300 303 q 290 243 296 264 q 312 317 301 275 q 333 413 322 358 l 344 464 l 338 464 q 139 411 217 464 l 136 415 l 185 454 q 354 507 242 501 q 398 692 376 613 q 438 825 419 771 q 381 833 408 831 q 326 836 354 836 q 200 817 263 836 q 121 739 121 792 q 136 694 121 718 q 147 676 143 682 q 150 668 150 669 q 81 621 150 647 q 63 665 63 639 q 169 826 63 749 q 361 906 278 906 q 467 892 406 906 q 517 964 489 940 q 531 975 522 969 q 550 990 539 981 q 521 940 536 967 q 492 886 506 914 q 694 845 607 860 q 840 831 782 831 q 1001 881 964 831 q 1022 899 1015 899 q 1026 894 1026 899 q 1022 882 1026 890 q 797 764 953 764 q 564 797 706 764 q 489 501 525 718 q 681 478 614 486 q 756 471 747 471 q 896 501 840 471 q 901 497 901 501 q 839 443 901 472 q 733 421 794 421 q 644 428 707 421 q 481 451 582 436 q 369 154 440 217 l 300 92 q 322 94 311 93 q 344 94 333 94 q 435 83 390 94 q 657 31 558 49 q 828 14 756 14 q 1019 72 969 14 q 1049 147 1049 106 q 1036 187 1049 171 q 1024 204 1024 203 q 1032 214 1024 214 q 1058 157 1058 214 q 1029 69 1058 111 q 756 -39 950 -39 q 628 -25 714 -39 q 415 17 543 -11 q 348 27 381 24 q 285 31 315 31 q 214 26 250 31 q 188 -28 200 -3 q 163 -75 176 -53 q 139 -103 146 -103 l 139 -101 q 150 -72 139 -93 q 174 -26 161 -49 q 196 24 186 -3 q 66 -37 115 7 q 17 -131 17 -82 q 118 -208 17 -208 q 133 -208 125 -208 q 142 -208 142 -207 q 101 -219 142 -211 q 94 -224 97 -221 q 88 -226 92 -226 m 431 507 l 431 508 q 447 619 431 561 q 479 740 464 676 q 506 772 490 756 q 538 803 521 788 l 464 819 q 419 686 442 764 q 374 508 397 608 l 386 508 q 407 508 396 508 q 431 507 418 508 m 240 82 l 286 90 q 364 249 331 157 q 421 458 397 342 q 364 463 392 463 l 332 324 q 301 235 322 285 q 256 122 279 186 l 240 82 m 524 1063 q 507 1077 518 1063 q 494 1100 496 1092 l 497 1101 q 537 1110 510 1108 q 593 1113 564 1113 q 636 1113 622 1113 q 677 1111 651 1113 q 730 1108 703 1110 q 776 1101 757 1106 q 794 1092 794 1097 q 791 1082 794 1089 q 779 1075 788 1075 q 710 1074 744 1075 q 640 1069 675 1072 q 584 1065 613 1068 q 524 1063 556 1063 z "},"Ŋ":{"ha":1361,"x_min":36,"x_max":1669,"o":"m 710 -497 q 598 -476 640 -497 q 537 -419 556 -454 q 518 -346 518 -385 q 528 -302 518 -317 q 553 -287 539 -287 q 570 -306 568 -287 q 581 -361 572 -325 q 632 -441 592 -407 q 729 -475 672 -475 q 858 -424 790 -475 q 993 -262 926 -374 q 1119 28 1060 -151 q 1015 206 1067 96 q 969 317 1004 229 q 875 561 935 406 q 725 139 792 249 q 369 -74 600 -74 q 183 -26 271 -74 q 58 117 92 28 q 42 173 47 147 q 36 217 36 199 q 68 261 36 261 q 79 251 78 261 q 92 207 86 225 q 101 178 97 189 q 119 142 108 158 q 143 110 131 125 q 318 36 208 36 q 364 44 338 36 q 397 53 393 53 q 401 49 401 51 q 296 24 401 24 q 99 126 146 24 q 350 -58 178 -51 q 363 -53 354 -56 q 386 -47 372 -50 q 546 99 450 -33 q 609 195 579 147 q 663 293 639 243 q 697 370 682 333 q 724 442 713 407 q 697 494 719 474 q 646 508 675 514 q 663 546 646 529 q 701 563 681 563 q 743 506 746 563 q 779 764 779 650 l 779 772 q 546 943 678 943 q 385 854 439 943 q 350 771 363 817 q 338 668 338 725 q 374 481 338 572 q 486 329 417 383 q 519 310 500 319 q 563 289 539 300 q 575 276 575 283 q 561 267 575 267 q 553 268 556 267 q 449 335 494 290 q 367 446 403 379 q 304 699 304 569 q 363 896 304 825 q 544 976 425 976 q 761 899 667 976 q 721 983 749 947 q 713 1001 713 994 q 724 1013 713 1013 q 746 1000 736 1013 q 801 864 786 956 q 847 801 825 838 q 888 721 869 765 q 1072 944 969 944 q 1118 924 1097 944 q 1139 878 1139 904 q 1133 864 1139 864 q 1125 879 1129 864 q 1074 932 1115 932 q 908 672 992 932 l 1019 379 q 1077 238 1046 311 q 1144 104 1108 165 q 1263 500 1215 336 q 1346 771 1311 664 q 1413 938 1381 878 q 1483 1023 1444 999 q 1576 1047 1521 1047 q 1664 1004 1629 1047 q 1669 990 1669 999 q 1661 981 1669 981 q 1653 989 1656 981 q 1581 1035 1638 1035 q 1567 1034 1574 1035 q 1553 1032 1560 1033 q 1496 976 1525 1022 q 1437 857 1467 929 q 1378 696 1407 785 q 1322 513 1349 607 q 1269 330 1294 419 q 1222 166 1243 240 q 1183 43 1200 92 q 1249 -32 1215 -4 q 1318 -60 1283 -60 q 1399 -28 1358 -60 q 1438 4 1438 4 q 1447 -6 1447 4 q 1443 -18 1447 -11 q 1307 -85 1390 -85 l 1304 -85 q 1206 -53 1257 -85 q 1160 -17 1182 -39 q 1034 -268 1101 -160 q 887 -437 967 -376 q 710 -497 807 -497 m 382 -58 q 642 61 539 -51 q 716 170 682 106 q 776 319 750 235 q 803 412 783 339 q 856 613 822 485 q 830 674 842 646 q 807 724 818 701 q 678 274 790 503 q 382 -58 550 13 z "},"Ę":{"ha":1038,"x_min":3,"x_max":1058,"o":"m 88 -226 q 27 -202 51 -226 q 3 -142 3 -178 q 28 -67 3 -104 q 218 75 97 36 q 281 315 281 228 q 208 407 281 407 q 200 407 204 407 q 192 406 196 407 q 211 371 211 394 q 167 301 211 322 q 169 313 168 307 q 169 324 169 318 q 115 374 169 376 q 211 421 150 421 q 300 318 300 421 q 298 283 300 303 q 290 243 296 264 q 312 317 301 275 q 333 413 322 358 l 344 464 l 338 464 q 139 411 217 464 l 136 415 l 185 454 q 354 507 242 501 q 398 692 376 613 q 438 825 419 771 q 381 833 408 831 q 326 836 354 836 q 200 817 263 836 q 121 739 121 792 q 136 694 121 718 q 147 676 143 682 q 150 668 150 669 q 81 621 150 647 q 63 665 63 639 q 169 826 63 749 q 361 906 278 906 q 467 892 406 906 q 517 964 489 940 q 531 975 522 969 q 550 990 539 981 q 521 940 536 967 q 492 886 506 914 q 694 845 607 860 q 840 831 782 831 q 1001 881 964 831 q 1022 899 1015 899 q 1026 894 1026 899 q 1022 882 1026 890 q 797 764 953 764 q 564 797 706 764 q 489 501 525 718 q 681 478 614 486 q 756 471 747 471 q 896 501 840 471 q 901 497 901 501 q 839 443 901 472 q 733 421 794 421 q 644 428 707 421 q 481 451 582 436 q 369 154 440 217 l 300 92 q 322 94 311 93 q 344 94 333 94 q 435 83 390 94 q 657 31 558 49 q 828 14 756 14 q 1019 72 969 14 q 1049 147 1049 106 q 1036 187 1049 171 q 1024 204 1024 203 q 1032 214 1024 214 q 1058 157 1058 214 q 1029 69 1058 111 q 756 -39 950 -39 q 628 -25 714 -39 q 415 17 543 -11 q 348 27 381 24 q 285 31 315 31 q 214 26 250 31 q 188 -28 200 -3 q 163 -75 176 -53 q 139 -103 146 -103 l 139 -101 q 150 -72 139 -93 q 174 -26 161 -49 q 196 24 186 -3 q 66 -37 115 7 q 17 -131 17 -82 q 118 -208 17 -208 q 133 -208 125 -208 q 142 -208 142 -207 q 101 -219 142 -211 q 94 -224 97 -221 q 88 -226 92 -226 m 431 507 l 431 508 q 447 619 431 561 q 479 740 464 676 q 506 772 490 756 q 538 803 521 788 l 464 819 q 419 686 442 764 q 374 508 397 608 l 386 508 q 407 508 396 508 q 431 507 418 508 m 240 82 l 286 90 q 364 249 331 157 q 421 458 397 342 q 364 463 392 463 l 332 324 q 301 235 322 285 q 256 122 279 186 l 240 82 m 842 -218 q 786 -206 811 -218 q 758 -158 761 -193 q 781 -106 758 -129 q 826 -62 803 -82 q 878 -16 863 -31 q 899 3 893 -1 q 910 7 904 7 q 926 4 924 7 q 894 -46 913 -26 q 857 -82 875 -65 q 828 -120 840 -100 q 817 -156 815 -140 q 826 -178 815 -169 q 854 -186 838 -186 q 903 -178 879 -186 q 935 -171 926 -171 q 940 -175 940 -171 q 922 -196 940 -186 q 881 -212 904 -206 q 842 -218 858 -218 z "},"Ð":{"ha":1263,"x_min":11,"x_max":1297,"o":"m 217 -160 q 192 -153 208 -160 q 169 -147 176 -147 q 164 -151 171 -147 l 158 -149 q 17 67 17 -69 q 60 171 17 131 q 168 211 104 211 q 382 143 256 211 l 411 128 q 450 253 429 179 q 378 251 403 251 q 350 249 354 250 l 353 249 q 350 249 349 249 q 324 261 339 250 q 307 279 308 272 l 311 282 q 460 289 389 288 q 494 444 478 363 q 521 606 511 526 q 531 751 531 686 q 526 838 531 799 q 363 819 438 832 q 228 786 288 806 q 61 640 61 732 q 215 493 61 556 q 218 490 215 493 q 203 486 218 486 q 85 544 158 486 q 11 663 11 606 q 226 842 11 781 q 365 872 292 861 q 518 889 438 883 q 396 1032 489 1032 l 376 1032 q 415 972 415 1015 q 389 919 415 932 q 307 997 376 999 q 394 1047 329 1047 q 544 890 508 1047 q 581 892 563 892 q 617 892 599 892 q 772 883 697 892 q 992 1013 881 1013 q 1060 988 1025 1013 q 1094 933 1094 967 q 1082 908 1094 908 q 1046 949 1078 908 q 969 990 1017 990 q 885 961 925 990 q 811 878 844 932 q 1297 438 1297 807 q 1146 111 1297 249 q 807 -28 994 -28 q 518 29 674 -28 q 229 -125 401 -119 l 225 -125 q 174 -83 174 -128 q 193 -50 174 -50 q 229 -75 196 -50 q 294 -100 263 -100 q 456 54 376 -100 l 406 75 l 390 40 q 382 31 386 31 q 376 40 376 31 q 392 81 376 42 q 277 121 329 104 q 181 146 225 138 q 152 150 165 149 q 128 151 139 151 q 26 65 26 151 q 147 -119 26 -40 q 178 -137 161 -129 q 215 -154 194 -144 q 221 -158 219 -154 q 217 -160 221 -160 m 538 506 q 510 391 524 444 q 481 290 496 338 q 519 290 500 290 q 546 290 533 290 q 576 400 561 342 q 607 522 592 458 q 662 693 629 614 q 738 836 694 772 q 679 840 708 839 q 619 842 650 842 q 589 841 606 842 q 553 839 572 840 q 558 790 556 817 q 560 736 560 764 q 554 615 560 676 q 538 506 549 554 m 807 -11 q 1108 114 986 -11 q 1233 417 1233 238 q 786 831 1233 768 q 732 694 760 775 q 678 508 704 614 l 624 288 q 746 275 700 285 q 753 269 753 274 q 740 263 753 263 q 618 261 683 263 l 604 206 q 578 131 593 167 q 540 64 563 96 q 807 -11 706 -11 m 474 94 q 536 257 506 163 q 474 254 506 256 l 469 254 q 447 185 458 218 q 422 122 435 153 l 474 94 z "},"Ẽ":{"ha":1038,"x_min":3,"x_max":1058,"o":"m 88 -226 q 27 -202 51 -226 q 3 -142 3 -178 q 28 -67 3 -104 q 218 75 97 36 q 281 315 281 228 q 208 407 281 407 q 200 407 204 407 q 192 406 196 407 q 211 371 211 394 q 167 301 211 322 q 169 313 168 307 q 169 324 169 318 q 115 374 169 376 q 211 421 150 421 q 300 318 300 421 q 298 283 300 303 q 290 243 296 264 q 312 317 301 275 q 333 413 322 358 l 344 464 l 338 464 q 139 411 217 464 l 136 415 l 185 454 q 354 507 242 501 q 398 692 376 613 q 438 825 419 771 q 381 833 408 831 q 326 836 354 836 q 200 817 263 836 q 121 739 121 792 q 136 694 121 718 q 147 676 143 682 q 150 668 150 669 q 81 621 150 647 q 63 665 63 639 q 169 826 63 749 q 361 906 278 906 q 467 892 406 906 q 517 964 489 940 q 531 975 522 969 q 550 990 539 981 q 521 940 536 967 q 492 886 506 914 q 694 845 607 860 q 840 831 782 831 q 1001 881 964 831 q 1022 899 1015 899 q 1026 894 1026 899 q 1022 882 1026 890 q 797 764 953 764 q 564 797 706 764 q 489 501 525 718 q 681 478 614 486 q 756 471 747 471 q 896 501 840 471 q 901 497 901 501 q 839 443 901 472 q 733 421 794 421 q 644 428 707 421 q 481 451 582 436 q 369 154 440 217 l 300 92 q 322 94 311 93 q 344 94 333 94 q 435 83 390 94 q 657 31 558 49 q 828 14 756 14 q 1019 72 969 14 q 1049 147 1049 106 q 1036 187 1049 171 q 1024 204 1024 203 q 1032 214 1024 214 q 1058 157 1058 214 q 1029 69 1058 111 q 756 -39 950 -39 q 628 -25 714 -39 q 415 17 543 -11 q 348 27 381 24 q 285 31 315 31 q 214 26 250 31 q 188 -28 200 -3 q 163 -75 176 -53 q 139 -103 146 -103 l 139 -101 q 150 -72 139 -93 q 174 -26 161 -49 q 196 24 186 -3 q 66 -37 115 7 q 17 -131 17 -82 q 118 -208 17 -208 q 133 -208 125 -208 q 142 -208 142 -207 q 101 -219 142 -211 q 94 -224 97 -221 q 88 -226 92 -226 m 431 507 l 431 508 q 447 619 431 561 q 479 740 464 676 q 506 772 490 756 q 538 803 521 788 l 464 819 q 419 686 442 764 q 374 508 397 608 l 386 508 q 407 508 396 508 q 431 507 418 508 m 240 82 l 286 90 q 364 249 331 157 q 421 458 397 342 q 364 463 392 463 l 332 324 q 301 235 322 285 q 256 122 279 186 l 240 82 m 697 1042 q 654 1051 676 1042 q 610 1071 632 1061 q 571 1081 589 1081 q 527 1068 546 1081 q 501 1043 508 1056 q 493 1050 490 1043 q 531 1104 504 1083 q 589 1125 558 1125 q 633 1115 611 1125 q 677 1096 656 1106 q 717 1086 699 1086 q 760 1099 740 1086 q 785 1124 781 1113 q 797 1118 797 1124 q 757 1063 785 1083 q 697 1042 729 1042 z "},"F":{"ha":953,"x_min":26,"x_max":1210,"o":"m 361 -74 q 181 -25 265 -74 q 58 117 89 32 q 42 173 47 147 q 36 217 36 199 q 68 261 36 261 q 79 251 78 261 q 92 207 86 225 q 101 178 97 189 q 119 142 108 158 q 143 110 131 125 q 318 36 208 36 q 364 44 338 36 q 397 53 393 53 q 401 49 401 51 q 296 24 401 24 q 99 126 146 24 q 360 -60 182 -60 q 661 108 551 -60 q 731 252 696 161 q 801 472 765 343 q 767 476 788 474 q 724 482 747 478 q 586 247 713 328 q 594 278 594 260 q 578 331 594 289 q 585 360 578 340 q 600 382 592 379 l 603 379 q 628 313 628 325 q 626 307 628 307 l 607 274 q 706 485 703 360 q 544 501 604 501 q 369 456 439 501 l 367 460 l 411 494 q 586 542 468 542 q 639 539 610 542 q 703 531 668 536 q 684 601 697 569 q 651 658 671 632 q 544 722 607 722 q 523 718 536 722 q 503 714 510 714 q 499 717 499 714 q 550 739 499 739 q 675 669 625 739 q 724 529 715 610 q 760 524 739 528 q 811 515 782 521 q 856 667 835 604 q 894 769 876 731 q 794 782 849 772 q 675 806 739 792 l 457 856 q 338 875 392 868 q 242 882 285 882 q 81 839 135 882 q 38 761 38 804 q 143 686 38 686 q 147 685 147 686 q 113 678 147 679 q 107 676 110 678 q 100 674 104 674 q 81 678 93 674 q 26 753 26 696 q 31 785 26 768 q 47 817 36 801 q 299 935 126 935 q 373 930 333 935 q 458 917 413 925 q 649 872 535 897 q 918 815 764 847 l 936 846 q 1001 907 960 879 q 1085 933 1047 933 q 1130 921 1104 933 q 1156 889 1156 908 q 1143 874 1156 874 q 1119 894 1140 874 q 1078 917 1101 917 q 992 836 1028 917 l 979 810 q 1015 808 997 808 q 1046 808 1032 808 q 1174 840 1143 808 q 1199 906 1199 869 q 1188 941 1199 925 q 1176 957 1176 957 q 1185 964 1176 964 q 1210 906 1210 964 q 975 765 1210 764 l 964 765 q 938 688 958 753 q 882 508 918 624 l 911 508 q 977 515 947 508 q 1032 535 1007 522 q 1038 532 1038 535 q 982 483 1038 510 q 938 470 961 475 q 890 465 915 465 q 879 465 885 465 q 868 467 874 465 q 785 248 829 340 q 696 94 742 156 q 361 -74 563 -74 z "},"G":{"ha":844,"x_min":-124,"x_max":1044,"o":"m 194 -362 q 10 -314 90 -362 q -107 -167 -75 -264 q -124 -74 -124 -112 q -79 -24 -124 -24 q -62 -32 -64 -24 q -60 -51 -61 -39 q -57 -79 -58 -64 q 3 -214 -49 -162 q 8 -224 8 -219 q 4 -226 6 -226 q -32 -197 -7 -226 q -67 -157 -61 -168 q 193 -346 8 -346 q 425 -260 314 -346 q 628 11 556 -162 q 726 338 667 100 q 740 383 732 357 q 760 444 749 410 q 725 450 742 447 q 693 454 708 453 q 578 79 653 285 q 389 -224 465 -224 q 374 -203 378 -224 q 347 -228 363 -217 q 318 -179 318 -211 q 330 -149 318 -167 q 353 -131 342 -131 q 360 -140 354 -135 q 375 -151 365 -144 q 396 -179 396 -165 q 393 -185 396 -182 q 410 -174 397 -183 q 581 144 490 -111 q 339 10 485 10 q 126 106 206 10 q 51 329 51 193 q 172 675 51 519 q 467 899 286 821 q 728 956 604 956 l 742 956 l 742 994 q 741 1008 742 1000 q 740 1028 740 1017 l 740 1060 q 747 1082 740 1078 q 756 956 753 1078 q 961 865 897 947 q 985 810 985 835 q 976 779 985 797 q 953 761 967 761 q 939 769 939 761 q 943 778 939 771 q 947 793 947 785 q 940 817 947 804 q 921 849 933 831 q 756 935 860 922 q 748 785 754 863 q 726 621 742 707 q 717 566 722 594 q 704 506 711 538 q 752 503 726 506 q 808 494 778 500 q 881 517 849 517 q 888 514 888 517 q 879 506 886 511 q 857 485 872 501 q 920 474 894 478 q 960 471 946 471 q 1032 493 1010 471 q 1040 497 1036 497 q 1044 492 1044 497 q 1032 472 1044 483 q 915 418 981 418 q 822 433 896 418 q 778 307 801 390 q 714 91 740 175 q 672 -28 688 7 q 444 -292 597 -197 q 194 -362 331 -362 m 378 46 q 542 118 469 46 q 614 282 614 193 q 533 414 614 406 q 551 378 551 400 q 533 333 551 356 q 489 307 514 311 q 497 343 497 326 q 456 397 497 383 l 454 396 l 453 399 q 443 400 447 399 q 476 421 463 415 q 506 446 496 436 q 682 506 572 500 q 722 733 707 625 q 740 938 738 840 l 714 938 q 314 753 507 938 q 124 363 124 569 q 189 147 124 238 q 378 46 261 46 m 632 307 q 648 364 640 336 q 661 418 656 392 l 669 456 l 656 456 q 526 433 583 456 q 603 393 574 433 q 632 307 628 358 z "},"Ğ":{"ha":844,"x_min":-124,"x_max":1044,"o":"m 194 -362 q 10 -314 90 -362 q -107 -167 -75 -264 q -124 -74 -124 -112 q -79 -24 -124 -24 q -62 -32 -64 -24 q -60 -51 -61 -39 q -57 -79 -58 -64 q 3 -214 -49 -162 q 8 -224 8 -219 q 4 -226 6 -226 q -32 -197 -7 -226 q -67 -157 -61 -168 q 193 -346 8 -346 q 425 -260 314 -346 q 628 11 556 -162 q 726 338 667 100 q 740 383 732 357 q 760 444 749 410 q 725 450 742 447 q 693 454 708 453 q 578 79 653 285 q 389 -224 465 -224 q 374 -203 378 -224 q 347 -228 363 -217 q 318 -179 318 -211 q 330 -149 318 -167 q 353 -131 342 -131 q 360 -140 354 -135 q 375 -151 365 -144 q 396 -179 396 -165 q 393 -185 396 -182 q 410 -174 397 -183 q 581 144 490 -111 q 339 10 485 10 q 126 106 206 10 q 51 329 51 193 q 172 675 51 519 q 467 899 286 821 q 728 956 604 956 l 742 956 l 742 994 q 741 1008 742 1000 q 740 1028 740 1017 l 740 1060 q 747 1082 740 1078 q 756 956 753 1078 q 961 865 897 947 q 985 810 985 835 q 976 779 985 797 q 953 761 967 761 q 939 769 939 761 q 943 778 939 771 q 947 793 947 785 q 940 817 947 804 q 921 849 933 831 q 756 935 860 922 q 748 785 754 863 q 726 621 742 707 q 717 566 722 594 q 704 506 711 538 q 752 503 726 506 q 808 494 778 500 q 881 517 849 517 q 888 514 888 517 q 879 506 886 511 q 857 485 872 501 q 920 474 894 478 q 960 471 946 471 q 1032 493 1010 471 q 1040 497 1036 497 q 1044 492 1044 497 q 1032 472 1044 483 q 915 418 981 418 q 822 433 896 418 q 778 307 801 390 q 714 91 740 175 q 672 -28 688 7 q 444 -292 597 -197 q 194 -362 331 -362 m 378 46 q 542 118 469 46 q 614 282 614 193 q 533 414 614 406 q 551 378 551 400 q 533 333 551 356 q 489 307 514 311 q 497 343 497 326 q 456 397 497 383 l 454 396 l 453 399 q 443 400 447 399 q 476 421 463 415 q 506 446 496 436 q 682 506 572 500 q 722 733 707 625 q 740 938 738 840 l 714 938 q 314 753 507 938 q 124 363 124 569 q 189 147 124 238 q 378 46 261 46 m 632 307 q 648 364 640 336 q 661 418 656 392 l 669 456 l 656 456 q 526 433 583 456 q 603 393 574 433 q 632 307 628 358 m 742 1139 q 636 1226 636 1139 q 637 1244 636 1235 q 639 1264 638 1254 q 660 1282 646 1282 q 669 1269 669 1282 q 690 1205 668 1224 q 743 1186 713 1186 q 845 1215 797 1186 q 919 1274 893 1243 q 933 1281 929 1281 q 943 1269 943 1281 q 939 1256 943 1263 q 877 1185 915 1211 q 801 1149 839 1160 q 742 1139 764 1139 z "},"Ǧ":{"ha":844,"x_min":-124,"x_max":1044,"o":"m 194 -362 q 10 -314 90 -362 q -107 -167 -75 -264 q -124 -74 -124 -112 q -79 -24 -124 -24 q -62 -32 -64 -24 q -60 -51 -61 -39 q -57 -79 -58 -64 q 3 -214 -49 -162 q 8 -224 8 -219 q 4 -226 6 -226 q -32 -197 -7 -226 q -67 -157 -61 -168 q 193 -346 8 -346 q 425 -260 314 -346 q 628 11 556 -162 q 726 338 667 100 q 740 383 732 357 q 760 444 749 410 q 725 450 742 447 q 693 454 708 453 q 578 79 653 285 q 389 -224 465 -224 q 374 -203 378 -224 q 347 -228 363 -217 q 318 -179 318 -211 q 330 -149 318 -167 q 353 -131 342 -131 q 360 -140 354 -135 q 375 -151 365 -144 q 396 -179 396 -165 q 393 -185 396 -182 q 410 -174 397 -183 q 581 144 490 -111 q 339 10 485 10 q 126 106 206 10 q 51 329 51 193 q 172 675 51 519 q 467 899 286 821 q 728 956 604 956 l 742 956 l 742 994 q 741 1008 742 1000 q 740 1028 740 1017 l 740 1060 q 747 1082 740 1078 q 756 956 753 1078 q 961 865 897 947 q 985 810 985 835 q 976 779 985 797 q 953 761 967 761 q 939 769 939 761 q 943 778 939 771 q 947 793 947 785 q 940 817 947 804 q 921 849 933 831 q 756 935 860 922 q 748 785 754 863 q 726 621 742 707 q 717 566 722 594 q 704 506 711 538 q 752 503 726 506 q 808 494 778 500 q 881 517 849 517 q 888 514 888 517 q 879 506 886 511 q 857 485 872 501 q 920 474 894 478 q 960 471 946 471 q 1032 493 1010 471 q 1040 497 1036 497 q 1044 492 1044 497 q 1032 472 1044 483 q 915 418 981 418 q 822 433 896 418 q 778 307 801 390 q 714 91 740 175 q 672 -28 688 7 q 444 -292 597 -197 q 194 -362 331 -362 m 378 46 q 542 118 469 46 q 614 282 614 193 q 533 414 614 406 q 551 378 551 400 q 533 333 551 356 q 489 307 514 311 q 497 343 497 326 q 456 397 497 383 l 454 396 l 453 399 q 443 400 447 399 q 476 421 463 415 q 506 446 496 436 q 682 506 572 500 q 722 733 707 625 q 740 938 738 840 l 714 938 q 314 753 507 938 q 124 363 124 569 q 189 147 124 238 q 378 46 261 46 m 632 307 q 648 364 640 336 q 661 418 656 392 l 669 456 l 656 456 q 526 433 583 456 q 603 393 574 433 q 632 307 628 358 m 742 1139 q 724 1143 728 1139 q 709 1165 722 1144 q 679 1214 696 1186 q 648 1264 663 1242 q 629 1289 633 1286 q 626 1294 626 1290 q 634 1302 626 1300 q 646 1300 642 1304 q 665 1285 649 1300 q 703 1249 682 1269 q 740 1213 724 1229 q 757 1192 756 1196 q 790 1214 764 1197 q 846 1251 815 1231 q 900 1285 876 1271 q 928 1300 924 1300 q 935 1303 933 1303 q 942 1299 940 1303 q 936 1289 944 1294 q 901 1261 926 1283 q 845 1213 875 1239 q 792 1165 815 1186 q 764 1143 768 1144 q 742 1139 758 1139 z "},"Ĝ":{"ha":844,"x_min":-124,"x_max":1044,"o":"m 194 -362 q 10 -314 90 -362 q -107 -167 -75 -264 q -124 -74 -124 -112 q -79 -24 -124 -24 q -62 -32 -64 -24 q -60 -51 -61 -39 q -57 -79 -58 -64 q 3 -214 -49 -162 q 8 -224 8 -219 q 4 -226 6 -226 q -32 -197 -7 -226 q -67 -157 -61 -168 q 193 -346 8 -346 q 425 -260 314 -346 q 628 11 556 -162 q 726 338 667 100 q 740 383 732 357 q 760 444 749 410 q 725 450 742 447 q 693 454 708 453 q 578 79 653 285 q 389 -224 465 -224 q 374 -203 378 -224 q 347 -228 363 -217 q 318 -179 318 -211 q 330 -149 318 -167 q 353 -131 342 -131 q 360 -140 354 -135 q 375 -151 365 -144 q 396 -179 396 -165 q 393 -185 396 -182 q 410 -174 397 -183 q 581 144 490 -111 q 339 10 485 10 q 126 106 206 10 q 51 329 51 193 q 172 675 51 519 q 467 899 286 821 q 728 956 604 956 l 742 956 l 742 994 q 741 1008 742 1000 q 740 1028 740 1017 l 740 1060 q 747 1082 740 1078 q 756 956 753 1078 q 961 865 897 947 q 985 810 985 835 q 976 779 985 797 q 953 761 967 761 q 939 769 939 761 q 943 778 939 771 q 947 793 947 785 q 940 817 947 804 q 921 849 933 831 q 756 935 860 922 q 748 785 754 863 q 726 621 742 707 q 717 566 722 594 q 704 506 711 538 q 752 503 726 506 q 808 494 778 500 q 881 517 849 517 q 888 514 888 517 q 879 506 886 511 q 857 485 872 501 q 920 474 894 478 q 960 471 946 471 q 1032 493 1010 471 q 1040 497 1036 497 q 1044 492 1044 497 q 1032 472 1044 483 q 915 418 981 418 q 822 433 896 418 q 778 307 801 390 q 714 91 740 175 q 672 -28 688 7 q 444 -292 597 -197 q 194 -362 331 -362 m 378 46 q 542 118 469 46 q 614 282 614 193 q 533 414 614 406 q 551 378 551 400 q 533 333 551 356 q 489 307 514 311 q 497 343 497 326 q 456 397 497 383 l 454 396 l 453 399 q 443 400 447 399 q 476 421 463 415 q 506 446 496 436 q 682 506 572 500 q 722 733 707 625 q 740 938 738 840 l 714 938 q 314 753 507 938 q 124 363 124 569 q 189 147 124 238 q 378 46 261 46 m 632 307 q 648 364 640 336 q 661 418 656 392 l 669 456 l 656 456 q 526 433 583 456 q 603 393 574 433 q 632 307 628 358 m 599 1139 q 590 1143 593 1139 q 594 1153 588 1147 q 630 1179 604 1157 q 686 1228 656 1201 q 740 1276 717 1256 q 767 1299 763 1297 q 790 1303 774 1303 q 807 1299 803 1303 q 823 1276 810 1297 q 853 1228 836 1256 q 885 1178 871 1200 q 901 1153 899 1156 q 906 1147 906 1151 q 898 1140 904 1142 q 886 1142 892 1138 q 868 1157 885 1142 q 831 1192 851 1172 q 794 1229 810 1213 q 775 1250 778 1246 q 744 1228 769 1244 q 688 1191 718 1211 q 633 1156 657 1171 q 606 1142 608 1142 q 599 1139 600 1139 z "},"Ģ":{"ha":844,"x_min":-124,"x_max":1044,"o":"m 194 -362 q 10 -314 90 -362 q -107 -167 -75 -264 q -124 -74 -124 -112 q -79 -24 -124 -24 q -62 -32 -64 -24 q -60 -51 -61 -39 q -57 -79 -58 -64 q 3 -214 -49 -162 q 8 -224 8 -219 q 4 -226 6 -226 q -32 -197 -7 -226 q -67 -157 -61 -168 q 193 -346 8 -346 q 425 -260 314 -346 q 628 11 556 -162 q 726 338 667 100 q 740 383 732 357 q 760 444 749 410 q 725 450 742 447 q 693 454 708 453 q 578 79 653 285 q 389 -224 465 -224 q 374 -203 378 -224 q 347 -228 363 -217 q 318 -179 318 -211 q 330 -149 318 -167 q 353 -131 342 -131 q 360 -140 354 -135 q 375 -151 365 -144 q 396 -179 396 -165 q 393 -185 396 -182 q 410 -174 397 -183 q 581 144 490 -111 q 339 10 485 10 q 126 106 206 10 q 51 329 51 193 q 172 675 51 519 q 467 899 286 821 q 728 956 604 956 l 742 956 l 742 994 q 741 1008 742 1000 q 740 1028 740 1017 l 740 1060 q 747 1082 740 1078 q 756 956 753 1078 q 961 865 897 947 q 985 810 985 835 q 976 779 985 797 q 953 761 967 761 q 939 769 939 761 q 943 778 939 771 q 947 793 947 785 q 940 817 947 804 q 921 849 933 831 q 756 935 860 922 q 748 785 754 863 q 726 621 742 707 q 717 566 722 594 q 704 506 711 538 q 752 503 726 506 q 808 494 778 500 q 881 517 849 517 q 888 514 888 517 q 879 506 886 511 q 857 485 872 501 q 920 474 894 478 q 960 471 946 471 q 1032 493 1010 471 q 1040 497 1036 497 q 1044 492 1044 497 q 1032 472 1044 483 q 915 418 981 418 q 822 433 896 418 q 778 307 801 390 q 714 91 740 175 q 672 -28 688 7 q 444 -292 597 -197 q 194 -362 331 -362 m 378 46 q 542 118 469 46 q 614 282 614 193 q 533 414 614 406 q 551 378 551 400 q 533 333 551 356 q 489 307 514 311 q 497 343 497 326 q 456 397 497 383 l 454 396 l 453 399 q 443 400 447 399 q 476 421 463 415 q 506 446 496 436 q 682 506 572 500 q 722 733 707 625 q 740 938 738 840 l 714 938 q 314 753 507 938 q 124 363 124 569 q 189 147 124 238 q 378 46 261 46 m 632 307 q 648 364 640 336 q 661 418 656 392 l 669 456 l 656 456 q 526 433 583 456 q 603 393 574 433 q 632 307 628 358 m 182 -500 q 206 -510 196 -500 q 214 -540 217 -521 q 208 -567 213 -554 q 197 -594 204 -581 q 141 -687 171 -646 q 96 -728 111 -728 l 78 -728 q 96 -701 79 -722 q 131 -648 113 -681 q 153 -575 149 -615 q 152 -555 156 -564 q 150 -536 149 -546 q 156 -513 151 -526 q 182 -500 161 -500 z "},"Ġ":{"ha":844,"x_min":-124,"x_max":1044,"o":"m 194 -362 q 10 -314 90 -362 q -107 -167 -75 -264 q -124 -74 -124 -112 q -79 -24 -124 -24 q -62 -32 -64 -24 q -60 -51 -61 -39 q -57 -79 -58 -64 q 3 -214 -49 -162 q 8 -224 8 -219 q 4 -226 6 -226 q -32 -197 -7 -226 q -67 -157 -61 -168 q 193 -346 8 -346 q 425 -260 314 -346 q 628 11 556 -162 q 726 338 667 100 q 740 383 732 357 q 760 444 749 410 q 725 450 742 447 q 693 454 708 453 q 578 79 653 285 q 389 -224 465 -224 q 374 -203 378 -224 q 347 -228 363 -217 q 318 -179 318 -211 q 330 -149 318 -167 q 353 -131 342 -131 q 360 -140 354 -135 q 375 -151 365 -144 q 396 -179 396 -165 q 393 -185 396 -182 q 410 -174 397 -183 q 581 144 490 -111 q 339 10 485 10 q 126 106 206 10 q 51 329 51 193 q 172 675 51 519 q 467 899 286 821 q 728 956 604 956 l 742 956 l 742 994 q 741 1008 742 1000 q 740 1028 740 1017 l 740 1060 q 747 1082 740 1078 q 756 956 753 1078 q 961 865 897 947 q 985 810 985 835 q 976 779 985 797 q 953 761 967 761 q 939 769 939 761 q 943 778 939 771 q 947 793 947 785 q 940 817 947 804 q 921 849 933 831 q 756 935 860 922 q 748 785 754 863 q 726 621 742 707 q 717 566 722 594 q 704 506 711 538 q 752 503 726 506 q 808 494 778 500 q 881 517 849 517 q 888 514 888 517 q 879 506 886 511 q 857 485 872 501 q 920 474 894 478 q 960 471 946 471 q 1032 493 1010 471 q 1040 497 1036 497 q 1044 492 1044 497 q 1032 472 1044 483 q 915 418 981 418 q 822 433 896 418 q 778 307 801 390 q 714 91 740 175 q 672 -28 688 7 q 444 -292 597 -197 q 194 -362 331 -362 m 378 46 q 542 118 469 46 q 614 282 614 193 q 533 414 614 406 q 551 378 551 400 q 533 333 551 356 q 489 307 514 311 q 497 343 497 326 q 456 397 497 383 l 454 396 l 453 399 q 443 400 447 399 q 476 421 463 415 q 506 446 496 436 q 682 506 572 500 q 722 733 707 625 q 740 938 738 840 l 714 938 q 314 753 507 938 q 124 363 124 569 q 189 147 124 238 q 378 46 261 46 m 632 307 q 648 364 640 336 q 661 418 656 392 l 669 456 l 656 456 q 526 433 583 456 q 603 393 574 433 q 632 307 628 358 m 725 1138 q 708 1141 715 1138 q 699 1150 700 1144 q 697 1163 697 1154 q 715 1208 697 1189 q 751 1226 732 1226 q 786 1200 786 1226 q 772 1161 786 1186 q 751 1143 765 1149 q 725 1138 738 1138 z "},"ẞ":{"ha":682,"x_min":-260,"x_max":700,"o":"m -208 -236 q -260 -194 -260 -236 q -242 -161 -260 -161 q -204 -186 -237 -161 q -139 -211 -172 -211 q 19 -57 -51 -211 q 40 -13 28 -39 q 65 46 51 13 q 72 64 69 54 q 95 127 85 97 q 115 194 106 157 q 139 286 125 231 q 174 426 153 342 q 150 406 163 417 q 121 382 138 396 q 83 436 83 399 q 98 472 83 451 q 126 494 113 492 q 178 444 147 440 q 185 488 181 456 q 196 565 190 521 q 206 657 201 610 q 210 746 210 704 q 195 877 208 815 q 153 978 182 939 q 75 1017 125 1017 l 56 1017 q 85 995 76 1010 q 94 960 93 981 q 68 904 94 921 q -14 976 58 983 q 83 1032 11 1032 q 156 1005 126 1032 q 205 933 186 978 q 232 836 224 889 q 240 732 240 783 q 235 618 240 672 q 217 515 229 564 q 178 355 199 431 q 135 206 158 279 q 213 399 172 293 q 293 619 254 504 q 360 785 322 710 q 447 905 397 860 q 563 950 497 950 q 666 912 632 950 q 700 817 700 874 q 696 772 700 796 q 681 725 692 749 q 629 656 661 678 q 571 625 597 635 q 538 590 554 611 q 521 535 521 568 q 540 465 521 506 q 607 371 558 425 q 646 309 635 340 q 657 247 657 278 q 632 148 657 192 q 588 86 607 104 q 534 53 561 61 q 482 46 507 46 q 446 51 463 46 q 390 74 418 58 q 347 104 363 89 q 294 167 313 139 q 276 221 276 196 q 284 247 276 235 q 299 263 292 258 q 307 258 307 268 q 350 155 317 194 q 425 97 383 115 q 499 79 467 79 q 538 90 517 79 q 574 127 558 101 q 589 193 589 153 q 582 251 589 217 q 547 339 571 296 q 499 419 524 382 q 458 482 475 456 q 451 508 451 493 q 471 561 451 533 q 517 611 490 589 q 564 640 543 633 q 600 682 585 657 q 628 740 615 707 q 650 843 650 799 q 635 905 650 883 q 597 926 619 926 q 505 892 551 926 q 419 805 458 858 q 351 692 379 751 q 306 575 332 649 q 251 413 279 501 q 193 233 222 324 q 137 67 164 143 q 89 -56 110 -8 q -32 -190 49 -144 q -204 -236 -112 -236 l -208 -236 z "}}}
